<?xml version="1.0" encoding="utf-8"?>
<!-- Generator: Adobe Illustrator 26.0.1, SVG Export Plug-In . SVG Version: 6.00 Build 0)  -->
<svg version="1.1" xmlns="http://www.w3.org/2000/svg" xmlns:xlink="http://www.w3.org/1999/xlink" x="0px" y="0px"
	 viewBox="0 0 312.2 363.4" style="enable-background:new 0 0 312.2 363.4;" xml:space="preserve">
<style type="text/css">
	.st0{display:none;}
	.st1{display:inline;fill:#0A102D;}
	.st2{fill:url(#SVGID_1_);}
	.st3{fill:url(#SVGID_00000000934002355564843380000000062470649547448253_);}
	.st4{opacity:0.47;}
	.st5{opacity:0.1;fill:#FFFFFF;}
	.st6{fill:#4738B3;}
	.st7{fill:#D06288;}
	.st8{fill:url(#SVGID_00000010272766608796798130000012211790590926763159_);}
	.st9{fill:url(#SVGID_00000033338474641034599420000014944892836418937488_);}
	.st10{fill:url(#SVGID_00000075128360565717137410000001311174286808510887_);}
	.st11{fill:#FFFFFF;}
	.st12{font-family:'Montserrat-Bold';}
	.st13{font-size:4px;}
	.st14{font-family:'Montserrat-Regular';}
	.st15{opacity:0.15;}
	.st16{fill:url(#SVGID_00000119116396783350539620000010699710366757666952_);}
	.st17{opacity:0.45;fill:#946CCF;}
	.st18{fill:#946CCF;}
	.st19{fill:#EBEBEA;}
	.st20{fill:url(#SVGID_00000083063754524547138860000004990574166271395756_);}
	.st21{opacity:0.69;}
	.st22{fill:url(#SVGID_00000183232276178251890910000015236488786453120153_);}
	.st23{fill:url(#SVGID_00000032639012596646717700000014867600724166907558_);}
	.st24{fill:url(#SVGID_00000109744788369864220790000002675756664587946399_);}
	.st25{fill:url(#SVGID_00000173127692658448932130000016901653751582530441_);}
	.st26{fill:none;}
	.st27{opacity:0.28;fill:#29227F;}
	.st28{fill:#EEEEF3;}
	.st29{opacity:0.1;fill:#29227F;}
	.st30{opacity:0.15;fill:#29227F;}
	.st31{fill:#F0F3F5;}
	.st32{fill:#EFD387;}
</style>
<g id="Background" class="st0">
	<rect x="-362.1" y="-71.8" class="st1" width="750" height="500"/>
</g>
<g id="Objects">
	<linearGradient id="SVGID_1_" gradientUnits="userSpaceOnUse" x1="15.6677" y1="237.3778" x2="18.1687" y2="239.7955">
		<stop  offset="7.153450e-02" style="stop-color:#9ED7C4"/>
		<stop  offset="0.9732" style="stop-color:#729DAE"/>
	</linearGradient>
	<path class="st2" d="M17.2,238.5c0,0.2-0.1,0.3-0.3,0.3c-0.2,0-0.3-0.2-0.3-0.3c0-0.2,0.2-0.3,0.3-0.3
		C17,238.2,17.2,238.3,17.2,238.5z"/>
	
		<linearGradient id="SVGID_00000055668306785796559260000007386711521690635708_" gradientUnits="userSpaceOnUse" x1="-326.6162" y1="368.8641" x2="-319.5444" y2="375.7001" gradientTransform="matrix(-4.0393 0 0 -4.0393 -1228.6155 1517.554)">
		<stop  offset="7.153450e-02" style="stop-color:#9ED7C4"/>
		<stop  offset="0.9732" style="stop-color:#729DAE"/>
	</linearGradient>
	<path style="fill:url(#SVGID_00000055668306785796559260000007386711521690635708_);" d="M73.2,14.4c0-2.1,1.7-3.8,3.8-3.8
		c2.1,0,3.8,1.7,3.8,3.8c0,2.1-1.7,3.8-3.8,3.8C74.9,18.2,73.2,16.5,73.2,14.4z"/>
	<g class="st4">
		
			<image style="overflow:visible;" width="327" height="327" xlink:href="9B00DF39.png"  transform="matrix(0.24 0 0 0.24 -62.4927 242.319)">
		</image>
	</g>
	<g>
		
			<image style="overflow:visible;" width="303" height="303" xlink:href="9B00DF3B.png"  transform="matrix(0.24 0 0 0.24 -135.9414 75.4064)">
		</image>
	</g>
	<path class="st5" d="M27.9,59.5c0,1-0.8,1.8-1.8,1.8c-1,0-1.8-0.8-1.8-1.8c0-1,0.8-1.8,1.8-1.8C27.1,57.7,27.9,58.5,27.9,59.5z"/>
	<g>
		<path class="st6" d="M215,347.9h-5.1c-0.1,0-0.1-0.1-0.1-0.1c0-0.1,0.1-0.1,0.1-0.1h5.1c0.1,0,0.1,0.1,0.1,0.1
			C215.1,347.8,215.1,347.9,215,347.9z M204.9,347.9h-5c-0.1,0-0.1-0.1-0.1-0.1c0-0.1,0.1-0.1,0.1-0.1h5c0.1,0,0.1,0.1,0.1,0.1
			C205.1,347.8,205,347.9,204.9,347.9z M194.9,347.9h-5c-0.1,0-0.1-0.1-0.1-0.1c0-0.1,0.1-0.1,0.1-0.1h5c0.1,0,0.1,0.1,0.1,0.1
			C195.1,347.8,195,347.9,194.9,347.9z M184.9,347.9h-5c-0.1,0-0.1-0.1-0.1-0.1c0-0.1,0.1-0.1,0.1-0.1h5c0.1,0,0.1,0.1,0.1,0.1
			C185.1,347.8,185,347.9,184.9,347.9z M174.9,347.9h-5c-0.1,0-0.1-0.1-0.1-0.1c0-0.1,0.1-0.1,0.1-0.1h5c0.1,0,0.1,0.1,0.1,0.1
			C175.1,347.8,175,347.9,174.9,347.9z M164.9,347.9h-5c-0.1,0-0.1-0.1-0.1-0.1c0-0.1,0.1-0.1,0.1-0.1h5c0.1,0,0.1,0.1,0.1,0.1
			C165.1,347.8,165,347.9,164.9,347.9z M154.9,347.9h-5c-0.1,0-0.1-0.1-0.1-0.1c0-0.1,0.1-0.1,0.1-0.1h5c0.1,0,0.1,0.1,0.1,0.1
			C155.1,347.8,155,347.9,154.9,347.9z M144.9,347.9h-5c-0.1,0-0.1-0.1-0.1-0.1c0-0.1,0.1-0.1,0.1-0.1h5c0.1,0,0.1,0.1,0.1,0.1
			C145.1,347.8,145,347.9,144.9,347.9z M134.9,347.9h-5c-0.1,0-0.1-0.1-0.1-0.1c0-0.1,0.1-0.1,0.1-0.1h5c0.1,0,0.1,0.1,0.1,0.1
			C135.1,347.8,135,347.9,134.9,347.9z M124.9,347.9h-5c-0.1,0-0.1-0.1-0.1-0.1c0-0.1,0.1-0.1,0.1-0.1h5c0.1,0,0.1,0.1,0.1,0.1
			C125.1,347.8,125,347.9,124.9,347.9z M114.9,347.9h-5c-0.1,0-0.1-0.1-0.1-0.1c0-0.1,0.1-0.1,0.1-0.1h5c0.1,0,0.1,0.1,0.1,0.1
			C115.1,347.8,115,347.9,114.9,347.9z M104.9,347.9h-5c-0.1,0-0.1-0.1-0.1-0.1c0-0.1,0.1-0.1,0.1-0.1h5c0.1,0,0.1,0.1,0.1,0.1
			C105.1,347.8,105,347.9,104.9,347.9z M95,347.8C94.9,347.8,94.9,347.8,95,347.8c-1.7-0.2-3.3-0.6-4.9-1.3c-0.1,0-0.1-0.1-0.1-0.2
			c0-0.1,0.1-0.1,0.2-0.1c1.5,0.7,3.1,1.1,4.8,1.3c0.1,0,0.1,0.1,0.1,0.1C95.1,347.7,95,347.8,95,347.8z M219.9,347.2
			c-0.1,0-0.1,0-0.1-0.1c0-0.1,0-0.1,0.1-0.2c1.6-0.5,3.1-1.2,4.5-2c0.1,0,0.1,0,0.2,0c0,0.1,0,0.1,0,0.2
			C223.1,346,221.6,346.7,219.9,347.2C220,347.2,219.9,347.2,219.9,347.2z M85.9,343.9C85.9,343.9,85.9,343.8,85.9,343.9
			c-1.4-1.1-2.5-2.4-3.4-3.8c0-0.1,0-0.1,0-0.2c0.1,0,0.1,0,0.2,0c0.9,1.4,2,2.7,3.2,3.7C86,343.7,86.1,343.8,85.9,343.9
			C86,343.8,85.9,343.9,85.9,343.9z M228.3,341.9C228.2,341.9,228.2,341.9,228.3,341.9c-0.1-0.1-0.1-0.2-0.1-0.2
			c1.1-1.3,2-2.7,2.6-4.2c0-0.1,0.1-0.1,0.2-0.1c0.1,0,0.1,0.1,0.1,0.2C230.4,339.1,229.5,340.5,228.3,341.9
			C228.3,341.9,228.3,341.9,228.3,341.9z M80.7,335.5c-0.1,0-0.1,0-0.1-0.1c-0.3-1.3-0.5-2.6-0.5-4v-1c0-0.1,0.1-0.1,0.1-0.1
			s0.1,0.1,0.1,0.1v1c0,1.3,0.2,2.6,0.5,3.9C80.8,335.4,80.8,335.5,80.7,335.5C80.7,335.5,80.7,335.5,80.7,335.5z M231.7,332.7
			c-0.1,0-0.1-0.1-0.1-0.1v-5c0-0.1,0.1-0.1,0.1-0.1c0.1,0,0.1,0.1,0.1,0.1v5C231.8,332.7,231.8,332.7,231.7,332.7z M80.2,325.6
			c-0.1,0-0.1-0.1-0.1-0.1v-5c0-0.1,0.1-0.1,0.1-0.1s0.1,0.1,0.1,0.1v5C80.3,325.5,80.3,325.6,80.2,325.6z M231.7,322.7
			c-0.1,0-0.1-0.1-0.1-0.1v-5c0-0.1,0.1-0.1,0.1-0.1c0.1,0,0.1,0.1,0.1,0.1v5C231.8,322.7,231.8,322.7,231.7,322.7z M80.2,315.6
			c-0.1,0-0.1-0.1-0.1-0.1v-5c0-0.1,0.1-0.1,0.1-0.1s0.1,0.1,0.1,0.1v5C80.3,315.5,80.3,315.6,80.2,315.6z M231.7,312.8
			c-0.1,0-0.1-0.1-0.1-0.1v-5c0-0.1,0.1-0.1,0.1-0.1c0.1,0,0.1,0.1,0.1,0.1v5C231.8,312.7,231.8,312.8,231.7,312.8z M80.2,305.6
			c-0.1,0-0.1-0.1-0.1-0.1v-5c0-0.1,0.1-0.1,0.1-0.1s0.1,0.1,0.1,0.1v5C80.3,305.5,80.3,305.6,80.2,305.6z M231.7,302.8
			c-0.1,0-0.1-0.1-0.1-0.1v-5c0-0.1,0.1-0.1,0.1-0.1c0.1,0,0.1,0.1,0.1,0.1v5C231.8,302.7,231.8,302.8,231.7,302.8z M80.2,295.6
			c-0.1,0-0.1-0.1-0.1-0.1v-5c0-0.1,0.1-0.1,0.1-0.1s0.1,0.1,0.1,0.1v5C80.3,295.5,80.3,295.6,80.2,295.6z M231.7,292.8
			c-0.1,0-0.1-0.1-0.1-0.1v-5c0-0.1,0.1-0.1,0.1-0.1c0.1,0,0.1,0.1,0.1,0.1v5C231.8,292.7,231.8,292.8,231.7,292.8z M80.2,285.6
			c-0.1,0-0.1-0.1-0.1-0.1v-5c0-0.1,0.1-0.1,0.1-0.1s0.1,0.1,0.1,0.1v5C80.3,285.5,80.3,285.6,80.2,285.6z M231.7,282.8
			c-0.1,0-0.1-0.1-0.1-0.1v-5c0-0.1,0.1-0.1,0.1-0.1c0.1,0,0.1,0.1,0.1,0.1v5C231.8,282.7,231.8,282.8,231.7,282.8z M80.2,275.6
			c-0.1,0-0.1-0.1-0.1-0.1v-5c0-0.1,0.1-0.1,0.1-0.1s0.1,0.1,0.1,0.1v5C80.3,275.5,80.3,275.6,80.2,275.6z M231.7,272.8
			c-0.1,0-0.1-0.1-0.1-0.1v-5c0-0.1,0.1-0.1,0.1-0.1c0.1,0,0.1,0.1,0.1,0.1v5C231.8,272.7,231.8,272.8,231.7,272.8z M80.2,265.6
			c-0.1,0-0.1-0.1-0.1-0.1v-5c0-0.1,0.1-0.1,0.1-0.1s0.1,0.1,0.1,0.1v5C80.3,265.5,80.3,265.6,80.2,265.6z M231.7,262.8
			c-0.1,0-0.1-0.1-0.1-0.1v-5c0-0.1,0.1-0.1,0.1-0.1c0.1,0,0.1,0.1,0.1,0.1v5C231.8,262.7,231.8,262.8,231.7,262.8z M80.2,255.6
			c-0.1,0-0.1-0.1-0.1-0.1v-5c0-0.1,0.1-0.1,0.1-0.1s0.1,0.1,0.1,0.1v5C80.3,255.5,80.3,255.6,80.2,255.6z M231.7,252.8
			c-0.1,0-0.1-0.1-0.1-0.1v-5c0-0.1,0.1-0.1,0.1-0.1c0.1,0,0.1,0.1,0.1,0.1v5C231.8,252.7,231.8,252.8,231.7,252.8z M80.2,245.6
			c-0.1,0-0.1-0.1-0.1-0.1v-5c0-0.1,0.1-0.1,0.1-0.1s0.1,0.1,0.1,0.1v5C80.3,245.5,80.3,245.6,80.2,245.6z M231.7,242.8
			c-0.1,0-0.1-0.1-0.1-0.1v-5c0-0.1,0.1-0.1,0.1-0.1c0.1,0,0.1,0.1,0.1,0.1v5C231.8,242.7,231.8,242.8,231.7,242.8z M80.2,235.6
			c-0.1,0-0.1-0.1-0.1-0.1v-5c0-0.1,0.1-0.1,0.1-0.1s0.1,0.1,0.1,0.1v5C80.3,235.5,80.3,235.6,80.2,235.6z M231.7,232.8
			c-0.1,0-0.1-0.1-0.1-0.1v-5c0-0.1,0.1-0.1,0.1-0.1c0.1,0,0.1,0.1,0.1,0.1v5C231.8,232.7,231.8,232.8,231.7,232.8z M80.2,225.6
			c-0.1,0-0.1-0.1-0.1-0.1v-5c0-0.1,0.1-0.1,0.1-0.1s0.1,0.1,0.1,0.1v5C80.3,225.5,80.3,225.6,80.2,225.6z M231.7,222.8
			c-0.1,0-0.1-0.1-0.1-0.1v-5c0-0.1,0.1-0.1,0.1-0.1c0.1,0,0.1,0.1,0.1,0.1v5C231.8,222.7,231.8,222.8,231.7,222.8z M80.2,215.6
			c-0.1,0-0.1-0.1-0.1-0.1v-5c0-0.1,0.1-0.1,0.1-0.1s0.1,0.1,0.1,0.1v5C80.3,215.5,80.3,215.6,80.2,215.6z M231.7,212.8
			c-0.1,0-0.1-0.1-0.1-0.1v-5c0-0.1,0.1-0.1,0.1-0.1c0.1,0,0.1,0.1,0.1,0.1v5C231.8,212.7,231.8,212.8,231.7,212.8z M80.2,205.6
			c-0.1,0-0.1-0.1-0.1-0.1v-5c0-0.1,0.1-0.1,0.1-0.1s0.1,0.1,0.1,0.1v5C80.3,205.5,80.3,205.6,80.2,205.6z M231.7,202.8
			c-0.1,0-0.1-0.1-0.1-0.1v-5c0-0.1,0.1-0.1,0.1-0.1c0.1,0,0.1,0.1,0.1,0.1v5C231.8,202.7,231.8,202.8,231.7,202.8z M80.2,195.6
			c-0.1,0-0.1-0.1-0.1-0.1v-5c0-0.1,0.1-0.1,0.1-0.1s0.1,0.1,0.1,0.1v5C80.3,195.5,80.3,195.6,80.2,195.6z M231.7,192.8
			c-0.1,0-0.1-0.1-0.1-0.1v-5c0-0.1,0.1-0.1,0.1-0.1c0.1,0,0.1,0.1,0.1,0.1v5C231.8,192.7,231.8,192.8,231.7,192.8z M80.2,185.6
			c-0.1,0-0.1-0.1-0.1-0.1v-5c0-0.1,0.1-0.1,0.1-0.1s0.1,0.1,0.1,0.1v5C80.3,185.5,80.3,185.6,80.2,185.6z M231.7,182.8
			c-0.1,0-0.1-0.1-0.1-0.1v-5c0-0.1,0.1-0.1,0.1-0.1c0.1,0,0.1,0.1,0.1,0.1v5C231.8,182.7,231.8,182.8,231.7,182.8z M80.2,175.6
			c-0.1,0-0.1-0.1-0.1-0.1v-5c0-0.1,0.1-0.1,0.1-0.1s0.1,0.1,0.1,0.1v5C80.3,175.5,80.3,175.6,80.2,175.6z M231.7,172.8
			c-0.1,0-0.1-0.1-0.1-0.1v-5c0-0.1,0.1-0.1,0.1-0.1c0.1,0,0.1,0.1,0.1,0.1v5C231.8,172.7,231.8,172.8,231.7,172.8z M80.2,165.6
			c-0.1,0-0.1-0.1-0.1-0.1v-5c0-0.1,0.1-0.1,0.1-0.1s0.1,0.1,0.1,0.1v5C80.3,165.5,80.3,165.6,80.2,165.6z M231.7,162.8
			c-0.1,0-0.1-0.1-0.1-0.1v-5c0-0.1,0.1-0.1,0.1-0.1c0.1,0,0.1,0.1,0.1,0.1v5C231.8,162.7,231.8,162.8,231.7,162.8z M80.2,155.6
			c-0.1,0-0.1-0.1-0.1-0.1v-5c0-0.1,0.1-0.1,0.1-0.1s0.1,0.1,0.1,0.1v5C80.3,155.5,80.3,155.6,80.2,155.6z M231.7,152.8
			c-0.1,0-0.1-0.1-0.1-0.1v-5c0-0.1,0.1-0.1,0.1-0.1c0.1,0,0.1,0.1,0.1,0.1v5C231.8,152.7,231.8,152.8,231.7,152.8z M80.2,145.6
			c-0.1,0-0.1-0.1-0.1-0.1v-5c0-0.1,0.1-0.1,0.1-0.1s0.1,0.1,0.1,0.1v5C80.3,145.5,80.3,145.6,80.2,145.6z M231.7,142.8
			c-0.1,0-0.1-0.1-0.1-0.1v-5c0-0.1,0.1-0.1,0.1-0.1c0.1,0,0.1,0.1,0.1,0.1v5C231.8,142.7,231.8,142.8,231.7,142.8z M80.2,135.6
			c-0.1,0-0.1-0.1-0.1-0.1v-5c0-0.1,0.1-0.1,0.1-0.1s0.1,0.1,0.1,0.1v5C80.3,135.5,80.3,135.6,80.2,135.6z M231.7,132.8
			c-0.1,0-0.1-0.1-0.1-0.1v-5c0-0.1,0.1-0.1,0.1-0.1c0.1,0,0.1,0.1,0.1,0.1v5C231.8,132.7,231.8,132.8,231.7,132.8z M80.2,125.6
			c-0.1,0-0.1-0.1-0.1-0.1v-5c0-0.1,0.1-0.1,0.1-0.1s0.1,0.1,0.1,0.1v5C80.3,125.5,80.3,125.6,80.2,125.6z M231.7,122.8
			c-0.1,0-0.1-0.1-0.1-0.1v-5c0-0.1,0.1-0.1,0.1-0.1c0.1,0,0.1,0.1,0.1,0.1v5C231.8,122.7,231.8,122.8,231.7,122.8z M80.2,115.6
			c-0.1,0-0.1-0.1-0.1-0.1v-5c0-0.1,0.1-0.1,0.1-0.1s0.1,0.1,0.1,0.1v5C80.3,115.5,80.3,115.6,80.2,115.6z M231.7,112.8
			c-0.1,0-0.1-0.1-0.1-0.1v-5c0-0.1,0.1-0.1,0.1-0.1c0.1,0,0.1,0.1,0.1,0.1v5C231.8,112.7,231.8,112.8,231.7,112.8z M80.2,105.6
			c-0.1,0-0.1-0.1-0.1-0.1v-5c0-0.1,0.1-0.1,0.1-0.1s0.1,0.1,0.1,0.1v5C80.3,105.5,80.3,105.6,80.2,105.6z M231.7,102.8
			c-0.1,0-0.1-0.1-0.1-0.1v-5c0-0.1,0.1-0.1,0.1-0.1c0.1,0,0.1,0.1,0.1,0.1v5C231.8,102.7,231.8,102.8,231.7,102.8z M80.2,95.6
			c-0.1,0-0.1-0.1-0.1-0.1v-5c0-0.1,0.1-0.1,0.1-0.1s0.1,0.1,0.1,0.1v5C80.3,95.5,80.3,95.6,80.2,95.6z M231.7,92.8
			c-0.1,0-0.1-0.1-0.1-0.1v-5c0-0.1,0.1-0.1,0.1-0.1c0.1,0,0.1,0.1,0.1,0.1v5C231.8,92.7,231.8,92.8,231.7,92.8z M80.2,85.6
			c-0.1,0-0.1-0.1-0.1-0.1v-5c0-0.1,0.1-0.1,0.1-0.1s0.1,0.1,0.1,0.1v5C80.3,85.5,80.3,85.6,80.2,85.6z M231.7,82.8
			c-0.1,0-0.1-0.1-0.1-0.1v-5c0-0.1,0.1-0.1,0.1-0.1c0.1,0,0.1,0.1,0.1,0.1v5C231.8,82.7,231.8,82.8,231.7,82.8z M80.2,75.6
			c-0.1,0-0.1-0.1-0.1-0.1v-5c0-0.1,0.1-0.1,0.1-0.1s0.1,0.1,0.1,0.1v5C80.3,75.5,80.3,75.6,80.2,75.6z M231.7,72.8
			c-0.1,0-0.1-0.1-0.1-0.1v-4.3c0-0.2,0-0.5,0-0.7c0-0.1,0.1-0.1,0.1-0.1c0,0,0,0,0,0c0.1,0,0.1,0.1,0.1,0.1c0,0.2,0,0.5,0,0.7v4.3
			C231.8,72.7,231.8,72.8,231.7,72.8z M80.2,65.6C80.2,65.6,80.2,65.6,80.2,65.6c-0.1,0-0.1-0.1-0.1-0.1c0.1-1.7,0.5-3.3,1.1-4.9
			c0-0.1,0.1-0.1,0.2-0.1c0.1,0,0.1,0.1,0.1,0.2c-0.6,1.5-1,3.2-1.1,4.8C80.3,65.5,80.3,65.6,80.2,65.6z M231,62.8
			c-0.1,0-0.1,0-0.1-0.1c-0.4-1.6-1.1-3.2-1.9-4.6c0-0.1,0-0.1,0-0.2c0.1,0,0.1,0,0.2,0c0.8,1.4,1.5,3,1.9,4.6
			C231.1,62.7,231.1,62.8,231,62.8C231,62.8,231,62.8,231,62.8z M83.8,56.4C83.8,56.4,83.8,56.4,83.8,56.4c-0.1-0.1-0.1-0.2-0.1-0.2
			c1.1-1.3,2.3-2.4,3.7-3.4c0.1,0,0.1,0,0.2,0c0,0.1,0,0.1,0,0.2C86.2,54,85,55.1,83.8,56.4C83.9,56.4,83.8,56.4,83.8,56.4z
			 M225.9,54.4C225.9,54.4,225.8,54.4,225.9,54.4c-1.3-1.1-2.7-2.1-4.2-2.7c-0.1,0-0.1-0.1-0.1-0.2c0-0.1,0.1-0.1,0.2-0.1
			c1.5,0.7,2.9,1.6,4.2,2.7C226,54.2,226,54.3,225.9,54.4C226,54.4,225.9,54.4,225.9,54.4z M92,51c-0.1,0-0.1,0-0.1-0.1
			c0-0.1,0-0.1,0.1-0.2c1.6-0.5,3.3-0.7,5-0.7c0.1,0,0.1,0.1,0.1,0.1c0,0.1-0.1,0.1-0.1,0.1C95.3,50.3,93.6,50.5,92,51
			C92,51,92,51,92,51z M216.9,50.4C216.9,50.4,216.9,50.4,216.9,50.4c-0.7-0.1-1.3-0.1-2-0.1h-3c-0.1,0-0.1-0.1-0.1-0.1
			c0-0.1,0.1-0.1,0.1-0.1h3c0.7,0,1.3,0,2,0.1c0.1,0,0.1,0.1,0.1,0.1C217,50.3,217,50.4,216.9,50.4z M206.9,50.3h-5
			c-0.1,0-0.1-0.1-0.1-0.1c0-0.1,0.1-0.1,0.1-0.1h5c0.1,0,0.1,0.1,0.1,0.1C207,50.2,207,50.3,206.9,50.3z M196.9,50.3h-5
			c-0.1,0-0.1-0.1-0.1-0.1c0-0.1,0.1-0.1,0.1-0.1h5c0.1,0,0.1,0.1,0.1,0.1C197,50.2,197,50.3,196.9,50.3z M186.9,50.3h-5
			c-0.1,0-0.1-0.1-0.1-0.1c0-0.1,0.1-0.1,0.1-0.1h5c0.1,0,0.1,0.1,0.1,0.1C187.1,50.2,187,50.3,186.9,50.3z M176.9,50.3h-5
			c-0.1,0-0.1-0.1-0.1-0.1c0-0.1,0.1-0.1,0.1-0.1h5c0.1,0,0.1,0.1,0.1,0.1C177.1,50.2,177,50.3,176.9,50.3z M166.9,50.3h-5
			c-0.1,0-0.1-0.1-0.1-0.1c0-0.1,0.1-0.1,0.1-0.1h5c0.1,0,0.1,0.1,0.1,0.1C167.1,50.2,167,50.3,166.9,50.3z M156.9,50.3h-5
			c-0.1,0-0.1-0.1-0.1-0.1c0-0.1,0.1-0.1,0.1-0.1h5c0.1,0,0.1,0.1,0.1,0.1C157.1,50.2,157,50.3,156.9,50.3z M146.9,50.3h-5
			c-0.1,0-0.1-0.1-0.1-0.1c0-0.1,0.1-0.1,0.1-0.1h5c0.1,0,0.1,0.1,0.1,0.1C147.1,50.2,147,50.3,146.9,50.3z M136.9,50.3h-5
			c-0.1,0-0.1-0.1-0.1-0.1c0-0.1,0.1-0.1,0.1-0.1h5c0.1,0,0.1,0.1,0.1,0.1C137.1,50.2,137,50.3,136.9,50.3z M126.9,50.3h-5
			c-0.1,0-0.1-0.1-0.1-0.1c0-0.1,0.1-0.1,0.1-0.1h5c0.1,0,0.1,0.1,0.1,0.1C127.1,50.2,127,50.3,126.9,50.3z M116.9,50.3h-5
			c-0.1,0-0.1-0.1-0.1-0.1c0-0.1,0.1-0.1,0.1-0.1h5c0.1,0,0.1,0.1,0.1,0.1C117.1,50.2,117,50.3,116.9,50.3z M106.9,50.3h-5
			c-0.1,0-0.1-0.1-0.1-0.1c0-0.1,0.1-0.1,0.1-0.1h5c0.1,0,0.1,0.1,0.1,0.1C107.1,50.2,107,50.3,106.9,50.3z"/>
		<g>
			<g>
				<path class="st7" d="M212.7,254.2c0.8-2.2,0.7-3.6,0.5-4.7c-0.3-1.7-1.7-3.2-3.3-3.9c-2.4-1.1-5.4-0.4-7.4,1.4
					c-2,1.8-2.9,4.5-3,7.1c0,2.6,0.9,5,2.3,7.2c1.4,2.2,3.7,5.2,5.3,7.3"/>
			</g>
			<g>
				<path class="st7" d="M212.5,254.2c0.6-2.1,1.7-3.3,2.6-4c1.4-1.1,3.4-1.3,5.1-0.7c2.5,0.8,4.3,3.3,4.6,5.9
					c0.3,2.6-0.7,5.3-2.5,7.3c-1.7,2-4,3.2-6.5,3.9c-2.5,0.7-6.3,1.5-8.8,2"/>
			</g>
		</g>
		
			<linearGradient id="SVGID_00000129924472991580212930000001202739221472503180_" gradientUnits="userSpaceOnUse" x1="-374.2961" y1="320.53" x2="-367.2242" y2="327.3661" gradientTransform="matrix(-4.0393 0 0 -4.0393 -1228.6155 1517.554)">
			<stop  offset="7.153450e-02" style="stop-color:#9ED7C4"/>
			<stop  offset="0.9732" style="stop-color:#729DAE"/>
		</linearGradient>
		<path style="fill:url(#SVGID_00000129924472991580212930000001202739221472503180_);" d="M265.8,209.7c0-2.1,1.7-3.8,3.8-3.8
			c2.1,0,3.8,1.7,3.8,3.8c0,2.1-1.7,3.8-3.8,3.8C267.5,213.5,265.8,211.8,265.8,209.7z"/>
		
			<linearGradient id="SVGID_00000172432168433581142890000008338854650048436905_" gradientUnits="userSpaceOnUse" x1="298.6462" y1="138.7731" x2="305.7188" y2="145.61">
			<stop  offset="7.153450e-02" style="stop-color:#9ED7C4"/>
			<stop  offset="0.9732" style="stop-color:#729DAE"/>
		</linearGradient>
		<path style="fill:url(#SVGID_00000172432168433581142890000008338854650048436905_);" d="M303,142c0,0.5-0.4,0.9-0.9,0.9
			c-0.5,0-0.9-0.4-0.9-0.9c0-0.5,0.4-0.9,0.9-0.9C302.5,141.1,303,141.5,303,142z"/>
		
			<linearGradient id="SVGID_00000061468736262780821220000006576164908575197332_" gradientUnits="userSpaceOnUse" x1="42.8026" y1="34.1065" x2="49.8737" y2="40.942">
			<stop  offset="7.153450e-02" style="stop-color:#9ED7C4"/>
			<stop  offset="0.9732" style="stop-color:#729DAE"/>
		</linearGradient>
		<path style="fill:url(#SVGID_00000061468736262780821220000006576164908575197332_);" d="M47.1,37.4c0,0.5-0.4,0.9-0.9,0.9
			c-0.5,0-0.9-0.4-0.9-0.9c0-0.5,0.4-0.9,0.9-0.9C46.7,36.4,47.1,36.8,47.1,37.4z"/>
		<g class="st4">
			
				<image style="overflow:visible;" width="327" height="327" xlink:href="9B00DF3E.png"  transform="matrix(0.24 0 0 0.24 246.4365 195.8102)">
			</image>
		</g>
		<g class="st4">
			
				<image style="overflow:visible;" width="327" height="327" xlink:href="9B00DF3F.png"  transform="matrix(0.24 0 0 0.24 17.7442 278.778)">
			</image>
		</g>
		<g>
			<text transform="matrix(1.0166 0 0 1 118.0269 80.0046)"><tspan x="0" y="0" class="st11 st12 st13">Lorem</tspan><tspan x="16.8" y="0" class="st11 st14 st13"> ipsum</tspan></text>
			<g>
				<g>
					<g>
						<g>
							<path class="st6" d="M109.1,342.5c-4.4,0-8.5-1.7-11.7-4.8c-3.2-3.1-4.9-7.3-5-11.8L90.3,75.3c-0.1-9.2,7.3-16.7,16.5-16.8
								l98.7-0.8c0,0,0.1,0,0.1,0c9.1,0,16.6,7.4,16.7,16.5l2.1,250.6c0.1,9.2-7.3,16.7-16.5,16.8l-98.7,0.8
								C109.2,342.5,109.1,342.5,109.1,342.5z M205.7,58.1c0,0-0.1,0-0.1,0L106.8,59c-8.9,0.1-16.1,7.4-16,16.3l2.1,250.6
								c0,4.3,1.8,8.4,4.8,11.4c3,3,7.1,4.6,11.3,4.6c0,0,0.1,0,0.1,0l98.7-0.8c8.9-0.1,16.1-7.4,16-16.3l-2.1-250.6
								C221.8,65.3,214.5,58.1,205.7,58.1z"/>
						</g>
						<g>
							<path class="st6" d="M103.5,331.6c-4.8,0-8.8-3.9-8.8-8.7L92.6,78.7c0-4.9,3.9-8.9,8.7-8.9l109-0.9c0,0,0.1,0,0.1,0
								c4.8,0,8.8,3.9,8.8,8.7l2.1,244.2c0,4.9-3.9,8.9-8.7,8.9L103.5,331.6C103.5,331.6,103.5,331.6,103.5,331.6z M210.4,69.4
								C210.4,69.4,210.3,69.4,210.4,69.4l-109.1,0.9c-4.6,0-8.3,3.8-8.2,8.4l2.1,244.2c0,4.6,3.8,8.2,8.3,8.2c0,0,0,0,0.1,0
								l109-0.9c4.6,0,8.3-3.8,8.2-8.4l-2.1-244.2C218.7,73.1,215,69.4,210.4,69.4z"/>
						</g>
						<g>
							<path class="st6" d="M146.1,65.4c-0.4,0-0.8-0.2-1.1-0.4c-0.3-0.3-0.4-0.7-0.5-1.1c0-0.8,0.7-1.5,1.5-1.5l18.6-0.2
								c0.4,0,0.8,0.2,1.1,0.4c0.3,0.3,0.4,0.7,0.5,1.1c0,0.4-0.1,0.8-0.4,1.1c-0.3,0.3-0.7,0.4-1.1,0.5L146.1,65.4
								C146.2,65.4,146.2,65.4,146.1,65.4z M164.8,62.7C164.8,62.7,164.8,62.7,164.8,62.7l-18.6,0.2c-0.6,0-1,0.5-1,1
								c0,0.6,0.5,1,1,1c0,0,0,0,0,0l18.6-0.2c0.3,0,0.5-0.1,0.7-0.3c0.2-0.2,0.3-0.4,0.3-0.7c0-0.3-0.1-0.5-0.3-0.7
								C165.3,62.8,165,62.7,164.8,62.7z"/>
						</g>
						<g>
							<path class="st6" d="M183,66c-1.3,0-2.4-1.1-2.5-2.4c0-1.4,1.1-2.5,2.4-2.5c0,0,0,0,0,0c0.6,0,1.3,0.2,1.7,0.7
								c0.5,0.5,0.7,1.1,0.7,1.7l0,0c0,0.7-0.2,1.3-0.7,1.7C184.3,65.8,183.7,66,183,66C183,66,183,66,183,66z M183,61.6
								C183,61.6,183,61.6,183,61.6c-1.1,0-2,0.9-2,2c0,1.1,0.9,1.9,2,1.9c0,0,0,0,0,0c0.5,0,1-0.2,1.4-0.6c0.4-0.4,0.6-0.9,0.6-1.4
								v0c0-0.5-0.2-1-0.6-1.4C184,61.8,183.5,61.6,183,61.6z"/>
						</g>
						<g>
							<path class="st6" d="M119.6,66.6c-1.3,0-2.4-1.1-2.5-2.4c0-0.7,0.2-1.3,0.7-1.7c0.5-0.5,1.1-0.7,1.7-0.7c0,0,0,0,0,0
								c1.3,0,2.4,1.1,2.5,2.4c0,0.7-0.2,1.3-0.7,1.7C120.9,66.3,120.3,66.6,119.6,66.6C119.6,66.6,119.6,66.6,119.6,66.6z
								 M119.6,62.2C119.6,62.2,119.6,62.2,119.6,62.2c-0.5,0-1,0.2-1.4,0.6c-0.4,0.4-0.6,0.9-0.6,1.4c0,1.1,0.9,1.9,2,1.9
								c0,0,0,0,0,0c0.5,0,1-0.2,1.4-0.6c0.4-0.4,0.6-0.9,0.6-1.4C121.5,63,120.7,62.2,119.6,62.2z"/>
						</g>
						<g>
							<path class="st6" d="M192.7,65c-0.8,0-1.5-0.7-1.5-1.5c0-0.8,0.7-1.5,1.5-1.5c0,0,0,0,0,0c0.8,0,1.5,0.7,1.5,1.5
								C194.2,64.3,193.5,65,192.7,65C192.7,65,192.7,65,192.7,65z M192.7,62.5C192.7,62.5,192.7,62.5,192.7,62.5c-0.6,0-1,0.5-1,1
								c0,0.6,0.5,1,1,1c0,0,0,0,0,0c0.6,0,1-0.5,1-1C193.7,62.9,193.2,62.5,192.7,62.5z"/>
						</g>
						<g>
							<path class="st6" d="M127.6,65.6c-0.8,0-1.5-0.7-1.5-1.5c0-0.8,0.7-1.5,1.5-1.5c0,0,0,0,0,0c0.8,0,1.5,0.7,1.5,1.5
								C129.1,64.9,128.4,65.5,127.6,65.6C127.6,65.6,127.6,65.6,127.6,65.6z M127.6,63C127.6,63,127.6,63,127.6,63
								c-0.6,0-1,0.5-1,1c0,0.6,0.5,1,1,1c0,0,0,0,0,0c0.6,0,1-0.5,1-1C128.6,63.5,128.1,63,127.6,63z"/>
						</g>
						<g>
							<path class="st6" d="M111.2,65.7c-0.4,0-0.8-0.2-1.1-0.4c-0.3-0.3-0.4-0.7-0.5-1.1c0-0.4,0.2-0.8,0.4-1.1
								c0.3-0.3,0.7-0.4,1.1-0.5c0.4,0,0.8,0.2,1.1,0.4c0.3,0.3,0.4,0.7,0.5,1.1l0,0c0,0.4-0.2,0.8-0.4,1.1
								C112,65.5,111.6,65.7,111.2,65.7C111.2,65.7,111.2,65.7,111.2,65.7z M111.2,63.2C111.2,63.2,111.2,63.2,111.2,63.2
								c-0.3,0-0.5,0.1-0.7,0.3c-0.2,0.2-0.3,0.4-0.3,0.7c0,0.3,0.1,0.5,0.3,0.7c0.2,0.2,0.4,0.3,0.7,0.3c0.6,0,1-0.5,1-1
								c0-0.3-0.1-0.5-0.3-0.7C111.7,63.3,111.4,63.2,111.2,63.2z"/>
						</g>
					</g>
					<g>
						<g>
							<path class="st6" d="M165.3,323.3C165.3,323.3,165.3,323.3,165.3,323.3l-5.5,0c-0.6,0-1.1-0.5-1.1-1.1l0-5.5
								c0-0.6,0.5-1.1,1.1-1.1c0,0,0,0,0,0l5.5,0c0.6,0,1.1,0.5,1.1,1.1l0,5.5c0,0.3-0.1,0.6-0.3,0.8
								C165.8,323.1,165.5,323.3,165.3,323.3z M159.8,316.1c-0.3,0-0.6,0.3-0.6,0.6l0,5.5c0,0.3,0.3,0.6,0.6,0.6l5.5,0c0,0,0,0,0,0
								c0.1,0,0.3-0.1,0.4-0.2c0.1-0.1,0.2-0.2,0.2-0.4l0-5.5c0-0.3-0.3-0.6-0.6-0.6L159.8,316.1
								C159.8,316.1,159.8,316.1,159.8,316.1z"/>
						</g>
						<g>
							<g>
								<polygon class="st6" points="204.8,323.3 201,319.5 204.8,315.8 205.1,316.1 201.7,319.5 205.1,322.9 								"/>
							</g>
							<g>
								<polygon class="st6" points="208.2,319.8 201.4,319.8 201.4,319.3 208.2,319.3 								"/>
							</g>
						</g>
						<g>
							<path class="st6" d="M117,323.3c-0.1,0-0.2,0-0.3-0.1c-0.2-0.1-0.3-0.3-0.3-0.6l0-5.4c0-0.2,0.1-0.5,0.3-0.6
								c0.2-0.1,0.5-0.1,0.7,0l4.4,2.7c0.2,0.1,0.3,0.3,0.3,0.6c0,0.2-0.1,0.4-0.3,0.6l-4.4,2.7C117.2,323.2,117.1,323.3,117,323.3z
								 M117,317C117,317,116.9,317,117,317c-0.1,0-0.2,0.1-0.2,0.2l0,5.4c0,0.1,0.1,0.1,0.1,0.2c0,0,0.1,0,0.2,0l4.4-2.7
								c0.1,0,0.1-0.1,0.1-0.1c0,0,0-0.1-0.1-0.1L117,317C117.1,317,117,317,117,317z"/>
						</g>
					</g>
				</g>
				<g class="st15">
					<g>
						
							<rect x="217.4" y="212.2" transform="matrix(0.5526 -0.8335 0.8335 0.5526 -79.9256 278.4257)" class="st6" width="3.8" height="3"/>
					</g>
					<g>
						<path class="st6" d="M220.6,214.4C220.6,214.4,220.6,214.4,220.6,214.4C220.6,214.5,220.6,214.5,220.6,214.4L220.6,214.4
							L220.6,214.4L220.6,214.4C220.6,214.5,220.6,214.5,220.6,214.4L220.6,214.4L220.6,214.4C220.6,214.4,220.6,214.4,220.6,214.4
							C220.6,214.4,220.6,214.4,220.6,214.4L220.6,214.4z"/>
					</g>
					<g>
						<path class="st6" d="M220.1,213.3L220.1,213.3L220.1,213.3C220.1,213.3,220.1,213.3,220.1,213.3
							C220.1,213.3,220.1,213.3,220.1,213.3L220.1,213.3C220.2,213.3,220.2,213.3,220.1,213.3L220.1,213.3L220.1,213.3L220.1,213.3
							C220.1,213.3,220.1,213.3,220.1,213.3C220.1,213.3,220.1,213.3,220.1,213.3z"/>
					</g>
					<g>
						<path class="st6" d="M219.1,215.3L219.1,215.3C219.1,215.4,219.1,215.4,219.1,215.3C219.1,215.4,219.2,215.4,219.1,215.3
							L219.1,215.3C219.2,215.3,219.2,215.3,219.1,215.3C219.2,215.3,219.2,215.3,219.1,215.3L219.1,215.3L219.1,215.3z"/>
					</g>
					<g>
						<path class="st6" d="M217.7,214.6L217.7,214.6C217.7,214.6,217.7,214.7,217.7,214.6C217.7,214.7,217.7,214.7,217.7,214.6
							L217.7,214.6C217.7,214.6,217.7,214.6,217.7,214.6L217.7,214.6C217.7,214.6,217.7,214.6,217.7,214.6z"/>
					</g>
					<g>
						<path class="st6" d="M218.3,214.1L218.3,214.1C218.2,214.1,218.2,214.1,218.3,214.1C218.2,214.2,218.2,214.2,218.3,214.1
							L218.3,214.1L218.3,214.1L218.3,214.1L218.3,214.1C218.3,214.2,218.3,214.1,218.3,214.1L218.3,214.1L218.3,214.1z"/>
					</g>
					<g>
						<path class="st6" d="M218.4,214.7L218.4,214.7C218.4,214.7,218.4,214.7,218.4,214.7C218.4,214.7,218.4,214.7,218.4,214.7
							L218.4,214.7C218.5,214.7,218.5,214.7,218.4,214.7C218.5,214.7,218.5,214.7,218.4,214.7L218.4,214.7
							C218.4,214.7,218.4,214.7,218.4,214.7z"/>
					</g>
					<g>
						<path class="st6" d="M218.4,215.3C218.4,215.3,218.4,215.3,218.4,215.3L218.4,215.3C218.5,215.3,218.5,215.4,218.4,215.3
							C218.5,215.3,218.5,215.3,218.4,215.3L218.4,215.3L218.4,215.3C218.5,215.3,218.5,215.3,218.4,215.3L218.4,215.3
							C218.4,215.3,218.4,215.3,218.4,215.3z"/>
					</g>
					<g>
						<path class="st6" d="M217.6,213.7L217.6,213.7C217.5,213.7,217.5,213.7,217.6,213.7C217.5,213.7,217.5,213.7,217.6,213.7
							L217.6,213.7C217.5,213.8,217.5,213.8,217.6,213.7C217.6,213.8,217.6,213.8,217.6,213.7C217.6,213.8,217.6,213.7,217.6,213.7z
							"/>
					</g>
					<g>
						<path class="st6" d="M217.8,214.1C217.8,214.2,217.8,214.2,217.8,214.1L217.8,214.1C217.8,214.2,217.8,214.2,217.8,214.1
							C217.8,214.2,217.8,214.2,217.8,214.1C217.8,214.2,217.8,214.2,217.8,214.1L217.8,214.1C217.8,214.1,217.8,214.1,217.8,214.1
							C217.8,214.1,217.8,214.1,217.8,214.1z"/>
					</g>
					<g>
						<path class="st6" d="M220.6,213.7C220.6,213.7,220.5,213.7,220.6,213.7L220.6,213.7C220.6,213.7,220.6,213.7,220.6,213.7
							C220.6,213.7,220.6,213.7,220.6,213.7L220.6,213.7C220.6,213.7,220.6,213.7,220.6,213.7z"/>
					</g>
					<g>
						<path class="st6" d="M219.7,213.1L219.7,213.1C219.7,213.1,219.7,213.1,219.7,213.1C219.7,213.1,219.6,213.1,219.7,213.1
							L219.7,213.1L219.7,213.1L219.7,213.1L219.7,213.1C219.6,213.1,219.6,213.2,219.7,213.1C219.7,213.2,219.7,213.2,219.7,213.1
							L219.7,213.1L219.7,213.1L219.7,213.1C219.7,213.1,219.7,213.1,219.7,213.1z"/>
					</g>
					<g>
						<path class="st6" d="M220,214L220,214C220,214,220,214,220,214C220,214,220,214,220,214L220,214L220,214
							C220.1,214,220.1,214,220,214L220,214L220,214L220,214L220,214L220,214L220,214L220,214z"/>
					</g>
					<g>
						<path class="st6" d="M219,212.5L219,212.5C218.9,212.5,218.9,212.5,219,212.5L219,212.5L219,212.5L219,212.5
							C219,212.5,219,212.5,219,212.5C219,212.5,219,212.5,219,212.5C219,212.5,219,212.5,219,212.5L219,212.5L219,212.5z"/>
					</g>
					<g>
						<path class="st6" d="M218.7,212.9C218.7,212.9,218.6,212.9,218.7,212.9L218.7,212.9L218.7,212.9
							C218.6,213,218.6,213,218.7,212.9L218.7,212.9L218.7,212.9C218.7,213,218.7,213,218.7,212.9L218.7,212.9L218.7,212.9
							C218.7,213,218.7,213,218.7,212.9L218.7,212.9L218.7,212.9z"/>
					</g>
					<g>
						<path class="st6" d="M220.2,213.7C220.2,213.7,220.1,213.7,220.2,213.7L220.2,213.7L220.2,213.7
							C220.1,213.8,220.1,213.8,220.2,213.7L220.2,213.7L220.2,213.7L220.2,213.7L220.2,213.7L220.2,213.7L220.2,213.7L220.2,213.7
							L220.2,213.7L220.2,213.7L220.2,213.7z"/>
					</g>
					<g>
						<path class="st6" d="M220.6,213.1C220.6,213.1,220.6,213.1,220.6,213.1C220.6,213.1,220.6,213.1,220.6,213.1L220.6,213.1
							C220.6,213.1,220.6,213.1,220.6,213.1L220.6,213.1C220.6,213.1,220.6,213.1,220.6,213.1C220.6,213.1,220.6,213.1,220.6,213.1
							C220.6,213.1,220.6,213.1,220.6,213.1L220.6,213.1C220.6,213.1,220.6,213.1,220.6,213.1z"/>
					</g>
					<g>
						<path class="st6" d="M219.2,212C219.2,212,219.2,212.1,219.2,212L219.2,212C219.2,212.1,219.2,212.1,219.2,212L219.2,212
							C219.2,212,219.2,212,219.2,212L219.2,212C219.2,212,219.2,212,219.2,212z"/>
					</g>
					<g>
						<path class="st6" d="M220.2,212.8C220.2,212.8,220.2,212.8,220.2,212.8L220.2,212.8C220.2,212.7,220.2,212.7,220.2,212.8
							C220.2,212.7,220.2,212.7,220.2,212.8L220.2,212.8C220.2,212.7,220.2,212.7,220.2,212.8z"/>
					</g>
					<g>
						<path class="st6" d="M219.7,212.8L219.7,212.8L219.7,212.8C219.7,212.8,219.7,212.8,219.7,212.8L219.7,212.8L219.7,212.8
							L219.7,212.8C219.7,212.8,219.7,212.8,219.7,212.8L219.7,212.8L219.7,212.8C219.7,212.9,219.7,212.9,219.7,212.8
							C219.7,212.8,219.7,212.8,219.7,212.8L219.7,212.8z"/>
					</g>
					<g>
						<path class="st6" d="M220,212.9L220,212.9L220,212.9L220,212.9C220,213,220,213,220,212.9C220,213,220,213,220,212.9
							C220,213,220,213,220,212.9L220,212.9L220,212.9L220,212.9C220,212.9,220,212.9,220,212.9z"/>
					</g>
					<g>
						<path class="st6" d="M220,212.3C220,212.3,220,212.3,220,212.3L220,212.3C220.1,212.3,220.1,212.3,220,212.3
							C220,212.2,220,212.2,220,212.3L220,212.3z"/>
					</g>
					<g>
						<path class="st6" d="M219.5,212.4L219.5,212.4C219.5,212.4,219.5,212.4,219.5,212.4C219.5,212.4,219.5,212.4,219.5,212.4
							L219.5,212.4C219.6,212.4,219.6,212.4,219.5,212.4C219.6,212.4,219.6,212.4,219.5,212.4L219.5,212.4
							C219.5,212.4,219.5,212.4,219.5,212.4z"/>
					</g>
					<g>
						<path class="st6" d="M219.3,214.2L219.3,214.2C219.3,214.2,219.3,214.2,219.3,214.2L219.3,214.2L219.3,214.2L219.3,214.2
							C219.3,214.3,219.3,214.3,219.3,214.2L219.3,214.2L219.3,214.2L219.3,214.2C219.2,214.3,219.3,214.3,219.3,214.2L219.3,214.2
							L219.3,214.2L219.3,214.2L219.3,214.2L219.3,214.2L219.3,214.2C219.4,214.3,219.4,214.3,219.3,214.2L219.3,214.2L219.3,214.2z
							"/>
					</g>
					<g>
						<path class="st6" d="M218.7,214.3C218.7,214.3,218.7,214.3,218.7,214.3C218.7,214.3,218.7,214.3,218.7,214.3L218.7,214.3
							L218.7,214.3L218.7,214.3L218.7,214.3L218.7,214.3L218.7,214.3L218.7,214.3L218.7,214.3L218.7,214.3
							C218.8,214.3,218.8,214.2,218.7,214.3C218.8,214.2,218.7,214.2,218.7,214.3z"/>
					</g>
					<g>
						<path class="st6" d="M218.6,213.8C218.6,213.8,218.6,213.8,218.6,213.8L218.6,213.8L218.6,213.8L218.6,213.8L218.6,213.8
							L218.6,213.8L218.6,213.8L218.6,213.8L218.6,213.8L218.6,213.8L218.6,213.8L218.6,213.8C218.6,213.7,218.6,213.7,218.6,213.8z
							"/>
					</g>
					<g>
						<path class="st6" d="M219.1,214.1L219.1,214.1L219.1,214.1C219.1,214.1,219.1,214.2,219.1,214.1L219.1,214.1L219.1,214.1v0.1
							l0,0C219.2,214.2,219.2,214.2,219.1,214.1C219.2,214.2,219.2,214.1,219.1,214.1C219.2,214.1,219.2,214.1,219.1,214.1
							L219.1,214.1z"/>
					</g>
					<g>
						<path class="st6" d="M219.8,215L219.8,215L219.8,215L219.8,215C219.8,215,219.8,215,219.8,215C219.8,215,219.8,215,219.8,215
							L219.8,215C219.8,215,219.8,215,219.8,215C219.8,215,219.8,215,219.8,215z"/>
					</g>
					<g>
						<polygon class="st6" points="218.1,212.9 218.1,212.9 218.1,212.9 218.1,212.9 						"/>
					</g>
					<g>
						<path class="st6" d="M219.3,213.7L219.3,213.7L219.3,213.7L219.3,213.7L219.3,213.7L219.3,213.7
							C219.3,213.6,219.3,213.6,219.3,213.7L219.3,213.7L219.3,213.7L219.3,213.7C219.2,213.7,219.3,213.7,219.3,213.7L219.3,213.7
							L219.3,213.7L219.3,213.7L219.3,213.7L219.3,213.7z"/>
					</g>
					<g>
						<path class="st6" d="M219.6,213.8L219.6,213.8L219.6,213.8C219.5,213.8,219.5,213.8,219.6,213.8
							C219.5,213.8,219.5,213.8,219.6,213.8L219.6,213.8L219.6,213.8L219.6,213.8C219.6,213.9,219.6,213.9,219.6,213.8
							C219.6,213.8,219.6,213.8,219.6,213.8L219.6,213.8z"/>
					</g>
					<g>
						<path class="st6" d="M220,214.3C220,214.3,220,214.3,220,214.3L220,214.3C220.1,214.3,220.1,214.3,220,214.3
							C220.1,214.3,220.1,214.3,220,214.3L220,214.3C220.1,214.2,220.1,214.2,220,214.3C220.1,214.2,220,214.3,220,214.3z"/>
					</g>
					<g>
						<path class="st6" d="M219.8,214.4C219.8,214.4,219.8,214.4,219.8,214.4C219.8,214.4,219.8,214.4,219.8,214.4L219.8,214.4
							L219.8,214.4L219.8,214.4L219.8,214.4L219.8,214.4L219.8,214.4L219.8,214.4C219.9,214.3,219.9,214.3,219.8,214.4
							C219.8,214.3,219.8,214.3,219.8,214.4z"/>
					</g>
					<g>
						<path class="st6" d="M218.7,214.9C218.7,214.9,218.7,214.9,218.7,214.9C218.7,214.9,218.7,214.9,218.7,214.9
							C218.7,214.9,218.7,214.9,218.7,214.9L218.7,214.9C218.8,214.9,218.8,214.9,218.7,214.9C218.8,214.9,218.8,214.9,218.7,214.9
							L218.7,214.9C218.7,214.9,218.7,214.9,218.7,214.9z"/>
					</g>
					<g>
						<path class="st6" d="M219.7,213.5L219.7,213.5L219.7,213.5C219.6,213.5,219.6,213.5,219.7,213.5L219.7,213.5L219.7,213.5
							L219.7,213.5C219.7,213.6,219.7,213.6,219.7,213.5C219.7,213.5,219.7,213.5,219.7,213.5C219.7,213.5,219.7,213.5,219.7,213.5
							L219.7,213.5z"/>
					</g>
					<g>
						<path class="st6" d="M218.4,213.3L218.4,213.3L218.4,213.3L218.4,213.3C218.3,213.3,218.3,213.3,218.4,213.3
							C218.3,213.3,218.3,213.3,218.4,213.3C218.3,213.4,218.3,213.4,218.4,213.3L218.4,213.3L218.4,213.3L218.4,213.3L218.4,213.3
							C218.4,213.4,218.4,213.3,218.4,213.3L218.4,213.3L218.4,213.3L218.4,213.3C218.4,213.3,218.4,213.3,218.4,213.3L218.4,213.3z
							"/>
					</g>
					<g>
						<path class="st6" d="M219.1,213.5C219.1,213.5,219.1,213.5,219.1,213.5L219.1,213.5L219.1,213.5L219.1,213.5L219.1,213.5
							L219.1,213.5L219.1,213.5L219.1,213.5C219.1,213.5,219.1,213.5,219.1,213.5L219.1,213.5L219.1,213.5z"/>
					</g>
					<g>
						<path class="st6" d="M220.7,212.3C220.7,212.3,220.7,212.3,220.7,212.3L220.7,212.3C220.7,212.3,220.7,212.3,220.7,212.3
							C220.7,212.3,220.7,212.3,220.7,212.3C220.7,212.3,220.7,212.3,220.7,212.3L220.7,212.3C220.7,212.3,220.7,212.3,220.7,212.3
							C220.7,212.3,220.7,212.3,220.7,212.3z"/>
					</g>
					<g>
						<path class="st6" d="M219.3,212.9L219.3,212.9L219.3,212.9L219.3,212.9C219.3,212.9,219.3,212.9,219.3,212.9
							C219.3,213,219.3,213,219.3,212.9L219.3,212.9L219.3,212.9L219.3,212.9C219.3,213,219.3,213,219.3,212.9
							C219.4,213,219.4,213,219.3,212.9C219.4,212.9,219.3,212.9,219.3,212.9z"/>
					</g>
					<g>
						<path class="st6" d="M219.2,214.7C219.2,214.7,219.2,214.7,219.2,214.7L219.2,214.7L219.2,214.7
							C219.2,214.7,219.2,214.7,219.2,214.7L219.2,214.7L219.2,214.7C219.3,214.7,219.3,214.7,219.2,214.7L219.2,214.7L219.2,214.7
							C219.3,214.7,219.3,214.7,219.2,214.7L219.2,214.7L219.2,214.7z"/>
					</g>
					<g>
						<path class="st6" d="M218.4,212.4L218.4,212.4C218.4,212.4,218.4,212.4,218.4,212.4C218.4,212.4,218.4,212.4,218.4,212.4
							L218.4,212.4C218.4,212.4,218.4,212.4,218.4,212.4C218.4,212.4,218.4,212.4,218.4,212.4z"/>
					</g>
					<g>
						<path class="st6" d="M217.9,213.8L217.9,213.8C217.9,213.8,218,213.9,217.9,213.8L217.9,213.8L217.9,213.8
							C218,213.8,218,213.8,217.9,213.8C218,213.8,217.9,213.8,217.9,213.8z"/>
					</g>
				</g>
				<g>
					<g>
						<path class="st6" d="M153.2,148.6l-49-0.1v-0.2l0.1-48.7l49,0.1v0.2L153.2,148.6z M104.7,148l48,0.1l0.1-48l-48-0.1L104.7,148
							z"/>
					</g>
					<g>
						
							<rect x="94.4" y="123.8" transform="matrix(0.7081 -0.7061 0.7061 0.7081 -50.0003 127.0947)" class="st6" width="68.6" height="0.5"/>
					</g>
					<g>
						
							<rect x="128.5" y="89.7" transform="matrix(0.7083 -0.7059 0.7059 0.7083 -50.0015 127.0376)" class="st6" width="0.5" height="68.6"/>
					</g>
				</g>
				<g>
					<g>
						<path class="st6" d="M152.8,259.8h-0.2l-48.7-0.1v-0.2l0.1-39.2h0.2l48.8,0.1v0.2L152.8,259.8z M104.3,259.3l48,0.1l0.1-38.5
							l-48-0.1L104.3,259.3z"/>
					</g>
					<g>
						
							<rect x="97.2" y="239.8" transform="matrix(0.7808 -0.6247 0.6247 0.7808 -121.8593 132.7711)" class="st6" width="62.2" height="0.5"/>
					</g>
					<g>
						
							<rect x="128.1" y="209" transform="matrix(0.6276 -0.7785 0.7785 0.6276 -139.1201 189.2826)" class="st6" width="0.5" height="62.2"/>
					</g>
				</g>
				<g>
					<g>
						<path class="st6" d="M152.7,308.7h-0.2l-48.8-0.1v-0.2l0.1-39.2h0.2l48.8,0.1v0.2L152.7,308.7z M104.2,308.1l48,0.1l0.1-38.5
							l-48-0.1L104.2,308.1z"/>
					</g>
					<g>
						
							<rect x="97.1" y="288.7" transform="matrix(0.7808 -0.6247 0.6247 0.7808 -152.4131 143.43)" class="st6" width="62.2" height="0.5"/>
					</g>
					<g>
						<polygon class="st6" points="152.3,308.7 103.9,269.6 104.2,269.2 152.6,308.3 						"/>
					</g>
				</g>
				<g>
					<path class="st6" d="M172.8,85.3l-31.8-0.1l0-10.3l31.8,0.1L172.8,85.3z M141.4,84.8l30.8,0.1l0-9.3l-30.8-0.1L141.4,84.8z"/>
				</g>
				<g>
					<polygon class="st6" points="205.2,101.4 161.9,101.3 161.9,100.8 205.2,100.9 					"/>
				</g>
				<g>
					<polygon class="st6" points="206.6,178.9 105.3,178.7 105.3,178.2 206.6,178.4 					"/>
				</g>
				<g>
					<polygon class="st6" points="206.6,184.8 105.3,184.6 105.3,184.1 206.6,184.3 					"/>
				</g>
				<g>
					<polygon class="st6" points="206.6,190.8 105.2,190.6 105.2,190.1 206.6,190.3 					"/>
				</g>
				<g>
					<path class="st6" d="M206.5,196.7c-14.4,0-86.9-0.2-101.3-0.2V196c14.4,0,86.9,0.2,101.3,0.2V196.7z"/>
				</g>
				<g>
					<polygon class="st6" points="206.5,202.6 105.2,202.5 105.2,202 206.5,202.1 					"/>
				</g>
				<g>
					<polygon class="st6" points="181.9,208.2 129.8,208.1 129.8,207.6 181.9,207.7 					"/>
				</g>
				<g>
					<polygon class="st6" points="205.2,105.1 161.9,105.1 161.9,104.6 205.2,104.6 					"/>
				</g>
				<g>
					<polygon class="st6" points="205.2,108.9 205,108.9 161.9,108.8 161.9,108.3 205.2,108.4 					"/>
				</g>
				<g>
					<polygon class="st6" points="205.2,112.7 161.9,112.6 161.9,112.1 205.2,112.2 					"/>
				</g>
				<g>
					<polygon class="st6" points="205.1,116.5 161.9,116.4 161.9,115.9 205.1,116 					"/>
				</g>
				<g>
					<polygon class="st6" points="205.1,120.2 161.9,120.2 161.9,119.7 205.1,119.7 					"/>
				</g>
				<g>
					<polygon class="st6" points="175.4,124.4 162.1,124.3 162.1,123.8 175.4,123.9 					"/>
				</g>
				<g>
					
						<rect x="162.1" y="131.1" transform="matrix(1 1.748184e-03 -1.748184e-03 1 0.2345 -0.2996)" class="st6" width="18.7" height="5.7"/>
				</g>
				<g>
					<path class="st6" d="M204.5,136.9l-17.9,0l0-5.8l17.9,0L204.5,136.9z M187.1,136.4l16.9,0l0-4.8l-16.9,0L187.1,136.4z"/>
				</g>
				<g>
					
						<rect x="117.5" y="162.9" transform="matrix(1 1.734092e-03 -1.734092e-03 1 0.287 -0.2702)" class="st6" width="76.9" height="4.9"/>
				</g>
				<g>
					
						<rect x="160" y="227.9" transform="matrix(1 1.744569e-03 -1.744569e-03 1 0.4008 -0.3056)" class="st6" width="30.8" height="3.5"/>
				</g>
				<g>
					<polygon class="st6" points="208.8,237.4 160,237.3 160,236.8 208.8,236.9 					"/>
				</g>
				<g>
					<polygon class="st6" points="208.8,240.5 160,240.4 160,239.9 208.8,240 					"/>
				</g>
				<g>
					<polygon class="st6" points="190.8,244.2 160,244.1 160,243.6 190.8,243.7 					"/>
				</g>
				<g>
					<path class="st6" d="M168.3,257.3l-8.6,0l0-8.6l8.6,0L168.3,257.3z M160.2,256.8l7.6,0l0-7.6l-7.6,0L160.2,256.8z"/>
				</g>
				<g>
					
						<rect x="159.9" y="271" transform="matrix(1 1.744568e-03 -1.744568e-03 1 0.4761 -0.3054)" class="st6" width="30.8" height="3.5"/>
				</g>
				<g>
					<polygon class="st6" points="208.7,280.5 159.9,280.5 159.9,280 208.7,280 					"/>
				</g>
				<g>
					<polygon class="st6" points="208.7,283.6 159.9,283.5 159.9,283 208.7,283.1 					"/>
				</g>
				<g>
					<polygon class="st6" points="190.7,287.3 159.9,287.2 159.9,286.7 190.7,286.8 					"/>
				</g>
				<g>
					<path class="st6" d="M168.3,300.4l-8.6,0l0-8.6l8.6,0L168.3,300.4z M160.1,299.9l7.6,0l0-7.6l-7.6,0L160.1,299.9z"/>
				</g>
			</g>
		</g>
		<g>
			
				<image style="overflow:visible;opacity:0.45;" width="398" height="329" xlink:href="9B00DF3A.png"  transform="matrix(0.24 0 0 0.24 62.6592 248.5631)">
			</image>
			<g>
				
					<linearGradient id="SVGID_00000151535112991730187810000005209976491200154505_" gradientUnits="userSpaceOnUse" x1="83.6592" y1="282.0045" x2="137.0381" y2="282.0045">
					<stop  offset="7.153450e-02" style="stop-color:#9ED7C4"/>
					<stop  offset="0.9732" style="stop-color:#729DAE"/>
				</linearGradient>
				
					<rect x="83.7" y="263.6" style="fill:url(#SVGID_00000151535112991730187810000005209976491200154505_);" width="53.4" height="36.9"/>
			</g>
		</g>
		<g>
			<polygon class="st17" points="262.8,290.1 259.8,325.1 221.3,325.1 214.4,336.3 214.4,325.1 204.1,325.1 204.1,288.8 			"/>
			<polygon class="st18" points="226.9,275.5 230,310.4 268.5,310.4 275.3,321.7 275.3,310.4 285.6,310.4 285.6,274.2 			"/>
			<g>
				<path class="st19" d="M249.1,293.5c0,1-0.8,1.8-1.8,1.8c-1,0-1.8-0.8-1.8-1.8c0-1,0.8-1.8,1.8-1.8
					C248.3,291.7,249.1,292.5,249.1,293.5z"/>
				<path class="st19" d="M260,293.5c0,1-0.8,1.8-1.8,1.8s-1.8-0.8-1.8-1.8c0-1,0.8-1.8,1.8-1.8S260,292.5,260,293.5z"/>
				<path class="st19" d="M270.8,293.5c0,1-0.8,1.8-1.8,1.8c-1,0-1.8-0.8-1.8-1.8c0-1,0.8-1.8,1.8-1.8
					C270,291.7,270.8,292.5,270.8,293.5z"/>
			</g>
		</g>
		<g>
			
				<image style="overflow:visible;opacity:0.45;" width="476" height="444" xlink:href="9B00DF35.png"  transform="matrix(0.24 0 0 0.24 178.7481 136.9708)">
			</image>
			<g>
				
					<linearGradient id="SVGID_00000032625932378105305450000000248003290048749211_" gradientUnits="userSpaceOnUse" x1="202.0796" y1="170.3647" x2="271.8774" y2="170.3647" gradientTransform="matrix(0.9736 -0.2283 0.2283 0.9736 -28.2747 66.8155)">
					<stop  offset="0.1201" style="stop-color:#D68E44"/>
					<stop  offset="1" style="stop-color:#BA5957"/>
				</linearGradient>
				<path style="fill:url(#SVGID_00000032625932378105305450000000248003290048749211_);" d="M270.1,154.6c1.4,0.1,2.3,1.7,1.5,2.9
					l-18.3,29l-18.3,29c-0.8,1.2-2.6,1.2-3.3-0.1l-16-30.3l-16-30.3c-0.7-1.3,0.3-2.8,1.7-2.8l34.2,1.3L270.1,154.6z"/>
			</g>
		</g>
		<g class="st21">
			<g>
				
					<linearGradient id="SVGID_00000154401530622422465290000005801741639928294024_" gradientUnits="userSpaceOnUse" x1="688.9786" y1="400.3036" x2="655.2516" y2="446.295" gradientTransform="matrix(0 -1 1 0 -340.5958 745.5114)">
					<stop  offset="0.1201" style="stop-color:#D68E44"/>
					<stop  offset="1" style="stop-color:#BA5957"/>
				</linearGradient>
				<path style="fill:url(#SVGID_00000154401530622422465290000005801741639928294024_);" d="M100.7,82.5c2.3,0,4.1,1.8,4.1,4.1
					s-1.8,4.1-4.1,4.1s-4.1-1.8-4.1-4.1S98.4,82.5,100.7,82.5z"/>
			</g>
			<g>
				
					<linearGradient id="SVGID_00000060730166038177961520000000021863691498981823_" gradientUnits="userSpaceOnUse" x1="690.2463" y1="401.2317" x2="656.5189" y2="447.2237" gradientTransform="matrix(0 -1 1 0 -340.5958 745.5114)">
					<stop  offset="0.1201" style="stop-color:#D68E44"/>
					<stop  offset="1" style="stop-color:#BA5957"/>
				</linearGradient>
				<path style="fill:url(#SVGID_00000060730166038177961520000000021863691498981823_);" d="M87.6,90.7c0-9.5,7.7-17.2,17.2-17.2
					v-5.6C92.2,67.9,82,78.1,82,90.7H87.6z"/>
				
					<linearGradient id="SVGID_00000116942421264152243160000015250804837289662633_" gradientUnits="userSpaceOnUse" x1="691.59" y1="402.2143" x2="657.8608" y2="448.2087" gradientTransform="matrix(0 -1 1 0 -340.5958 745.5114)">
					<stop  offset="0.1201" style="stop-color:#D68E44"/>
					<stop  offset="1" style="stop-color:#BA5957"/>
				</linearGradient>
				<path style="fill:url(#SVGID_00000116942421264152243160000015250804837289662633_);" d="M72.9,90.7c0-17.6,14.3-31.9,31.9-31.9
					l0,0v-6.4l0,0c-21.1,0-38.3,17.2-38.3,38.3H72.9z"/>
				
					<linearGradient id="SVGID_00000040575465801969077140000006387287990972164280_" gradientUnits="userSpaceOnUse" x1="692.8911" y1="403.1685" x2="659.162" y2="449.1628" gradientTransform="matrix(0 -1 1 0 -340.5958 745.5114)">
					<stop  offset="0.1201" style="stop-color:#D68E44"/>
					<stop  offset="1" style="stop-color:#BA5957"/>
				</linearGradient>
				<path style="fill:url(#SVGID_00000040575465801969077140000006387287990972164280_);" d="M58.4,90.7c0-25.6,20.8-46.4,46.4-46.4
					l0,0v-6.9l0,0c-29.4,0-53.3,23.9-53.3,53.3H58.4z"/>
			</g>
		</g>
		<line class="st26" x1="123.6" y1="190.1" x2="122" y2="190.1"/>
		<g>
			
				<image style="overflow:visible;opacity:0.45;" width="456" height="373" xlink:href="9B00DF36.png"  transform="matrix(0.24 0 0 0.24 46.8809 69.591)">
			</image>
			<g>
				<rect x="67.9" y="84.6" class="st6" width="67.2" height="47.5"/>
			</g>
		</g>
		<path class="st27" d="M77.7,122.8L91,110c0.7-0.7,1.8-0.8,2.6-0.2l4.2,2.8c0.8,0.6,2,0.4,2.7-0.3l11-11.9c1-1,2.6-0.8,3.3,0.4
			l12.4,21.8c0.8,1.4-0.2,3.1-1.8,3.1l-46.2,0.7C77.3,126.4,76.3,124.1,77.7,122.8z"/>
		<path class="st27" d="M95.4,100.2c0,1.5-1.2,2.8-2.8,2.8s-2.8-1.2-2.8-2.8c0-1.5,1.2-2.8,2.8-2.8S95.4,98.7,95.4,100.2z"/>
		<path class="st27" d="M132.3,129.6H70.2V87.5h62.1V129.6z M71.2,128.6h60.1V88.5H71.2V128.6z"/>
		<g>
			<g>
				
					<image style="overflow:visible;opacity:0.45;" width="699" height="347" xlink:href="9B00DF37.png"  transform="matrix(0.24 0 0 0.24 -5.6533 145.4577)">
				</image>
				<g>
					<rect x="15.3" y="160.5" class="st28" width="125.6" height="41.1"/>
				</g>
			</g>
			<rect x="15.3" y="160.5" class="st29" width="125.6" height="9.6"/>
			<rect x="27.9" y="177.9" class="st29" width="98.4" height="1"/>
			<rect x="27.9" y="184.8" class="st29" width="98.4" height="1"/>
			<rect x="27.9" y="191.8" class="st29" width="98.4" height="1"/>
			<g>
				<polygon class="st6" points="132.5,167.2 132.3,167 136.4,163.3 136.6,163.5 				"/>
				<polygon class="st6" points="136.6,167.2 132.2,163.5 132.4,163.3 136.7,167 				"/>
			</g>
		</g>
		<path class="st30" d="M91.1,293.3l10.5-9.8c0.6-0.5,1.4-0.6,2-0.2l3.3,2.2c0.7,0.4,1.6,0.3,2.1-0.2l8.6-9.1
			c0.7-0.8,2.1-0.6,2.6,0.3l9.7,16.6c0.6,1-0.2,2.3-1.4,2.4L92.3,296C90.8,296,90.1,294.3,91.1,293.3z"/>
		<ellipse class="st30" cx="103.3" cy="276" rx="2.2" ry="2.1"/>
		<path class="st30" d="M134.5,298.2H85.7v-32.4h48.8V298.2z M86.7,297.2h46.8v-30.4H86.7V297.2z"/>
		<g>
			<g>
				<g>
					<polygon class="st31" points="12.9,229.2 13.8,278.3 71.9,278.3 74.7,224.1 					"/>
					<path class="st31" d="M32.7,275.6c0,0-2.5,20.7,6.3,20.9c8.8,0.2,19-2.4,19-2.4s-16.3-1.3-17.2-4c-0.9-2.7,1.3-12.1,1.3-12.1
						L32.7,275.6z"/>
				</g>
			</g>
			<polygon class="st32" points="39.9,234.6 37.2,248.5 25,250.1 35.6,256.2 32.7,268.8 42.4,260.1 53.4,266.5 48.2,254.8 56.9,248 
				45,247.6 			"/>
		</g>
		<g>
			<g>
				<g>
					<polygon class="st31" points="282.1,61 285.7,104.6 234.2,109.8 226.9,62 					"/>
					<path class="st31" d="M254.1,106.4c0,0,0.3,14.5-5.8,14c-6.1-0.4-12.9-2.9-12.9-2.9s11.3,0.2,12.1-1.6c0.8-1.8-0.1-8.4-0.1-8.4
						L254.1,106.4z"/>
				</g>
			</g>
			<g>
				<g>
					<path class="st18" d="M263.9,73.5c0.3,3.7-2.5,7-6.3,7.2c-3.7,0.3-7-2.5-7.2-6.3c-0.3-3.7,2.5-7,6.3-7.2
						C260.4,67,263.7,69.8,263.9,73.5z"/>
					<path class="st18" d="M257.7,83.1h-1.1c-6.6,0-11.9,9.4-11.9,18.4l24.9-2C268.2,89.7,264.3,83.1,257.7,83.1z"/>
				</g>
				<path class="st6" d="M272.9,96.2c0,1.8-1.5,3.3-3.3,3.3c-1.8,0-3.3-1.5-3.3-3.3c0-1.8,1.5-3.3,3.3-3.3
					C271.4,93,272.9,94.4,272.9,96.2z"/>
				<polygon class="st18" points="271,96 269.9,96 269.9,94.9 269.3,94.9 269.3,96 268.2,96 268.2,96.5 269.3,96.5 269.3,97.6 
					269.9,97.6 269.9,96.5 271,96.5 				"/>
			</g>
		</g>
	</g>
</g>
<g id="Designed_by_freepik">
</g>
</svg>
