<?xml version="1.0" encoding="utf-8"?>
<!-- Generator: Adobe Illustrator 26.1.0, SVG Export Plug-In . SVG Version: 6.00 Build 0)  -->
<svg version="1.1" id="Layer_1" xmlns="http://www.w3.org/2000/svg" xmlns:xlink="http://www.w3.org/1999/xlink" x="0px" y="0px"
	 viewBox="0 0 781 586" style="enable-background:new 0 0 781 586;" xml:space="preserve">
<style type="text/css">
	.st0{fill:#E8E8E8;}
	.st1{fill:#161616;}
	.st2{fill:url(#SVGID_1_);}
	.st3{fill:url(#SVGID_00000104706825596940919000000000843593201732434322_);}
	.st4{fill:url(#SVGID_00000127019604003244205280000005969388724576813222_);}
	.st5{fill:#EC615B;}
	.st6{fill:url(#SVGID_00000123431083020612733820000015546489241464013225_);}
	.st7{fill:url(#SVGID_00000015331675992590402090000004728788265618843539_);}
	.st8{fill:url(#SVGID_00000168800948125027312730000018284769169441591169_);}
	.st9{fill:url(#SVGID_00000011013515307435844210000016432554940432504505_);}
	.st10{fill:url(#SVGID_00000171699091602183474950000013067868173941708931_);}
	.st11{fill:url(#SVGID_00000027572238427778507370000009910270936816955806_);}
	.st12{fill:url(#SVGID_00000039842622060394074770000007225294448445057447_);}
	.st13{fill:#5222D0;}
	.st14{fill:url(#SVGID_00000081626914032450921280000001790778559810906507_);}
	.st15{fill:url(#SVGID_00000120543120280306863890000008444667656528138921_);}
	.st16{fill:url(#SVGID_00000088098232518733008550000016392577891888605073_);}
	.st17{fill:url(#SVGID_00000040572657952654038660000007218265203903186361_);}
	.st18{fill:url(#SVGID_00000093137131785178278190000013477386156972177032_);}
	.st19{fill:url(#SVGID_00000023254845342674570030000014797002237340419774_);}
	.st20{fill:url(#SVGID_00000141428455724088286690000012186811413815609995_);}
	.st21{fill:url(#SVGID_00000170987866428853566070000005084716964722934948_);}
	.st22{fill:#FFFFFF;}
	.st23{fill:url(#SVGID_00000001659145739195570220000009337496148509203873_);}
	.st24{fill:url(#SVGID_00000174561113407651931980000001134011384531325078_);}
	.st25{fill:url(#SVGID_00000057870019035717282000000006589641076987423413_);}
	.st26{fill:url(#SVGID_00000062152737121427576130000001597317441583034502_);}
	.st27{fill:url(#SVGID_00000139280189477677948410000005397329084151327641_);}
	.st28{fill:url(#SVGID_00000078760864898251311010000010940317234940088509_);}
	.st29{fill:url(#SVGID_00000130604499016104503540000000347934607947609273_);}
	.st30{fill:url(#SVGID_00000037668147176347260820000011627287244505398401_);}
	.st31{fill:url(#SVGID_00000059280799433500991110000006172189741932135052_);}
	.st32{fill:url(#SVGID_00000042017115066872066600000005667586168666330017_);}
	.st33{fill:url(#SVGID_00000117657230853436600720000009275082415198045365_);}
	.st34{fill:url(#SVGID_00000067934886969407354520000000804422214192357282_);}
	.st35{fill:url(#SVGID_00000047062504634853819200000013610298921785089723_);}
	.st36{fill:url(#SVGID_00000116926769904612515930000003002672622789707699_);}
	.st37{fill:url(#SVGID_00000103246663875942863690000000922245848381038260_);}
	.st38{fill:url(#SVGID_00000118378495834992790940000010513257888275961510_);}
	.st39{fill:url(#SVGID_00000098193770542449006940000009613761840086953918_);}
	.st40{fill:url(#SVGID_00000067212725107690879680000011716578103581066139_);}
	.st41{fill:url(#SVGID_00000055684859496125241110000013813274861577339312_);}
	.st42{fill:url(#SVGID_00000123417146355153756230000001368403180585752968_);}
	.st43{fill:url(#SVGID_00000178922231120959020410000008439865075838839427_);}
	.st44{opacity:0.15;fill:#494949;enable-background:new    ;}
	.st45{opacity:0.11;fill:#494949;enable-background:new    ;}
	.st46{opacity:8.000000e-02;fill:#494949;enable-background:new    ;}
	.st47{fill:#092B47;stroke:#161616;stroke-width:2;stroke-miterlimit:10;}
	.st48{opacity:9.000000e-02;fill:#494949;enable-background:new    ;}
	.st49{fill:url(#SVGID_00000125592327246274149510000003520515093524234371_);}
	.st50{opacity:0.13;fill:#494949;enable-background:new    ;}
	.st51{opacity:0.1;fill:#494949;enable-background:new    ;}
	.st52{fill:url(#SVGID_00000138561125467435085610000001026399426825108410_);}
	.st53{opacity:0.17;fill:#494949;enable-background:new    ;}
</style>
<path class="st0" d="M28.5,161.9c10.8-8.8,25.4-10.1,38.8-7.7c14.3,2.5,27.3,9.4,40.4,15.2c13.6,6,27.4,10.3,42.4,11.1
	c14.9,0.8,29.7-1.3,44.2-5c30.2-7.6,57.9-22.2,86.8-33.2c14.5-5.5,29.5-10.3,44.9-12.5c8.4-1.2,16.8-1.5,25.3-0.6
	c8,0.9,15.8,2.7,23.7,4.7c17.3,4.3,34.5,8.1,52.3,10.2c18.3,2.2,36.7,2.9,55.1,2.3c1.2-0.1,1.2-1.9,0-1.8
	c-33.4,1.2-66.8-2.4-99.2-10.4c-15.5-3.9-30.8-7.9-46.9-7.1c-15.6,0.8-31,4.9-45.7,10c-29.4,10.1-57.1,25-87,34.1
	c-15.2,4.6-30.9,7.7-46.8,7.8c-16.1,0.1-31.3-3.7-46.1-10.1c-14.6-6.3-28.8-14.1-44.7-16.6c-13.5-2.1-27.9-0.4-38.7,8.4
	C26.3,161.3,27.6,162.6,28.5,161.9z"/>
<path class="st0" d="M355.5,106.3c42.1,18.2,89.8,15.1,132.9,1.9c23.3-7.2,46.5-16.8,71.3-16.7c25,0.1,48.7,8.8,73.2,12.7
	c22.2,3.5,46.7,3.1,65.7-10.3c1-0.7,0.1-2.2-0.9-1.6c-17.6,12.3-39.9,13.4-60.6,10.6c-23.4-3.2-45.8-11.3-69.4-13
	c-23.6-1.7-45.9,5.4-68,12.7c-22.1,7.2-44.4,12.9-67.7,14.2c-25.7,1.5-51.8-1.9-75.5-12.2C355.4,104.3,354.5,105.9,355.5,106.3z"/>
<path class="st0" d="M5.3,257.7c13.3-9.5,29-15.3,45.3-16.9c8.1-0.8,16.3-0.5,24.3,0.9c8.3,1.5,16.3,4.3,24.3,7
	c14.8,5.1,29.4,9,44.9,5.4c13.4-3.1,25.6-10.1,37.5-16.7c14-7.8,28.6-15.9,44.9-17.3c1.2-0.1,1.2-1.9,0-1.8
	c-29,2.6-50.8,24.4-77.9,32.7c-6.9,2.1-14,3.2-21.2,2.8c-8.8-0.5-17.4-3.3-25.6-6.1c-8.3-2.9-16.6-6-25.4-7.6
	c-7.5-1.4-15.2-1.8-22.8-1.3C36,240,18.8,246,4.4,256.2C3.5,256.8,4.4,258.4,5.3,257.7z"/>
<path class="st0" d="M166.3,281.1c23.6-25,58.3-35.2,91.9-35.5c19.5-0.2,38.9,2.6,57.9,6.7c18.1,3.8,35.6,8.8,54.3,6.3
	c19.5-2.6,37.8-11,55.3-19.8c1-0.5,0.1-2.1-0.9-1.6c-16.6,8.4-33.9,16.3-52.4,19.3c-9.5,1.5-19,1.3-28.5-0.2
	c-9.6-1.5-18.9-4.1-28.5-6.1c-34.7-7.3-71.7-10.4-105.8,1.5c-16.8,5.8-32.4,15.1-44.6,28.1C164.2,280.6,165.5,281.9,166.3,281.1z"/>
<path class="st0" d="M447.6,299.2c9.9,3.5,20,0.2,29.1-4.1c10.1-4.9,19.7-10.9,30-15.2c10.4-4.3,21.5-7.2,32.8-5.8
	c10.3,1.3,19.8,5.9,28.9,10.8c8.6,4.7,17,9.8,26.1,13.4c10.1,3.9,21.1,5.8,31.9,5.6c22.3-0.5,41.2-11.6,61.6-19.1
	c19-7,44.3-10.2,59.6,6.3c0.8,0.9,2.1-0.4,1.3-1.3c-12-12.9-31-14.4-47.4-10.9c-21.4,4.5-39.8,17.5-61.3,21.7
	c-11.5,2.2-23.5,1.9-34.8-0.8c-10.6-2.6-20-7.5-29.5-12.8c-8.6-4.8-17.2-9.8-26.6-12.6c-9.8-3-20-3-29.9-0.6
	c-12.1,3-23.2,8.9-34.1,14.8c-11.2,6.1-24.2,13.5-37.3,8.9C447,297.1,446.5,298.9,447.6,299.2z"/>
<path class="st0" d="M607.5,328.5c25.1,1.5,45.8-15.5,69.6-20.7c6.3-1.4,13-2,19.4-0.9c5.8,1,11,3.3,16,6.4
	c8.6,5.2,16.9,12,27.3,12.7c12.7,0.9,23.9-7,33.4-14.5c0.9-0.7-0.4-2-1.3-1.3c-9.2,7.2-20.3,15-32.7,13.8
	c-10.7-1-19.2-8.7-28.3-13.8c-20.8-11.7-43.1-2.5-63.1,6.3c-12.8,5.6-26.1,11-40.3,10.1C606.3,326.6,606.3,328.4,607.5,328.5z"/>
<path class="st0" d="M34.5,444.6c8.8-8.4,21.9-11.7,33.6-8.4c12.3,3.3,20.2,13.9,30,21.2c19.6,14.5,46.3,12.2,67.9,3.6
	c25.4-10.1,46.6-28.3,72-38.6c12.4-5,25.8-8.3,39.3-7.3c13.1,0.9,24.3,6.6,34.7,14.2c10.3,7.6,20,16.6,32.1,21.4
	c12.9,5.1,27.5,4,39.6-2.7c1-0.5,0.1-2.1-0.9-1.6c-12.4,6.9-27.2,7.5-40.1,1.8c-10.8-4.8-19.7-12.8-29.1-19.9
	c-9.7-7.2-19.9-12.9-32.1-14.6c-12.5-1.7-25.3,0.4-37.1,4.4c-25.9,8.7-47.3,26.6-71.9,38.1c-22.7,10.6-51.9,15.6-73.5-0.4
	c-10.7-8-19.2-19.3-33-22c-11.7-2.2-24.2,1.3-32.8,9.5C32.4,444.1,33.6,445.5,34.5,444.6z"/>
<path class="st0" d="M267.7,478.5c10-6.5,21.9-9.6,33.9-8.6c10.9,0.9,21.2,5,31.3,9c9.7,3.9,19.5,8.1,30,9.8
	c10.9,1.8,22,0.4,32.5-2.8c12.6-3.9,24.2-10.1,35.7-16.3c1-0.5,0.1-2.1-0.9-1.6c-21,11.4-44.1,23.3-68.7,18.6
	c-20.6-3.9-38.7-16.7-59.9-18.5c-12.3-1-24.5,2.2-34.8,8.9C265.8,477.6,266.7,479.2,267.7,478.5z"/>
<path class="st0" d="M496.9,519.7c13.2-12.4,29.5-21.3,47-25.9c8.9-2.3,18.1-3.5,27.3-3.4c10.3,0.1,20.5,1.8,30.7,2.7
	c19.8,1.9,38.8-1.5,57.3-8.7c17.7-6.9,34.3-18.8,53.3-21.7c22.2-3.4,39.4,11.4,53.5,26.5c0.8,0.9,2.1-0.4,1.3-1.3
	c-11.7-12.5-25.4-25.3-43.1-27.3c-19.4-2.2-37.1,9.2-54,17.1c-19.4,9-40.4,15.2-61.9,14c-10.7-0.6-21.4-2.6-32.2-3.1
	c-9.2-0.5-18.4,0.2-27.4,2.1c-19.9,4.1-38.4,13.7-53.2,27.6C494.7,519.2,496,520.5,496.9,519.7z"/>
<path class="st1" d="M141.4,135.9c17,13.2,39.2,7.3,57.7,1.3c22.9-7.6,46.2-12.4,70.5-12.9c1.2,0,1.2-1.8,0-1.8
	c-22.3,0.4-44.4,4.3-65.6,11.2c-19.2,6.3-43.2,15.1-61.2,1C141.8,133.9,140.5,135.2,141.4,135.9z"/>
<path class="st1" d="M305.1,25.5c20.5-1.5,40.3-7.2,60.2-12c20.6-5,41.3-8.4,62.6-6.1c21.5,2.3,42.3,8.8,63.4,13.4
	c20.3,4.5,40.9,6.6,61.6,5.5c23.4-1.2,46.4-6.1,68.2-14.5c1.1-0.4,0.6-2.2-0.5-1.8C581,25.4,537.7,28.6,496.2,20
	c-20.7-4.3-41-10.6-61.9-13.7c-20.2-2.9-39.9-1.3-59.9,3.1c-23.1,5-45.7,12.4-69.3,14.2C303.9,23.8,303.9,25.6,305.1,25.5z"/>
<path class="st1" d="M633.6,177.7c17.7-6.6,36.1,2.8,53.8,4.5c9.5,0.9,19,0,28.3-2.2c9.1-2.2,18-5.4,27.3-6.8
	c10-1.5,20.6-0.9,29.2,4.7c1,0.7,1.9-0.9,0.9-1.6c-15.3-10-34-4.6-50.1-0.1c-10.1,2.9-20.3,4.9-30.8,4.5
	c-10.1-0.4-19.7-3.2-29.6-5.2c-9.8-2-19.9-3.1-29.4,0.4C632,176.3,632.5,178.1,633.6,177.7z"/>
<path class="st1" d="M14.9,362c15.4-13.7,37.2-1.6,54.3,1c19.8,3,39.6-2.4,58.5-7.7c1.2-0.3,0.7-2.1-0.5-1.8
	c-20.9,5.8-42.5,11.6-64.2,6.4c-15.8-3.8-35.2-11.8-49.4,0.7C12.7,361.4,14,362.7,14.9,362z"/>
<path class="st1" d="M209,532.5c4.9-5.8,12.5-9,20.2-8c4.4,0.5,8.4,2.6,12.4,4.3c3.3,1.5,6.7,2.7,10.2,3.6
	c14.9,4.1,30.8,3.5,45.3-1.6c1.1-0.4,0.6-2.1-0.5-1.8c-16.3,5.6-34.2,5.6-50.4-0.4c-7-2.6-13.6-6.8-21.4-6.2
	c-6.6,0.5-12.7,3.6-17.1,8.7C206.9,532.1,208.3,533.4,209,532.5z"/>
<path class="st1" d="M312.3,527.5c11-3.2,22.4-4.8,33.9-4.7c1.2,0,1.2-1.8,0-1.8c-11.7-0.1-23.2,1.6-34.4,4.8
	C310.7,526.1,311.2,527.9,312.3,527.5z"/>
<path class="st1" d="M326.8,55.5c10.7,8.3,21,17.1,30.8,26.5c0.8,0.8,2.1-0.5,1.3-1.3c-9.9-9.5-20.3-18.4-31.2-26.8
	C326.8,53.1,325.9,54.7,326.8,55.5z"/>
<path class="st1" d="M221.5,87.5c1-5.7,2.1-11.4,3.2-17.2c0.2-1.2-1.5-1.6-1.8-0.5c-1,5.7-2.1,11.4-3.2,17.2
	C219.6,88.1,221.3,88.6,221.5,87.5z"/>
<linearGradient id="SVGID_1_" gradientUnits="userSpaceOnUse" x1="568.0082" y1="120.1336" x2="575.0499" y2="120.1336">
	<stop  offset="0" style="stop-color:#FF2574"/>
	<stop  offset="0.9987" style="stop-color:#FFA35A"/>
</linearGradient>
<path class="st2" d="M571.5,123.7c1.9,0,3.5-1.6,3.5-3.5c0-1.9-1.6-3.5-3.5-3.5c-1.9,0-3.5,1.6-3.5,3.5
	C568,122.1,569.6,123.7,571.5,123.7z"/>
<linearGradient id="SVGID_00000083065022827262018980000008959538010786849691_" gradientUnits="userSpaceOnUse" x1="107.3289" y1="410.3594" x2="115.7065" y2="410.3594">
	<stop  offset="0" style="stop-color:#FF2574"/>
	<stop  offset="0.9987" style="stop-color:#FFA35A"/>
</linearGradient>
<path style="fill:url(#SVGID_00000083065022827262018980000008959538010786849691_);" d="M111.5,414.5c2.3,0,4.2-1.9,4.2-4.2
	c0-2.3-1.9-4.2-4.2-4.2c-2.3,0-4.2,1.9-4.2,4.2C107.3,412.7,109.2,414.5,111.5,414.5z"/>
<linearGradient id="SVGID_00000002348344752840492770000004272256989581687710_" gradientUnits="userSpaceOnUse" x1="38.154" y1="41.9793" x2="61.7052" y2="41.9793">
	<stop  offset="0" style="stop-color:#FF2574"/>
	<stop  offset="0.9987" style="stop-color:#FFA35A"/>
</linearGradient>
<path style="fill:url(#SVGID_00000002348344752840492770000004272256989581687710_);" d="M49.9,53.8c6.5,0,11.8-5.3,11.8-11.8
	s-5.3-11.8-11.8-11.8c-6.5,0-11.8,5.3-11.8,11.8S43.4,53.8,49.9,53.8z"/>
<path class="st5" d="M127.6,113.7c4,0,7.3-3.3,7.3-7.3s-3.3-7.3-7.3-7.3c-4,0-7.3,3.3-7.3,7.3S123.6,113.7,127.6,113.7z"/>
<linearGradient id="SVGID_00000096055787829143395930000006018790454728430489_" gradientUnits="userSpaceOnUse" x1="245.2591" y1="563.938" x2="278.694" y2="563.938">
	<stop  offset="0" style="stop-color:#FF2574"/>
	<stop  offset="0.9987" style="stop-color:#FFA35A"/>
</linearGradient>
<path style="fill:url(#SVGID_00000096055787829143395930000006018790454728430489_);" d="M262,580.7c9.2,0,16.7-7.5,16.7-16.7
	c0-9.2-7.5-16.7-16.7-16.7c-9.2,0-16.7,7.5-16.7,16.7C245.3,573.2,252.7,580.7,262,580.7z"/>
<linearGradient id="SVGID_00000103981297644789647560000017330335834574910897_" gradientUnits="userSpaceOnUse" x1="639.4833" y1="81.5705" x2="659.1631" y2="81.5705">
	<stop  offset="0" style="stop-color:#FF2574"/>
	<stop  offset="0.9987" style="stop-color:#FFA35A"/>
</linearGradient>
<path style="fill:url(#SVGID_00000103981297644789647560000017330335834574910897_);" d="M649.3,91.4c5.4,0,9.8-4.4,9.8-9.8
	c0-5.4-4.4-9.8-9.8-9.8c-5.4,0-9.8,4.4-9.8,9.8C639.5,87,643.9,91.4,649.3,91.4z"/>
<linearGradient id="SVGID_00000021818299614336489780000006572878522153904312_" gradientUnits="userSpaceOnUse" x1="655.8508" y1="63.6819" x2="667.961" y2="63.6819">
	<stop  offset="0" style="stop-color:#FF2574"/>
	<stop  offset="0.9987" style="stop-color:#FFA35A"/>
</linearGradient>
<path style="fill:url(#SVGID_00000021818299614336489780000006572878522153904312_);" d="M661.9,69.7c3.3,0,6.1-2.7,6.1-6.1
	c0-3.3-2.7-6.1-6.1-6.1c-3.3,0-6.1,2.7-6.1,6.1C655.9,67,658.6,69.7,661.9,69.7z"/>
<linearGradient id="SVGID_00000134237373190033936490000006759529984812375478_" gradientUnits="userSpaceOnUse" x1="88.3051" y1="38.6366" x2="131.8523" y2="38.6366">
	<stop  offset="0" style="stop-color:#26FFFF"/>
	<stop  offset="1" style="stop-color:#006DFF"/>
</linearGradient>
<path style="fill:url(#SVGID_00000134237373190033936490000006759529984812375478_);" d="M110.1,60.4c12,0,21.8-9.8,21.8-21.8
	c0-12-9.7-21.8-21.8-21.8c-12,0-21.8,9.8-21.8,21.8C88.3,50.7,98.1,60.4,110.1,60.4z"/>
<linearGradient id="SVGID_00000072974159298239423660000003704550752114535824_" gradientUnits="userSpaceOnUse" x1="91.3032" y1="415.4001" x2="100.8947" y2="415.4001">
	<stop  offset="0" style="stop-color:#26FFFF"/>
	<stop  offset="1" style="stop-color:#006DFF"/>
</linearGradient>
<path style="fill:url(#SVGID_00000072974159298239423660000003704550752114535824_);" d="M96.1,420.2c2.6,0,4.8-2.1,4.8-4.8
	c0-2.6-2.1-4.8-4.8-4.8c-2.6,0-4.8,2.1-4.8,4.8C91.3,418,93.5,420.2,96.1,420.2z"/>
<linearGradient id="SVGID_00000054259069906460661030000007346590852227663016_" gradientUnits="userSpaceOnUse" x1="209.2648" y1="552.7288" x2="229.0986" y2="552.7288">
	<stop  offset="0" style="stop-color:#26FFFF"/>
	<stop  offset="1" style="stop-color:#006DFF"/>
</linearGradient>
<path style="fill:url(#SVGID_00000054259069906460661030000007346590852227663016_);" d="M219.2,562.6c5.5,0,9.9-4.4,9.9-9.9
	c0-5.5-4.4-9.9-9.9-9.9s-9.9,4.4-9.9,9.9C209.3,558.2,213.7,562.6,219.2,562.6z"/>
<linearGradient id="SVGID_00000107560260133355696300000017903115790826586803_" gradientUnits="userSpaceOnUse" x1="597.2867" y1="41.9118" x2="628.6983" y2="41.9118">
	<stop  offset="0" style="stop-color:#26FFFF"/>
	<stop  offset="1" style="stop-color:#006DFF"/>
</linearGradient>
<path style="fill:url(#SVGID_00000107560260133355696300000017903115790826586803_);" d="M613,57.6c8.7,0,15.7-7,15.7-15.7
	s-7-15.7-15.7-15.7s-15.7,7-15.7,15.7S604.3,57.6,613,57.6z"/>
<path class="st13" d="M438,178.4c1.2,0,2.2-1,2.2-2.2s-1-2.2-2.2-2.2s-2.2,1-2.2,2.2S436.8,178.4,438,178.4z"/>
<linearGradient id="SVGID_00000146495070728338017270000001685201615130024629_" gradientUnits="userSpaceOnUse" x1="411.7519" y1="53.0271" x2="417.4074" y2="53.0271">
	<stop  offset="0" style="stop-color:#26FFFF"/>
	<stop  offset="1" style="stop-color:#006DFF"/>
</linearGradient>
<path style="fill:url(#SVGID_00000146495070728338017270000001685201615130024629_);" d="M415.6,48.3c-1.3,3-2.5,6-3.8,9
	c-0.4,1.1,1.3,1.6,1.8,0.5c1.3-3,2.5-6,3.8-9C417.8,47.7,416,47.2,415.6,48.3z"/>
<linearGradient id="SVGID_00000087375066605741694670000018168543612245829796_" gradientUnits="userSpaceOnUse" x1="415.0046" y1="53.3165" x2="422.2641" y2="53.3165">
	<stop  offset="0" style="stop-color:#26FFFF"/>
	<stop  offset="1" style="stop-color:#006DFF"/>
</linearGradient>
<path style="fill:url(#SVGID_00000087375066605741694670000018168543612245829796_);" d="M415.3,49.7c2.2,2.4,4,5,5.2,8.1
	c0.4,1.1,2.2,0.6,1.8-0.5c-1.3-3.3-3.2-6.3-5.6-8.9C415.8,47.6,414.4,48.9,415.3,49.7z"/>
<linearGradient id="SVGID_00000173862526787433173010000006963546000863216026_" gradientUnits="userSpaceOnUse" x1="412.1867" y1="63.0092" x2="420.079" y2="63.0092">
	<stop  offset="0" style="stop-color:#26FFFF"/>
	<stop  offset="1" style="stop-color:#006DFF"/>
</linearGradient>
<path style="fill:url(#SVGID_00000173862526787433173010000006963546000863216026_);" d="M412.3,58.9c1.8,3.3,3.8,6.4,6,9.3
	c0.7,0.9,2.3,0,1.6-0.9c-2.2-3-4.2-6.1-6-9.3C413.3,56.9,411.8,57.8,412.3,58.9z"/>
<linearGradient id="SVGID_00000165192190249577785020000012263275110339117218_" gradientUnits="userSpaceOnUse" x1="418.412" y1="63.312" x2="422.3423" y2="63.312">
	<stop  offset="0" style="stop-color:#26FFFF"/>
	<stop  offset="1" style="stop-color:#006DFF"/>
</linearGradient>
<path style="fill:url(#SVGID_00000165192190249577785020000012263275110339117218_);" d="M420.6,57.9c-0.7,3.4-1.4,6.8-2.1,10.2
	c-0.2,1.2,1.5,1.6,1.8,0.5c0.7-3.4,1.4-6.8,2.1-10.2C422.6,57.3,420.8,56.9,420.6,57.9z"/>
<linearGradient id="SVGID_00000114050682365695414100000007590691830075519879_" gradientUnits="userSpaceOnUse" x1="583.7169" y1="312.9011" x2="588.2756" y2="312.9011">
	<stop  offset="0" style="stop-color:#26FFFF"/>
	<stop  offset="1" style="stop-color:#006DFF"/>
</linearGradient>
<path style="fill:url(#SVGID_00000114050682365695414100000007590691830075519879_);" d="M586.6,308.3c-1.5,2.7-2.4,5.5-2.9,8.6
	c-0.2,1.2,1.6,1.6,1.8,0.5c0.4-2.9,1.3-5.5,2.7-8.1C588.7,308.2,587.1,307.2,586.6,308.3z"/>
<linearGradient id="SVGID_00000127755618756329939770000014090502557285359802_" gradientUnits="userSpaceOnUse" x1="586.3958" y1="313.142" x2="592.3419" y2="313.142">
	<stop  offset="0" style="stop-color:#26FFFF"/>
	<stop  offset="1" style="stop-color:#006DFF"/>
</linearGradient>
<path style="fill:url(#SVGID_00000127755618756329939770000014090502557285359802_);" d="M586.5,308.8c1.2,3.2,2.6,6.3,4.2,9.3
	c0.5,1,2.1,0.1,1.6-0.9c-1.5-2.9-2.9-5.8-4-8.9C587.8,307.2,586,307.7,586.5,308.8z"/>
<linearGradient id="SVGID_00000082353909649246018640000000495647060952745347_" gradientUnits="userSpaceOnUse" x1="583.2042" y1="321.0265" x2="589.7794" y2="321.0265">
	<stop  offset="0" style="stop-color:#26FFFF"/>
	<stop  offset="1" style="stop-color:#006DFF"/>
</linearGradient>
<path style="fill:url(#SVGID_00000082353909649246018640000000495647060952745347_);" d="M583.4,318.1c1.6,2.2,3.1,4.5,4.7,6.7
	c0.7,1,2.2,0.1,1.6-0.9c-1.6-2.2-3.1-4.5-4.7-6.7C584.3,316.2,582.7,317.1,583.4,318.1z"/>
<linearGradient id="SVGID_00000115483577820994929090000011848121632678366339_" gradientUnits="userSpaceOnUse" x1="588.1013" y1="320.9781" x2="591.7223" y2="320.9781">
	<stop  offset="0" style="stop-color:#26FFFF"/>
	<stop  offset="1" style="stop-color:#006DFF"/>
</linearGradient>
<path style="fill:url(#SVGID_00000115483577820994929090000011848121632678366339_);" d="M590,317.8c-1.3,1.8-1.9,3.8-1.9,5.9
	c0,1.2,1.8,1.2,1.8,0c0-1.8,0.5-3.5,1.6-5C592.2,317.7,590.6,316.8,590,317.8z"/>
<path class="st22" d="M78.8,480.2c-1.6,3.6-3.3,7.1-4.9,10.7c-0.5,1,1.1,2,1.6,0.9c1.6-3.6,3.3-7.1,4.9-10.7
	C80.9,480.1,79.3,479.2,78.8,480.2z"/>
<path class="st22" d="M79.1,480.7c1.6,3.8,3.2,7.5,4.7,11.3c0.4,1.1,2.2,0.6,1.8-0.5c-1.6-3.8-3.2-7.5-4.7-11.3
	C80.4,479.1,78.7,479.6,79.1,480.7z"/>
<path class="st22" d="M73.5,492.5c1.6,3.2,3.2,6.5,4.9,9.7c0.3,0.5,1,0.5,1.5,0.2c1.3-1,1.9-2.8,2.5-4.2c1-1.9,1.9-3.9,2.9-5.8
	c0.5-1-1-1.9-1.6-0.9c-0.8,1.7-1.8,3.4-2.6,5.1c-0.7,1.5-1.4,3.5-2.7,4.5c0.5,0.1,1,0.1,1.5,0.2c-1.6-3.2-3.2-6.5-4.9-9.7
	C74.5,490.6,72.9,491.5,73.5,492.5z"/>
<linearGradient id="SVGID_00000178193785807665876780000016700190374356167041_" gradientUnits="userSpaceOnUse" x1="686.1857" y1="203.8122" x2="691.434" y2="203.8122">
	<stop  offset="0" style="stop-color:#26FFFF"/>
	<stop  offset="1" style="stop-color:#006DFF"/>
</linearGradient>
<path style="fill:url(#SVGID_00000178193785807665876780000016700190374356167041_);" d="M689.8,197.9c-1.9,3.6-3,7.3-3.6,11.4
	c-0.2,1.2,1.6,1.2,1.8,0c0.5-3.7,1.6-7.2,3.3-10.4C691.9,197.8,690.3,196.9,689.8,197.9z"/>
<linearGradient id="SVGID_00000039108764865255885120000003841698354550915971_" gradientUnits="userSpaceOnUse" x1="689.4233" y1="205.0634" x2="696.8136" y2="205.0634">
	<stop  offset="0" style="stop-color:#26FFFF"/>
	<stop  offset="1" style="stop-color:#006DFF"/>
</linearGradient>
<path style="fill:url(#SVGID_00000039108764865255885120000003841698354550915971_);" d="M689.5,200.1c1.9,3.6,3.7,7.3,5.6,10.9
	c0.5,1,2.1,0.1,1.6-0.9c-1.9-3.6-3.7-7.3-5.6-10.9C690.6,198.1,689,199,689.5,200.1z"/>
<linearGradient id="SVGID_00000001646764999345903100000007871845837133649307_" gradientUnits="userSpaceOnUse" x1="686.2539" y1="214.3369" x2="693.5833" y2="214.3369">
	<stop  offset="0" style="stop-color:#26FFFF"/>
	<stop  offset="1" style="stop-color:#006DFF"/>
</linearGradient>
<path style="fill:url(#SVGID_00000001646764999345903100000007871845837133649307_);" d="M686.3,209.5c1.5,3.6,3.3,7,5.5,10.3
	c0.7,1,2.2,0.1,1.6-0.9c-2.1-3.1-3.9-6.4-5.3-9.8C687.7,208,685.9,208.5,686.3,209.5z"/>
<linearGradient id="SVGID_00000181072011487098612350000000188301080230888849_" gradientUnits="userSpaceOnUse" x1="691.9513" y1="215.804" x2="696.3847" y2="215.804">
	<stop  offset="0" style="stop-color:#26FFFF"/>
	<stop  offset="1" style="stop-color:#006DFF"/>
</linearGradient>
<path style="fill:url(#SVGID_00000181072011487098612350000000188301080230888849_);" d="M694.6,210.3c-1.1,3.4-2,6.9-2.6,10.4
	c-0.2,1.2,1.6,1.6,1.8,0.5c0.6-3.5,1.5-7,2.6-10.4C696.7,209.7,694.9,209.2,694.6,210.3z"/>
<linearGradient id="SVGID_00000039827797915843089440000002197861887078901691_" gradientUnits="userSpaceOnUse" x1="51.8747" y1="177.1889" x2="57.582" y2="177.1889">
	<stop  offset="0" style="stop-color:#26FFFF"/>
	<stop  offset="1" style="stop-color:#006DFF"/>
</linearGradient>
<path style="fill:url(#SVGID_00000039827797915843089440000002197861887078901691_);" d="M55.9,172.4c-1.3,2.9-2.6,5.8-3.9,8.7
	c-0.5,1,1.1,2,1.6,0.9c1.3-2.9,2.6-5.8,3.9-8.7C58,172.2,56.4,171.3,55.9,172.4z"/>
<linearGradient id="SVGID_00000019639764552121858870000016469901290459399838_" gradientUnits="userSpaceOnUse" x1="52.1443" y1="187.7251" x2="58.1637" y2="187.7251">
	<stop  offset="0" style="stop-color:#26FFFF"/>
	<stop  offset="1" style="stop-color:#006DFF"/>
</linearGradient>
<path style="fill:url(#SVGID_00000019639764552121858870000016469901290459399838_);" d="M52.2,182.6c1.4,3.6,2.7,7.1,4.1,10.7
	c0.4,1.1,2.2,0.6,1.8-0.5c-1.4-3.6-2.7-7.1-4.1-10.7C53.5,181,51.8,181.5,52.2,182.6z"/>
<linearGradient id="SVGID_00000179643917226831715540000002521341113413528970_" gradientUnits="userSpaceOnUse" x1="55.7764" y1="176.976" x2="63.253" y2="176.976">
	<stop  offset="0" style="stop-color:#26FFFF"/>
	<stop  offset="1" style="stop-color:#006DFF"/>
</linearGradient>
<path style="fill:url(#SVGID_00000179643917226831715540000002521341113413528970_);" d="M55.9,172.5c1.9,3.3,3.8,6.6,5.6,9.9
	c0.6,1,2.1,0.1,1.6-0.9c-1.9-3.3-3.8-6.6-5.6-9.9C56.9,170.5,55.3,171.4,55.9,172.5z"/>
<linearGradient id="SVGID_00000112614578384592733840000014042893710780404919_" gradientUnits="userSpaceOnUse" x1="56.8182" y1="187.5329" x2="63.6743" y2="187.5329">
	<stop  offset="0" style="stop-color:#26FFFF"/>
	<stop  offset="1" style="stop-color:#006DFF"/>
</linearGradient>
<path style="fill:url(#SVGID_00000112614578384592733840000014042893710780404919_);" d="M62,181.6c-1.9,3.6-3.6,7.4-5.1,11.2
	c-0.4,1.1,1.3,1.6,1.8,0.5c1.4-3.7,3-7.3,4.9-10.8C64.1,181.5,62.5,180.6,62,181.6z"/>
<path class="st22" d="M513.5,228.4c1.2-2.3,3.5-3.9,6.2-3.8c2.2,0.1,3.8,1.6,5.8,2.3c3.4,1.2,4.4-1,7-2.6c3.5-2.3,6.8,2.9,10.5,2.8
	c2.1-0.1,3.9-1.1,3.9-3.3c-0.5,0.2-0.9,0.5-1.4,0.8c1.9,1,3.8,1.9,5.6,3c1,0.5,1.9-1,0.9-1.6c-1.9-1-3.8-1.9-5.6-3
	c-0.6-0.3-1.3,0.1-1.4,0.8c-0.2,4.3-8.6-1.8-10.1-2c-3.6-0.5-5,3.9-8.1,3.5c-3.3-0.5-5.3-2.9-8.9-2.3c-2.7,0.5-4.9,2.1-6.1,4.6
	C511.4,228.5,512.9,229.4,513.5,228.4z"/>
<path class="st22" d="M536.7,216c2.7-3,7,0.8,10.1,1.2c3.6,0.4,6.4-3.4,9.8-1.5c2.9,1.6,8.1,5.5,10.1,0.5c0.4-1.1-1.3-1.6-1.8-0.5
	c-1.5,3.5-6.7-1.4-8.4-2.1c-2.4-1-3.9-0.2-6.1,0.9c-2.5,1.2-4.4,0.8-6.8-0.3c-1.1-0.5-2.2-0.9-3.4-1.1c-1.9-0.2-3.6,0.1-4.9,1.6
	C534.7,215.6,536,216.9,536.7,216z"/>
<linearGradient id="SVGID_00000152245504845749570960000011392949995579433407_" gradientUnits="userSpaceOnUse" x1="485.4853" y1="69.9506" x2="522.4294" y2="69.9506">
	<stop  offset="0" style="stop-color:#FF2574"/>
	<stop  offset="0.9987" style="stop-color:#FFA35A"/>
</linearGradient>
<path style="fill:url(#SVGID_00000152245504845749570960000011392949995579433407_);" d="M487.5,72.8c0.9-1.6,1.8-2,2.9-1.3
	c0.5,0.2,1,0.4,1.5,0.7c0.5,0.2,1.1,0.6,1.6,0.8c1,0.3,1.9,0.4,2.9,0.2c2.6-0.7,3.9-4,6.7-3.9c2.6,0.1,4.5,2.6,7.2,1.3
	c1.2-0.5,1.9-1.5,3-2.1c2.4-1.3,5.4-0.9,7.5,0.9c0.9,0.7,2.2-0.5,1.3-1.3c-2.7-2.2-6.5-2.9-9.7-1.2c-1.4,0.8-2.5,2.5-4.4,2.2
	c-1-0.1-1.9-0.9-2.9-1.2c-1.5-0.5-2.8-0.7-4.2-0.1c-1.8,0.9-3,3.2-5,3.6c-2.5,0.5-4.2-2.1-6.6-2.1c-2.2-0.1-4.9,2.1-3.3,4.4
	C486.5,74.6,488.1,73.7,487.5,72.8z"/>
<linearGradient id="SVGID_00000137098898851958332600000016288047598309052582_" gradientUnits="userSpaceOnUse" x1="505.8727" y1="59.9593" x2="529.8546" y2="59.9593">
	<stop  offset="0" style="stop-color:#FF2574"/>
	<stop  offset="0.9987" style="stop-color:#FFA35A"/>
</linearGradient>
<path style="fill:url(#SVGID_00000137098898851958332600000016288047598309052582_);" d="M507.6,62c0.7-3.9,7.6-0.1,10-0.5
	c1.6-0.2,2.7-1.3,4.2-1.9c2.3-0.9,4.6-0.5,6.7,0.7c1,0.6,1.9-1,0.9-1.6c-1.8-1.1-3.8-1.6-5.8-1.5c-0.9,0.1-1.8,0.3-2.5,0.6
	c-2.4,1-3.4,2.2-6.4,1.5c-2.9-0.7-7.9-2.2-8.7,2.2C505.6,62.7,507.4,63.2,507.6,62z"/>
<linearGradient id="SVGID_00000135676065625797793160000007862301542981414056_" gradientUnits="userSpaceOnUse" x1="46.2863" y1="281.7965" x2="73.8575" y2="281.7965">
	<stop  offset="0" style="stop-color:#FF2574"/>
	<stop  offset="0.9987" style="stop-color:#FFA35A"/>
</linearGradient>
<path style="fill:url(#SVGID_00000135676065625797793160000007862301542981414056_);" d="M48,281.5c0.8-3.8,6.1,1.4,7.1,2.1
	c1.2,0.8,2.4,1.3,3.8,1c1.8-0.3,3.2-1.8,5.1-2.2c3-0.7,6.1,0.3,8.3,2.5c0.9,0.9,2.1-0.5,1.3-1.3c-1.9-1.9-4.2-3-6.9-3.2
	c-1.3-0.1-2.7,0.1-3.9,0.5c-2,0.7-3.6,2.6-6,1.6c-2.5-1-3.5-3.6-6.4-3.9c-1.9-0.2-3.6,0.5-4,2.5C46,282.2,47.8,282.6,48,281.5z"/>
<linearGradient id="SVGID_00000006698751877478187400000004290078789918543807_" gradientUnits="userSpaceOnUse" x1="66.4961" y1="277.3582" x2="86.8031" y2="277.3582">
	<stop  offset="0" style="stop-color:#FF2574"/>
	<stop  offset="0.9987" style="stop-color:#FFA35A"/>
</linearGradient>
<path style="fill:url(#SVGID_00000006698751877478187400000004290078789918543807_);" d="M68.2,277.1c1.3-1.8,7.5,1.8,9.2,2.2
	c2.9,0.7,5.8,0.7,8.7,0.3c1.2-0.2,0.7-1.9-0.5-1.8c-5,0.7-8.9-0.7-13.5-2.5c-2.1-0.8-4.1-1.1-5.5,0.8C66,277.1,67.6,278,68.2,277.1z
	"/>
<linearGradient id="SVGID_00000018929572376586962520000001376103568983647921_" gradientUnits="userSpaceOnUse" x1="214.5163" y1="401.183" x2="244.669" y2="401.183">
	<stop  offset="0" style="stop-color:#FF2574"/>
	<stop  offset="0.9987" style="stop-color:#FFA35A"/>
</linearGradient>
<path style="fill:url(#SVGID_00000018929572376586962520000001376103568983647921_);" d="M216.2,404.4c1-1.5,2.5-2.5,4.4-2.5
	c1.6,0,2.5,1,3.9,1.4c1.4,0.5,2.5,0.2,3.8-0.6c2.4-1.6,3.5-3.5,6.7-3.4c2.9,0.1,5.7,1.5,8.3,2.7c1,0.5,1.9-1,0.9-1.6
	c-4.8-2.4-10.6-4.7-15.2-0.8c-1,0.9-1.2,1.1-2.7,1.4c-1.8,0.4-1.6,0.1-2.9-0.4c-1.2-0.5-2.2-0.7-3.5-0.5c-2.2,0.2-4,1.5-5.2,3.3
	C214,404.5,215.6,405.4,216.2,404.4z"/>
<linearGradient id="SVGID_00000116913467572679909070000013055501498142766754_" gradientUnits="userSpaceOnUse" x1="234.8902" y1="406.3627" x2="263.9955" y2="406.3627">
	<stop  offset="0" style="stop-color:#FF2574"/>
	<stop  offset="0.9987" style="stop-color:#FFA35A"/>
</linearGradient>
<path style="fill:url(#SVGID_00000116913467572679909070000013055501498142766754_);" d="M236.4,407.9c2.9-2.5,8.3,2.7,11.8,2.2
	c2.1-0.3,3.1-1.9,4.5-3.3c2.7-2.9,6.7-3.3,10-1.2c1,0.6,1.9-0.9,0.9-1.6c-2.4-1.5-5.2-2-7.9-1.2c-1.2,0.4-2.3,0.9-3.3,1.7
	c-1.5,1.2-2.4,3.4-4.4,3.8c-4.4,0.8-8.6-5.4-12.8-1.7C234.3,407.4,235.6,408.7,236.4,407.9z"/>
<linearGradient id="SVGID_00000085231538916757323280000007532388498855902383_" gradientUnits="userSpaceOnUse" x1="151.85" y1="10.4881" x2="182.4449" y2="10.4881">
	<stop  offset="0" style="stop-color:#FF2574"/>
	<stop  offset="0.9987" style="stop-color:#FFA35A"/>
</linearGradient>
<path style="fill:url(#SVGID_00000085231538916757323280000007532388498855902383_);" d="M153.6,18.4c0.5-2,1.6-3.6,3.6-4.4
	c1.7-0.7,3.1-0.2,4.9-0.3c1.9-0.1,3.4-1.1,4.6-2.6c1.8-2.2,2.9-4.4,5.4-5.9c2.9-1.6,6.1-1.9,9.3-1c1.2,0.4,1.6-1.4,0.5-1.8
	C176,0.7,170.2,3,166.7,7.9c-1.4,1.9-2.4,3.9-5.1,3.9c-1.6,0.1-3-0.3-4.6,0.2c-2.7,0.9-4.5,3.2-5.1,5.8
	C151.6,19.1,153.3,19.6,153.6,18.4z"/>
<linearGradient id="SVGID_00000143590274647201495640000004628964273396057504_" gradientUnits="userSpaceOnUse" x1="160.1" y1="17.3745" x2="188.8663" y2="17.3745">
	<stop  offset="0" style="stop-color:#FF2574"/>
	<stop  offset="0.9987" style="stop-color:#FFA35A"/>
</linearGradient>
<path style="fill:url(#SVGID_00000143590274647201495640000004628964273396057504_);" d="M162.2,25.4c-2.6-6.9,9.9-6.6,13.7-7.9
	c4.7-1.6,8.7-4.6,12.6-7.5c0.9-0.7,0-2.2-0.9-1.6c-2.7,2-5.4,3.9-8.3,5.5c-3.6,1.9-7.1,2.6-11,3.2c-4.2,0.7-9.7,3.6-7.7,8.7
	C160.9,26.9,162.6,26.5,162.2,25.4z"/>
<linearGradient id="SVGID_00000013193680250638684100000009011088531607486907_" gradientUnits="userSpaceOnUse" x1="400.488" y1="409.9929" x2="599.659" y2="409.9929">
	<stop  offset="0" style="stop-color:#FF2574"/>
	<stop  offset="0.9987" style="stop-color:#FFA35A"/>
</linearGradient>
<path style="fill:url(#SVGID_00000013193680250638684100000009011088531607486907_);" d="M404.3,373.6c4.6-12.1,12.4-20,20.5-28.2
	c10.6-10.7,30.4-30.7,50.4-27.6c17.1,2.7,15.2,19.1,38.7,31.1c22.2,11.4,30.7,0.1,52.8,12.3c3.3,1.8,26.4,15,31.7,39.9
	c2.2,10.3,1.6,24.5-2.9,25.8c-5.2,1.5-6.9-28.2-27.6-39.9c-15.8-8.9-37.5-4.6-39.3,1.8c-1.9,6.7,19.9,11.2,32.2,34.6
	c5.4,10.2,6.6,19.5,8.2,32.2c1.5,12,3.2,36.7-2.4,38.1c-4.6,1.2-7.1-15.2-24-28.7c-8.9-7.1-18.5-10-37.5-15.9
	c-17.2-5.2-25.9-7.8-30.5-3.5c-6.9,6.3-1.6,22.3-0.6,25.2c6.8,20.4,24.2,28.9,22.9,31.1c-1.7,2.7-33.4-5.2-59.2-30.5
	C415.6,449.8,390.9,408.6,404.3,373.6z"/>
<linearGradient id="SVGID_00000100341711137708979910000006878559966832392339_" gradientUnits="userSpaceOnUse" x1="602.1904" y1="460.3102" x2="639.6129" y2="460.3102">
	<stop  offset="0" style="stop-color:#FF2574"/>
	<stop  offset="0.9987" style="stop-color:#FFA35A"/>
</linearGradient>
<path style="fill:url(#SVGID_00000100341711137708979910000006878559966832392339_);" d="M602.5,443.9c-0.2,1.7-1.5,11.2,4.1,17.2
	c6.2,6.7,13.7,1.6,21.3,8.2c7,6.1,6.1,15.2,8.2,15c2.4-0.2,6.1-12.5,0.9-20c-1.6-2.4-5.6-4.5-13.6-8.6c-8.1-4.3-9.2-4.1-11.4-6.4
	c-5.3-5.7-4.5-13.2-6.4-13.2C604.2,436.2,602.9,440.7,602.5,443.9z"/>
<linearGradient id="SVGID_00000087413037640827626940000003935509176838635189_" gradientUnits="userSpaceOnUse" x1="522.4123" y1="500.9518" x2="559.8348" y2="500.9518">
	<stop  offset="0" style="stop-color:#FF2574"/>
	<stop  offset="0.9987" style="stop-color:#FFA35A"/>
</linearGradient>
<path style="fill:url(#SVGID_00000087413037640827626940000003935509176838635189_);" d="M522.7,484.6c-0.2,1.7-1.5,11.2,4.1,17.2
	c6.2,6.7,13.7,1.6,21.3,8.2c7,6.1,6.1,15.2,8.2,15c2.4-0.2,6.1-12.5,0.9-20c-1.6-2.4-5.6-4.5-13.6-8.6c-8.1-4.3-9.2-4.1-11.4-6.4
	c-5.3-5.7-4.5-13.2-6.4-13.2C524.4,476.9,523.1,481.4,522.7,484.6z"/>
<linearGradient id="SVGID_00000147913243399554721760000002708289142919243951_" gradientUnits="userSpaceOnUse" x1="625.303" y1="498.6939" x2="643.5947" y2="498.6939">
	<stop  offset="0" style="stop-color:#FF2574"/>
	<stop  offset="0.9987" style="stop-color:#FFA35A"/>
</linearGradient>
<path style="fill:url(#SVGID_00000147913243399554721760000002708289142919243951_);" d="M625.4,490.7c-0.1,0.8-0.7,5.5,2,8.4
	c3,3.3,6.7,0.8,10.4,4c3.4,3,3,7.4,4,7.3c1.2-0.1,3-6.1,0.4-9.8c-0.8-1.2-2.8-2.2-6.6-4.2c-4-2.1-4.5-2-5.5-3.1
	c-2.6-2.8-2.2-6.4-3.1-6.4C626.3,486.9,625.7,489.1,625.4,490.7z"/>
<linearGradient id="SVGID_00000081647224205182111160000017540186025810336443_" gradientUnits="userSpaceOnUse" x1="539.0886" y1="538.5527" x2="554.7884" y2="538.5527" gradientTransform="matrix(0.7771 -0.6294 0.6294 0.7771 -210.2725 467.7621)">
	<stop  offset="0" style="stop-color:#FF2574"/>
	<stop  offset="0.9987" style="stop-color:#FFA35A"/>
</linearGradient>
<path style="fill:url(#SVGID_00000081647224205182111160000017540186025810336443_);" d="M540.1,533.1c0.6,6.1,4.3,10.1,8.2,14.4
	c4,4.3,7.2,7.9,12.6,9.1c6.2,1.3,12.6-1.2,12.5-2.6c0-1.1-3.8-1-9-3.2c-0.6-0.3-8.4-3.6-13.7-10.5c-6.7-8.6-5.8-17.7-7.8-17.6
	C541.3,522.8,539.7,528.2,540.1,533.1z"/>
<path class="st5" d="M574.6,414.5c10.2,6.7,4.6,22.3,11.3,31.5c0.7,0.9,2.2,0,1.6-0.9c-6.9-9.5-1-24.9-12-32.1
	C574.6,412.3,573.7,413.9,574.6,414.5z"/>
<path class="st22" d="M571,370.6c10.9,8.4,18.5,20.3,21.5,33.8c0.2,1.2,2,0.7,1.8-0.5c-3.2-13.9-11-26.2-22.3-34.8
	C570.9,368.3,570,369.9,571,370.6z"/>
<path class="st22" d="M535.8,404.2c8.7,7.2,15.6,16.3,19.9,26.8c0.4,1.1,2.2,0.6,1.8-0.5c-4.4-10.8-11.3-20.2-20.3-27.6
	C536.2,402.2,534.9,403.5,535.8,404.2z"/>
<path class="st22" d="M559.9,441.1c1.6,4.4,2.7,8.8,3.2,13.4c0.1,1.2,1.9,1.2,1.8,0c-0.5-4.8-1.6-9.4-3.3-13.9
	C561.3,439.5,559.5,440,559.9,441.1z"/>
<path class="st22" d="M466.5,451.2c-1.5,9.2,0.2,18.3,5.2,26.2c0.6,1,2.2,0.1,1.6-0.9c-4.7-7.4-6.5-16.2-5-24.8
	C468.4,450.5,466.6,450,466.5,451.2z"/>
<path class="st22" d="M474.1,482.4c2.2,4,5,7.6,8.3,10.7c0.9,0.8,2.1-0.5,1.3-1.3c-3.2-3-5.9-6.5-8-10.3
	C475.1,480.4,473.6,481.4,474.1,482.4z"/>
<path class="st22" d="M404.4,389.8c-0.5,5.8,0.1,11.5,1.7,17.1c0.3,1.2,2.1,0.7,1.8-0.5c-1.6-5.5-2.1-10.9-1.6-16.6
	C406.4,388.7,404.5,388.7,404.4,389.8z"/>
<path class="st22" d="M407.9,413.1c1,4.7,2.7,9.1,5.3,13.2c0.6,1,2.2,0.1,1.6-0.9c-2.4-4-4.1-8.2-5.1-12.8
	C409.4,411.5,407.7,412,407.9,413.1z"/>
<path class="st22" d="M249.4,33.5c-1.7,4.6-3.8,10.9-5.8,18.6c-2.1,8-6.9,28.9-6.4,56.5c0.5,26.6,5.7,46.2,10.5,63.6
	c7.5,27.2,16.6,46.8,22,58.1c0,0,17.2,36.4,45.6,75.4c5,6.9,11.5,15.5,11.5,15.5c4.7,6.3,8.7,11.5,11.5,15.2
	c2.2,2.6,5.1,5.4,8.8,8.1c6.9,5.2,13.8,7.8,18.6,9.1c7.9-6.7,15.8-13.5,23.7-20.3c3.6,3.4,7.2,6.7,10.8,10.1
	c5-5.1,9.4-9.2,12.9-12.1c15.1-13.1,27.5-19.7,30.4-21.3c2.5-1.3,4.6-2.4,6.1-3c-2.2-4.5-4.5-9-6.7-13.5c3.6-3.2,7.8-6.5,12.5-9.8
	c6.3-4.4,12.4-8,17.9-10.8c-0.1-5.1-0.7-12.8-4.1-21.3c-2.5-6.4-5.5-10.7-6.7-12.5c-14-20.2,27.3,35.5-26.7-41.6
	c-20.9-29.9-31.4-44.9-36.2-51.1c-15-19.6-26.8-33-35.1-42.6c-16-18.3-23.2-25.1-29.1-30.1c-8-6.9-16.8-14.4-30-21.3
	c-8.4-4.3-15.3-6.7-25.4-10.1C267.4,38,256.9,35.2,249.4,33.5z"/>
<path d="M247.6,34.6c-13.2,40.6-13.2,84.5-3.7,125.9c2.4,10.4,5.3,20.6,8.9,30.7c1.8,5.1,3.9,10.1,5.8,15.1c0.7,1.8,0.8,3.5,1.6,5.3
	c1.2,2.7,2.4,5.5,3.6,8.2c2.2,5.1,4.6,10.1,7.1,15.2c2.5,5,5.5,9.7,7.8,14.8c0.8,1.9,1.6,3.9,2.5,5.7c1.3,2.3,3.2,4.1,4.5,6.3
	c2.8,4.7,5.5,9.5,8.4,14.1c13.3,21.4,28.4,41.7,43.9,61.5c0.7,0.9,2-0.4,1.3-1.3c-13.7-17.6-27-35.3-39-54c-3-4.6-5.8-9.2-8.6-14
	c-1.3-2.2-2.7-4.6-3.9-6.9c-1.3-2.2-3-3.8-4.3-6c-1.1-1.8-1.9-3.8-2.7-5.7c-1.1-2.6-2.5-5-3.9-7.5c-2.5-4.7-4.9-9.4-7.2-14.2
	c-2.4-5-4.6-10.1-6.9-15.2c-1-2.2-1.3-4.6-2.2-6.9c-1-2.5-2-5-3-7.5c-3.7-9.8-6.9-19.7-9.6-29.9c-5.3-20.5-8.4-41.6-8.7-62.9
	c-0.3-23.9,3-47.7,10.4-70.5C249.6,34,247.9,33.5,247.6,34.6z"/>
<path d="M248.4,34.6c10.1,0.8,20.5,4.3,30,7.7c9.4,3.3,18.7,7,27.3,12c17.2,10,32.4,23,46.2,37.2c14.3,14.6,27.3,30.7,39.8,46.8
	c12.5,16,24.5,32.6,36,49.4c12.7,18.6,25,37.7,37,56.8c0.6,1,2.2,0.1,1.6-0.9c-22-35-44.8-69.7-70.1-102.5
	c-24.5-31.8-50.7-64.2-85-85.7c-9.3-5.9-19.4-10.1-29.7-14c-10.4-3.8-21.9-7.8-33-8.7C247.2,32.7,247.2,34.5,248.4,34.6z"/>
<path d="M340.4,336.8c28.3-28.8,60.1-54.2,94.5-75.3c9.7-6,19.5-11.5,29.6-16.8c1-0.5,0.1-2.1-0.9-1.6
	c-35.8,18.7-69.3,41.7-99.4,68.5c-8.6,7.7-17,15.6-25.1,23.9C338.3,336.3,339.6,337.6,340.4,336.8z"/>
<path d="M338.7,338.2c7.2,8.1,16.6,13.8,27.1,16.3c1.2,0.3,1.6-1.5,0.5-1.8c-10.3-2.6-19.3-8-26.3-15.9
	C339.2,336,337.9,337.3,338.7,338.2z"/>
<path d="M464.3,245.2c4.7,8.3,7.5,17.5,8.1,27c0.1,1.2,1.9,1.2,1.8,0c-0.6-9.9-3.5-19.3-8.3-27.9
	C465.3,243.2,463.7,244.1,464.3,245.2z"/>
<path d="M366.9,354c32.8-30,68.4-56.8,106.4-80.1c1-0.6,0.1-2.2-0.9-1.6c-38,23.3-73.8,50.3-106.7,80.4
	C364.8,353.5,366,354.8,366.9,354z"/>
<path d="M389.8,334.4c3.3,3.3,6.7,6.6,10,9.9c0.4,0.4,1,0.4,1.3,0c9.8-10.4,20.9-19.7,33-27.4c2.9-1.9,5.9-3.6,8.9-5.3
	c1.9-1.1,5.6-2.1,6.8-4.2c1.2-2.1-0.6-4.9-1.6-6.6c-1.7-3.1-3.7-6-5.9-8.6c-0.7-0.9-2,0.4-1.3,1.3c2.1,2.6,4,5.3,5.6,8.3
	c0.4,0.6,1.2,1.6,1.2,2.4c-0.2,1.1-0.5,2.1-0.7,3.2c-0.3,0.2-0.6,0.3-0.9,0.5c-1.2,0.9-2.8,1.5-4.1,2.2c-5.3,3-10.4,6.2-15.4,9.7
	c-9.7,6.9-18.7,14.7-26.8,23.3c0.4,0,0.9,0,1.3,0c-3.3-3.3-6.7-6.6-10-9.9C390.2,332.3,388.9,333.6,389.8,334.4z"/>
<path d="M251.9,184.7c14.9-17.6,32.4-32.9,50.3-47.4c18-14.5,36.8-28.1,57.9-37.8c1.1-0.5,0.1-2.1-0.9-1.6
	c-20.9,9.5-39.5,23-57.4,37.3c-18.2,14.7-36,30.2-51.2,48C249.8,184.4,251.1,185.7,251.9,184.7z"/>
<path d="M360.4,108.1c-2,0.1-2.9-3.2-0.6-3.4c0.8-0.1,1.7,0.3,2,1.1c0.4,1.2-0.7,2.4-1.8,2.4c-0.9,0-0.9,1.4,0,1.4
	c1.9,0,3.5-1.8,3.2-3.6c-0.2-1.6-1.9-2.6-3.4-2.5c-1.6,0.1-2.9,1.5-2.7,3.1c0.2,1.6,1.6,3.2,3.3,3
	C361.3,109.4,361.3,108,360.4,108.1z"/>
<path d="M453.1,242.4c0.1,0,0.1,0,0.1-0.1c-0.2,0-0.4-0.1-0.5-0.1c0.7,0.3,0.3-1,0.2-1.2c0-0.2,0.1-0.4,0.1-0.6
	c0.2-0.4,0.5-0.7,0.9-0.9c0.8-0.4,1.6,0.2,1.9,1c0.5,1.6-1.8,2.4-2.4,1c-0.4-0.8-1.5-0.1-1.2,0.7c0.7,1.7,3.2,1.8,4.4,0.5
	c1.4-1.5,0.4-4.1-1.5-4.6c-2-0.5-3.9,1.6-3.5,3.5c0.2,0.8,1.2,1.8,2,1c0.6-0.6,0-1.9-0.9-1.6C451.9,241.5,452.3,242.7,453.1,242.4z"
	/>
<path class="st44" d="M249.4,33.8C259,40,272,49.1,286.2,61.3c8.8,7.6,31.6,27.9,60.2,67.4c31,42.8,46.4,64.2,49.5,88.1
	c1.6,12.4,3.8,47.9-27.5,91.5c12.9-9.8,25.9-19.7,38.9-29.6c5.6,9.3,11.2,18.6,16.9,27.9c-6.1,4.5-12.1,8.9-18.2,13.4
	c3,3.6,5.9,7.1,8.9,10.7c3.6-3.5,8-7.3,13.1-11c7.8-5.7,15.2-9.8,21.7-12.8c-2.4-4.7-4.8-9.4-7.2-14.1c10.4-6.9,20.9-13.8,31.3-20.6
	c-0.5-5.2-1.8-12.6-5.2-21c-3.9-9.8-8.8-16.4-10.7-18.9c-13.6-18.4-7-14-35.5-54c-20.5-28.8-31.7-44.9-49.8-65.7
	c-11.6-13.4-19.3-22.2-31.6-33c-13.1-11.6-29-25.4-53.3-35.5C272.1,37.8,258.5,35.1,249.4,33.8z"/>
<path class="st45" d="M444.4,210.3c-0.5,3.9-1.6,9.8-4.4,16.6c-6.3,15.6-16,22.4-36.3,42.9c-9.6,9.7-23.9,24.1-22.5,25.7
	c1.3,1.5,16.9-10.5,44.1-28.5c16-10.6,29.4-18.8,38.2-24.1C457.1,232,450.7,221.1,444.4,210.3z"/>
<path class="st46" d="M464.8,244.7c-0.9,0.2,1.2,6.8-1.3,15.1c-1.8,6.1-4.9,9-12.5,18.2c-3.3,3.9-8.1,9.9-13.8,17.6
	c11.9-8.1,23.8-16.3,35.7-24.4C467.5,249.5,465.5,244.6,464.8,244.7z"/>
<path class="st47" d="M362.2,443.5c0.2,1.8,0.9,3.2,1.9,4.9c4.4,7,11.6,11.4,16.8,13.8c-2.1,6.5-4.6,15.9-6.4,27.3
	c-1.7,11-3.7,23.8-1.1,24.7c0.9,0.3,3.6-0.5,28.4-49.7c3.5-6.9,6.3-12.6,8.2-16.5c-13.2-6-26.4-12-39.6-17.9
	C369.1,430.9,361.6,436.5,362.2,443.5z"/>
<path class="st22" d="M334.5,309.1c-11.2,7.8-18.4,15.3-24.8,22.1c-2.6,2.7-15.1,16-28.3,36.9c-5.8,9.2-10.1,17.4-13.1,23.5
	c0.4,2.5,1.2,6.1,3.5,9.7c2.5,4,5.3,5.8,9.7,9.7c5.3,4.7,7.3,7.5,10.4,10.7c6,6.2,14.4,10.9,31.1,20c20.9,11.5,32.1,15.7,35.6,16.9
	c4.2,1.5,7.8,2.7,10.4,3.5c1.2-5.6,2.7-11.7,4.5-18c1.6-5.6,3.4-10.9,5.2-15.8c-12.9-9.5-26.2-20.1-39.7-32.1
	c-4.7-4.1-9.2-8.3-13.5-12.4c4.4-5.3,10.5-12.2,18.3-19.7c2.2-2.2,7-6.7,12.7-11.4c7.3-5.9,18.3-13.8,33.4-21.1
	c2.6-17.4-0.5-33.7-10-39C367.9,286,349.8,298.6,334.5,309.1z"/>
<path d="M322.3,318.2c-21.5,18.2-39.3,40.7-51.9,66c-1.3,2.6-3.1,5.5-3.3,8.4c-0.2,3.1,1.6,5.5,3.3,7.8c4.1,5.5,8.7,10.7,13.6,15.5
	c10.4,10,22.5,18.3,35.1,25.3c15.5,8.6,32,15.5,48.4,22.3c1.1,0.4,1.6-1.3,0.5-1.8c-26.8-11.2-54.2-22.6-76.6-41.6
	c-5-4.3-9.8-8.9-14.1-14c-2.2-2.7-4.5-5.4-6.4-8.3c-1.2-1.8-2.1-3.4-1.8-5.6c0.3-2.2,1.6-4.3,2.5-6.3c5.8-11.8,12.8-23.1,20.8-33.6
	c9.2-12.1,19.7-23.1,31.3-32.9C324.5,318.7,323.2,317.4,322.3,318.2z"/>
<path d="M373.8,339.1c-20.8,13.5-39,30.5-53.8,50.5c-0.7,1,0.9,1.9,1.6,0.9c14.6-19.7,32.6-36.6,53.1-49.9
	C375.6,340.1,374.7,338.5,373.8,339.1z"/>
<path d="M324.3,384.6c17.1,15.4,34.6,30.2,52.7,44.4c0.9,0.7,2.2-0.5,1.3-1.3c-18.1-14.1-35.7-29-52.7-44.4
	C324.7,382.5,323.4,383.8,324.3,384.6z"/>
<path d="M377,428.8c-3.8,10.8-6.8,21.9-9,33.1c-0.2,1.2,1.5,1.6,1.8,0.5c2.2-11.2,5.2-22.3,9-33.1
	C379.2,428.2,377.4,427.7,377,428.8z"/>
<path class="st45" d="M358,332.3c-8.4,0.7-14.7,6.9-34.2,33.9c-7.5,10.4-13.7,19.4-18.5,26.6c6.9,4.9,12.4,8.9,15.8,11.5
	c19.4,14.5,27.5,22.7,43.9,31.5c3.6,1.9,6.6,3.3,8.3,4.1c1.4-3.8,2.8-7.7,4.1-11.5c-4.6-4-9.2-8-13.9-12
	c-12.9-10.9-25.6-21.5-38.3-31.8c5.3-7.4,10.3-13,13.9-16.8c10.7-11.2,21.4-18.8,29.7-24.7c2.9-2,5.3-3.6,6.9-4.6
	C368,332.7,361.9,332,358,332.3z"/>
<path class="st46" d="M360.5,348.2c-5.2,1.2-12.2,3.6-19.3,8.3c-17.4,11.6-23.2,29.3-24.9,35.4c9.3,7.3,19,14.6,29,22
	c9.7,7.2,19.4,14,28.8,20.5c1.4-2,2.8-4.1,4.1-6.1c-12.9-9.4-26.3-20.3-39.8-32.7c-4.2-3.9-8.3-7.8-12.2-11.7
	c2.1-2.8,4.4-5.6,6.9-8.6C342.2,364.5,351.5,355.6,360.5,348.2z"/>
<path class="st47" d="M475.4,423.6c6.4,6.1,12.9,12.2,19.4,18.3c-1.7,38.7,1.5,47.9,4.9,48.5c5.3,1,14.3-17.2,18.3-31.6
	c3-10.9,3.3-20.5,3-27c-10.1-9-20.2-18-30.2-27C485.6,411,480.5,417.3,475.4,423.6z"/>
<path class="st22" d="M349,314.3c0.5,10.1,7.6,16.2,7.6,16.2c4.4,3.8,9.3,4.9,11.7,5.2c1.9,0.8,3.9,1.6,5.9,2.4
	c3,4.4,7.5,10.6,13.5,17.6c7.9,9.5,18.5,20.8,44.5,42.1c12.8,10.5,29.3,23.4,49.3,37.7c2.9-1.4,6.3-3.5,9.7-6.5
	c7.5-6.6,10.9-14.3,12.5-18.7c-3.5-3.4-8.7-8.5-14.8-14.8c-27-27.9-44.9-51.7-58.6-70.1c-9-12.1-20.6-28.2-33.4-47.6
	C367.4,285.9,348.3,301.4,349,314.3z"/>
<path d="M358.5,332.9c4.9,1.7,9.7,3.3,14.5,5c1.1,0.4,1.6-1.4,0.5-1.8c-4.9-1.7-9.7-3.3-14.5-5C357.9,330.7,357.4,332.5,358.5,332.9
	z"/>
<path d="M371,336.1c22.8,31.4,52.4,56.8,83,80.3c8.8,6.7,17.7,13.4,26.6,20c1,0.7,1.8-0.9,0.9-1.6c-30.7-22.8-61.6-45.8-87.7-73.9
	c-7.6-8.1-14.7-16.8-21.2-25.7C371.9,334.3,370.3,335.2,371,336.1z"/>
<path d="M406.8,293.8c21.5,33,45.7,64.1,72.4,93c7.7,8.4,15.7,16.5,23.7,24.5c0.8,0.9,2.1-0.5,1.3-1.3
	c-28.1-27.6-53.8-57.5-76.9-89.4c-6.6-9-12.9-18.3-19-27.7C407.7,291.9,406.1,292.8,406.8,293.8z"/>
<path d="M501.9,410.1c-3.5,10.4-10.3,20.2-20.6,24.8c-1.1,0.5-0.1,2.1,0.9,1.6c10.7-4.8,17.7-15,21.4-25.9
	C504,409.4,502.3,409,501.9,410.1z"/>
<path class="st48" d="M406.8,292.8c-3.5-4.7-6.4-8.5-8.3-11c-1.9,3.6-4.6,9.6-4.9,17.1c-0.5,16.9,11.8,24.1,47.3,63.5
	c15.5,17.1,23.7,27.4,43.6,47.9c4.7,4.7,8.6,8.7,11.5,11.5c2.2-3.8,4.4-7.7,6.6-11.5c-19.2-19.3-34.5-36.7-45.9-50.5
	c-11-13.3-20.8-25.2-31-40C423.3,315.9,416.7,306,406.8,292.8z"/>
<path class="st48" d="M417.6,309.9c0.9,4.2,2.6,11.3,6.1,19.6c10,23.6,24.8,33.5,51.5,63c5.1,5.6,13,14.6,22.2,26.1
	c2.1-3,4.2-6,6.4-9c-1.9-1.8-5-4.7-8.8-8.3c-6.9-6.7-25.7-25.3-61.5-70.8C429.5,325.5,424.1,318.4,417.6,309.9z"/>
<path class="st22" d="M156.4,242.6c-1.3,0.7-3.6,2-4.1,4.7c-0.6,3,1.5,5.4,1.8,5.7c-0.4,0.4-1.5,1.7-1.6,3.6
	c-0.1,3.2,2.7,5.1,2.9,5.2c-0.1,0.1-1.9,1.9-1.3,4.4c0.5,2.1,2.4,3,2.6,3.1c-0.1,0.4-0.5,1.9,0.2,3.4c1.2,2.2,4.1,2.1,4.4,2.1
	c2.1-0.1,4-1.5,4.9-3.6c1.2,0.7,4.2,2.2,8.3,1.8c2.8-0.3,4.9-1.4,5.9-2.1c2.2,3.8,5.6,9,10.6,14.3c4.4,4.6,12.7,13.3,24.9,16.9
	c15.3,4.5,28.8-1.3,36.6-4.7c20.9-9,31.3-25.5,35.1-31.7c6.4-10.6,8.7-19.6,10.6-27.8c3.2-13,2.1-18.1,1-21.1
	c-0.6-1.8-4.2-12.3-12.4-13.5c-6.7-1-12.3,4.7-13,5.5c-2.3,2.4-3.5,5.6-5.9,12c-1.2,3.2-2,5.6-2.4,6.7c-3.9,12.8-5.9,19.2-6.5,20.5
	c-1.5,3.6-4.9,12-13.2,18.5c-8,6.2-16.3,7.5-20,8.1c-5.6,0.8-12.4,1.8-19.7-1.8c-8.1-4-11.8-11.3-12.7-13.2
	c-2.9-6-3.5-12.7-3.9-17.4c-0.5-6.1-0.1-10.8-3.6-14.6c-0.7-0.7-2.2-2.4-3.9-2.1c-2.4,0.5-3.7,5-4.9,9.4c-1,3.6-0.7,4.1-1.6,4.9
	c-1.8,1.8-4,0.9-11.7,1.3C159.5,241.3,157.9,241.8,156.4,242.6z"/>
<path d="M169,240c-6.6-1.2-18.1,0.5-17.2,9.5c0.8,8.1,10.4,9.5,16.1,6c1-0.6,0.1-2.2-0.9-1.6c-4.8,2.9-13.5,2.1-13.5-5.2
	c0-7,9.9-7.8,14.9-6.9C169.7,242,170.2,240.3,169,240z"/>
<path d="M153.4,252.5c-6.6,8,9.2,18.1,13.9,8c0.5-1-1.1-2-1.6-0.9c-3.6,7.8-15.8,0-11-5.8C155.5,252.9,154.2,251.6,153.4,252.5z"/>
<path d="M153.8,260.6c-1.4,3.2-0.4,7.2,2.8,8.8c3.2,1.6,7.1,0.1,8.7-2.9c0.5-1-1-1.9-1.6-0.9c-1.2,2.1-3.9,3.3-6.3,2.2
	c-2.3-1.1-3.2-4.1-2.1-6.3C155.8,260.5,154.3,259.6,153.8,260.6z"/>
<path d="M155.2,268.7c-0.2,3.2,1.6,6.1,4.9,6.8c3,0.6,5.8-1.4,6.9-4.1c0.4-1.1-1.3-1.6-1.8-0.5c-0.8,2.1-3,3.4-5.2,2.7
	c-2.2-0.7-3.2-2.7-3-4.9C157.1,267.6,155.3,267.6,155.2,268.7z"/>
<path d="M161,248.9c1.6-0.2,3.2-0.1,4.6,0.8c1.3,0.9,2,2.5,1.3,3.9c-0.5,1,1,1.9,1.6,0.9c1-1.9,0.5-4.1-0.9-5.6
	c-1.6-1.8-4.2-2.1-6.6-1.9C159.8,247.2,159.8,249.1,161,248.9z"/>
<path d="M166.6,272.6c3.2-1.2,6.2,1.5,9.5,1.1c2.5-0.3,4.7-1.6,6.7-2.9c1-0.6,0.1-2.2-0.9-1.6c-3.1,1.9-5.8,3.2-9.5,2.1
	c-2.2-0.7-4-1.4-6.3-0.5C165.1,271.3,165.5,273.1,166.6,272.6z"/>
<path d="M168.5,241.6c3.2,1.1,7.4,1.3,9.2-2.2c1-1.9,0.4-4.3,0.8-6.4c0.5-2.8,2.1-5.1,4.2-6.9c0.9-0.7-0.4-2-1.3-1.3
	c-2.4,1.9-4.1,4.6-4.7,7.7c-0.3,1.7,0.1,3.7-0.4,5.3c-1.1,3.3-4.7,2.9-7.3,1.9C167.9,239.5,167.4,241.2,168.5,241.6z"/>
<path d="M181.4,226.3c5.2,0.7,5.8,9.4,6.7,13.3c1,5.2,1.6,10.4,2.5,15.5c1.6,8.3,6.4,14.8,14,18.5c8,3.8,17.1,3.6,25.5,1.3
	c8.6-2.4,17.5-6.8,23.1-14c0.7-0.9-0.5-2.2-1.3-1.3c-5.8,7.5-15.3,12-24.4,14.1c-9.2,2.1-19.2,1.3-26.8-4.6
	c-8.3-6.4-8.4-16-10.1-25.5c-0.8-4.5-1.5-9.4-3.1-13.6c-1-2.7-2.7-5.1-5.6-5.5C180.7,224.3,180.2,226.1,181.4,226.3z"/>
<path d="M180,272.1c7.3,9,14.4,19.3,24.2,25.9c9.5,6.4,21.3,7.1,32.4,5.3c22.5-3.8,41.5-19,52.4-38.7c6.3-11.2,10-23.6,11.6-36.3
	c0.1-1.2-1.7-1.2-1.8,0c-2.8,21.7-12.3,42.9-29.1,57.3c-8.3,7-18.2,12.3-28.8,14.9c-11,2.7-23.7,3-33.7-2.9
	c-10.7-6.3-18.1-17.4-25.8-26.8C180.6,269.9,179.3,271.2,180,272.1z"/>
<path d="M287.9,203.2c-5-2-10.4,0.6-13.9,4.3c-4.1,4.3-6.2,9.9-7.7,15.5c-1.8,6.5-3.3,12.9-5.8,19.2c-2.7,6.7-6.1,13.1-10,19.2
	c-0.7,1,0.9,1.9,1.6,0.9c6.3-9.7,11-20.2,14-31.3c1.6-5.8,2.6-11.9,5.5-17.2c2.9-5.3,9.1-11.5,15.8-8.9
	C288.5,205.3,289,203.6,287.9,203.2z"/>
<path d="M163.7,267.8c1.7,0.1,1.3,3,1,4c-0.4,1.1,1.4,1.6,1.8,0.5c0.8-2.3,0.2-6.1-2.8-6.3C162.6,265.9,162.6,267.7,163.7,267.8z"/>
<path d="M164.8,262.2c0.4,1.5-0.2,3-1.3,3.8c-1,0.7-0.1,2.2,0.9,1.6c1.9-1.3,2.8-3.6,2.2-5.9C166.3,260.5,164.5,261,164.8,262.2z"/>
<path d="M165.8,255.9c1.6,0.8,0.5,3.4-0.2,4.4c-0.7,0.9,0.8,1.8,1.6,0.9c1.4-1.8,2.1-5.7-0.4-6.9
	C165.7,253.8,164.8,255.4,165.8,255.9z"/>
<path class="st45" d="M153.3,256.1c1-0.5,2.5,2.9,6.6,4.6c1.5,0.6,3.4,1,12,0c2.8-0.4,6.4-0.9,10.8-1.6c0.9,3.5,2.6,8.7,6.2,14.1
	c1.5,2.2,7.6,11,19.5,16.2c12.7,5.6,24.2,3.7,28.6,2.9c3.8-0.7,14.3-2.7,23.6-10.8c6.3-5.4,10.3-12,16.1-29
	c4-11.6,8.9-27.7,12.4-47.7c2.4,2.5,6.2,7,8.3,13.7c1,3.2,2,8,1.2,15.4c-1.6,16-9.7,29.3-14.5,36.1c-5,7.1-14,19.4-30.7,27
	c-2.2,1-14.9,6.6-31.1,5.8c-3.7-0.2-7.1-0.4-11.3-1.9c-4.6-1.6-9.1-5.9-18.1-14.3c-3.8-3.5-7.5-7.1-11.2-12.4
	c-0.7-1-1.3-1.9-1.8-2.5c-1.3,0.9-3.2,1.8-5.3,1.6c-2.9-0.2-3.8-2.3-6.2-1.9c-2.1,0.3-2.1,2-4.6,2.9c-1.9,0.7-4.7,0.6-6.5-0.8
	c-1.3-1-1.5-2.2-3-8.7C153,258.1,152.6,256.5,153.3,256.1z"/>
<path class="st22" d="M237.2,257.5c1.5,2.2,6.4,2.4,6.3-1.1c-0.1-0.6-1-0.6-0.9,0c0.2,2.5-3.5,2.1-4.6,0.6
	C237.6,256.5,236.8,257,237.2,257.5z"/>
<path class="st22" d="M234.8,264.2c0,0.1,0.1,0.1,0.1,0.2c0.2,0.1,0.4,0.1,0.6,0.2C235.4,264.4,235.2,264.2,234.8,264.2
	c0.3-0.1,0.5-0.2,0.7-0.2c-0.1-0.1-0.1-0.2-0.2-0.2c-0.3,0.1-0.5,0.2-0.8,0.4c0.4,0.7,0.2,1.9,0,2.6c-0.3,0.9-1.6,2.1-2.4,0.9
	c-0.3-0.5-1.1-0.1-0.8,0.5c0.8,1.2,2.4,1.2,3.3,0.1c0.9-1,1.4-3.3,0.6-4.5c-0.2-0.4-1-0.2-0.8,0.4c0.1,0.4,0.3,0.6,0.6,0.8
	c0.2,0.2,0.6,0,0.7-0.2c0.1-0.5-0.1-1.8-0.9-1.5c-0.8,0.3-0.5,1.5-0.1,2c0.1,0.2,0.4,0.3,0.6,0.2c0.7-0.5,0.7-1.4-0.1-1.8
	C234.7,263.2,234.3,264,234.8,264.2z"/>
<linearGradient id="SVGID_00000012462540819117322890000010625750274359674296_" gradientUnits="userSpaceOnUse" x1="280.3321" y1="250.2678" x2="407.8712" y2="250.2678">
	<stop  offset="0" style="stop-color:#FF2574"/>
	<stop  offset="0.9987" style="stop-color:#FFA35A"/>
</linearGradient>
<path style="fill:url(#SVGID_00000012462540819117322890000010625750274359674296_);" d="M280.3,204.5c0.9,5.8,2.5,15.1,5.9,26
	c7.2,22.8,15.6,32.6,26.8,59.1c2.8,6.6,6.7,16.6,10.6,29.2c7.2,2.4,20.6,5.6,37,2.7c27-4.7,42.8-22.5,47.2-27.9
	c-9.2-17-18.5-35.4-27.6-55.1c-9-19.6-16.8-38.4-23.6-56.3c-5.7-2.1-20.6-6.9-39-2.4C295.8,185.1,283.7,200.1,280.3,204.5z"/>
<path class="st50" d="M333.6,177.7c2.3,4.9,5.2,11.5,8.3,19.5c9.7,25.5,13.2,46.5,14.5,53.9c2.7,15.4,5.1,39.4,1.2,70.1
	c8.4-0.2,14.7-2.2,18.6-3.7c11.3-4.5,19.5-12.3,27.4-19.9c1.8-1.7,3.2-3.2,4.1-4.1c-2.6-4.5-6.6-11.5-11.2-20.3
	c-13.4-25.4-22.1-46.5-29.4-64.3c-2.6-6.3-6.2-15.2-10.4-26.1c-3.3-1.4-7.5-2.8-12.4-3.7C340.4,178.2,336.7,177.8,333.6,177.7z"/>
<path class="st51" d="M373.8,225.9c1,10.9,1.9,20,2.5,26.5c2.3,25.7,2.7,32.8,2.9,37.3c0.5,10.7,0.5,19.6,0.4,25.3
	c3.8-1.3,8.6-3.5,13.7-7c6.3-4.4,10.6-9.3,13.3-12.9C395.7,272,384.7,248.9,373.8,225.9z"/>
<path class="st22" d="M330.7,167c-2.9,0.9-4.5,5-5.5,9.4c-1.9,8.8-0.9,16.3-0.5,18.9c1.8,11.6,4.9,20.3,5.9,23.1
	c2.7,7,6.3,16.5,14.3,26.5c4.6,5.7,8.4,10.6,15.6,14.3c4.2,2.2,12.9,6.6,21.8,3.1c0.4-0.2,9.2-3.8,11.4-11.4
	c0.5-1.7,0.6-3.4,0.8-6.7c0.1-2,0.2-5.5-0.2-9.9c-0.6-5.8-1.9-10.3-2.9-13.5c-4.3-14.3-6.4-21.4-10.9-27.6
	c-3.7-5.1-7.9-10.9-14.8-11.7c-0.6-0.1-7.6-0.7-11.7,4.1c-2.9,3.4-2.7,7.6-2.6,10.4c0.2,5.3,2.2,9.2,5.5,15.1
	c3.2,5.8,4.5,6.6,8.3,13.5c5.2,9.5,4.7,10.4,4.4,10.6c-1,0.9-5.2-1.9-6.1-2.6c-0.8-0.6-2.1-1.5-3.6-3.1c-4.7-5.3-7.5-13.2-7.5-13.2
	c-2.5-4.9-5.8-11.9-9.1-20.8c1-3.9,2.6-6.7,3.9-8.6c2.1-2.9,4.4-4.9,4.9-8.6c0.2-1.4,0.1-2.6,0-3.4c1-1,1.3-2.4,0.8-3.6
	c-0.7-1.4-2.3-2.1-3.9-1.6c0-0.2-0.2-1.8-1.6-2.6c-1.2-0.7-2.7-0.6-3.9,0.2c-1.8-1.4-3.3-1.8-4.4-1.8c-1.3-0.1-1.9,0.2-4.9,0.8
	C331.6,167,331.4,166.8,330.7,167z"/>
<path d="M346,192.6c1.6-4.1,3.7-7.8,5.9-11.5c1.2-1.9,2.5-4.4,0.9-6.5c-3.6-4.6-8.4,1.3-10,4.3c-0.5,1,1,1.9,1.6,0.9
	c0.9-1.8,1.9-4.1,4.1-4.7c0.6-0.3,1.2-0.3,1.9-0.1c0.2,1.4,0.4,2.8,0.6,4.2c-0.2,0.8-1.3,2.1-1.7,2.8c-1.9,3.2-3.5,6.6-5,10.1
	C343.8,193.3,345.5,193.7,346,192.6z"/>
<path d="M326.1,200.5c-0.9-6.5-1-13.1-0.3-19.6c0.7-6,1.9-15,10.2-13.3c1.2,0.2,1.6-1.5,0.5-1.8c-6.5-1.3-10.6,3.3-11.7,9.2
	c-1.6,8.6-1.7,17.3-0.5,26C324.5,202.1,326.3,201.6,326.1,200.5z"/>
<path d="M333.7,172.5c0.7-1.6,1.4-3.2,2.7-4.4c2.2-2.1,5-1,7.3,0.2c1,0.5,1.9-1,0.9-1.6c-2.5-1.3-5.3-2.5-8-1.1
	c-2.3,1.2-3.5,3.7-4.5,6C331.7,172.7,333.3,173.6,333.7,172.5z"/>
<path d="M339.1,173c2.2-2.9,5.2-6,9.1-3.6c1,0.6,1.9-1,0.9-1.6c-4.6-2.7-8.5,0.2-11.3,3.9C337.1,172.7,338.4,173.9,339.1,173z"/>
<path d="M343.2,174.4c1.2-1.2,2.4-2.5,3.9-3.1c1.9-0.8,5.3-0.3,4.6,2.6c-0.2,1.2,1.5,1.6,1.8,0.5c0.6-2.5-1-4.8-3.5-5.2
	c-3.3-0.6-5.9,1.8-8.1,4C341.1,173.9,342.4,175.2,343.2,174.4z"/>
<path d="M343.9,191.7c-2.1,4.6,0.5,9.2,2.3,13.4c2.5,5.9,5.2,11.8,8.5,17.2c4.2,7.2,13.5,20,23.1,12.7c0.9-0.7,0-2.3-0.9-1.6
	c-9.3,7.1-17.9-7.2-21.7-13.8c-2.2-3.9-4.1-7.9-5.9-12c-1.8-4.1-5.9-10.4-3.8-15C346,191.6,344.4,190.6,343.9,191.7z"/>
<path d="M351.7,187.1c-5.3,18.2,11,32.2,17.1,47.8c0.4,1.1,2.2,0.6,1.8-0.5c-5.8-15.1-22.2-29.3-17.1-46.8
	C353.8,186.5,352,186,351.7,187.1z"/>
<path d="M324.3,200c3.1,17,10.3,33.1,20.9,46.8c5.2,6.6,11,12.9,19.2,15.6c6.9,2.2,16.5,3.4,22.9-0.8c7-4.5,8-13.7,8.3-21.3
	c0.1-1.2-1.8-1.2-1.8,0c-0.4,9.8-2.5,20.6-14.1,22c-10.7,1.3-20.6-3-27.9-10.7c-13.4-14.3-22.2-32.9-25.7-52.1
	C325.9,198.4,324.1,198.8,324.3,200z"/>
<path d="M352.9,189.5c1.9-7.8,11.3-8.3,17.1-4.9c5.9,3.5,10,9.7,13,15.7c3.1,6.3,5.3,13.1,7.5,19.8c2.5,7.7,4.4,15.7,3.1,23.7
	c-0.2,1.2,1.6,1.6,1.8,0.5c1.5-9.2-0.8-18.2-3.8-26.9c-2.7-8-5.4-16.2-10-23.3c-3.8-6.1-9.5-12.4-17.1-13.4
	c-5.8-0.8-12,2.4-13.5,8.3C350.9,190.2,352.6,190.7,352.9,189.5z"/>
<path class="st51" d="M333,166.2c4.9-1.9,9.6,0.2,10.7,0.7c-3.4,4.5-10.6,15.4-11.2,30.7c-0.9,21.9,12.1,36.4,16.8,41.5
	c5.9,6.6,13.7,15.2,23.7,14c5.6-0.7,11-4.4,13.7-9.2c2.7-4.8,2.5-10-0.7-23.5c-5-20.4-10.6-32.4-9.8-32.7c0.8-0.4,7.3,9.9,12.3,22.8
	c0.5,1.3,4.6,12.1,6,27c0.9,9.2,0.1,12.9-1.8,16.3c-2.9,5.2-7.6,7.5-9.5,8.3c-7.3,3.1-14.4,0.9-17.7-0.2c-12-4-18.3-13.7-24.8-23.5
	c-9.9-15.1-12.6-28.1-15.2-40.5c-1.8-8.6-3-18.6,1.5-26C327.8,170.4,329.6,167.6,333,166.2z"/>
<path class="st22" d="M245.3,136.7c-0.2,2.9,0.8,6.1,3,12.5c2.4,7.2,5,14.9,11.6,22.5c4.2,4.9,9.3,10.8,18,12.5
	c6.9,1.3,12.6-0.6,15.5-1.8c0.7,1.8,1.6,3.8,2.7,5.8c3,5.3,6.8,9.1,9.8,11.6c2.2-0.2,6.6-1.2,10.4-4.6c2.9-2.7,4.3-5.8,5.2-7.9
	c1-2.4,1.6-4.6,1.8-6.1c-1.8-1.1-3.8-2.6-5.8-4.6c-6.1-6.2-7.7-13.5-8.2-17.1c0.8-7,1.6-14,2.4-21c0.9,0.1,2.9,0.2,4.6-0.9
	c1.9-1.3,2.2-3.4,2.7-5.8c0.5-2.4,1-5.4-0.3-8.9c-0.6-1.5-2.5-6.4-6.7-6.7c-2.8-0.2-5.6,1.6-7.3,4.6c-3.5-3.4-11-9.4-21.6-10.4
	C264.9,108.8,246.3,123.1,245.3,136.7z"/>
<path d="M272.3,164.4c-0.5,1.3,0.9,3.1,1.9,4c2.9,2.5,7.9,2.4,11.5,0.7c5.1-2.4,6.7-7.5,7.5-9.8c0.8-2.6,1.9-5.9,0.2-8.9
	c-1.5-2.6-4.2-3.5-5.2-3.8c-1,2.1-1.8,3.7-2.4,4.7c-0.7,1.3-1,1.7-1.4,2.7c-0.6,1.3-0.7,1.8-1.5,2.9c-3.5,4.5-8.2,6.1-8.2,6.1
	C273.5,163.3,272.6,163.6,272.3,164.4z"/>
<path d="M246.3,143.9c4.8,15,10.8,32.5,26.3,39.5c6.3,2.9,13.8,3.4,20.3,0.6c7.2-3.1,11.5-10.3,14.4-17.2c3.8-9,5.5-18.9,4.9-28.7
	c-0.1-1.2-1.9-1.2-1.8,0c0.6,10.2-1.2,20.5-5.5,29.8c-4.2,9-10.8,16.3-21.4,16.2c-21.4-0.2-30-23.8-35.4-40.6
	C247.7,142.3,246,142.8,246.3,143.9z"/>
<path d="M305.5,122.6c0.1-3.6,3.8-5.8,7.2-4.8c3.1,1,5,4.1,5.7,7.1c0.6,2.9,0.4,6.3-0.5,9.1c-0.7,2.3-1.6,3.5-4.4,3.5
	c-1,0-1.9-0.4-3-0.4c-1.2,0-1.2,1.8,0,1.8c2.1,0,4.1,1,6.1-0.1c1.5-0.7,2.3-2.2,2.9-3.7c1.6-4.1,1.8-9.7-0.2-13.8
	c-1.6-3.3-5.2-6.2-9-5.8c-3.6,0.4-6.4,3.3-6.4,6.9C303.6,123.8,305.5,123.8,305.5,122.6z"/>
<path d="M309,155.9c-0.2,10,4.2,19.6,12.1,25.9c0.9,0.7,2.2-0.5,1.3-1.3c-7.5-6-11.8-14.9-11.6-24.6
	C310.9,154.7,309,154.7,309,155.9z"/>
<path d="M293.4,183.1c2.3,6.4,6.1,12,11.1,16.5c0.9,0.8,2.2-0.5,1.3-1.3c-4.9-4.3-8.4-9.6-10.7-15.7
	C294.7,181.5,293,182,293.4,183.1z"/>
<path d="M304.9,200.2c5.2,1.9,10.4-2.5,13.7-6.3c3.4-3.9,6.4-8.9,4.9-14.2c-0.3-1.2-2.1-0.7-1.8,0.5c1.2,4.6-1.5,9.1-4.5,12.5
	c-2.8,3.2-7.3,7.4-11.9,5.8C304.3,198,303.8,199.7,304.9,200.2z"/>
<path d="M253.1,137.6c-0.8-2.2,1-4.7,2.4-6.3c2-2.5,5.1-3.2,7.4-0.6c2.7,2.9,3.4,8.1,3.8,11.9c0.2,2.6-0.7,6,0.8,8.3
	c1.6,2.5,4.7,3.9,7.5,4.5c1.2,0.2,1.6-1.5,0.5-1.8c-1.5-0.3-2.9-0.8-4.2-1.6c-2.2-1.5-2.7-3-2.7-5.6c-0.1-2.2-0.1-4.4-0.5-6.7
	c-0.6-3.7-1.6-8.4-4.7-10.9c-2.5-2.1-5.7-2.1-8.2,0.1c-2.4,2.1-5.1,6-3.9,9.2C251.7,139.1,253.5,138.7,253.1,137.6z"/>
<path d="M269.9,124.4c0.4-7.3,9.6-10,13.8-4c0.7,1,2.2,0.1,1.6-0.9c-5.3-7.5-16.7-4.3-17.2,4.9C268,125.6,269.8,125.6,269.9,124.4z"
	/>
<path d="M261.6,142.4c-0.8-1.2-1.3-2.4-1.4-3.8c-0.5,0.2-0.9,0.5-1.4,0.8c1.4,0.9,2.1,2.4,2.1,4c0.4-0.3,0.8-0.6,1.2-0.9
	c-1.5-0.5-2.5-2.2-2.2-3.8c-0.4,0.2-0.9,0.4-1.3,0.5c0.7,0.4,1.3,1,1.8,1.8c0.2,0.4,0.3,0.7,0.4,1.2c0,0.3,0-0.1-0.1-0.2
	c-0.1-0.2-0.2-0.4-0.4-0.7c-0.5-1.1-2.1-0.1-1.6,0.9c0.4,0.9,1,1.8,2.1,1.8c0.9,0.1,1.7-0.5,1.8-1.5c0.2-2-1.4-4-3-4.9
	c-0.5-0.3-1.2-0.1-1.3,0.5c-0.5,2.6,1,5.2,3.5,6.1c0.6,0.2,1.2-0.3,1.2-0.9c0.1-2.3-1-4.4-3-5.6c-0.5-0.4-1.4,0.1-1.4,0.8
	c0.1,1.7,0.6,3.3,1.6,4.7C260.8,144.3,262.4,143.4,261.6,142.4z"/>
<path d="M278.6,130.7c-0.3-0.4-0.5-0.8-0.7-1.3c0-0.1-0.1-0.9,0-0.9c0.1-0.1,0.4,0.9,0.5,1c0.1,0.5,0.1,1-0.2,1.5
	c0.4-0.1,0.9-0.2,1.3-0.3c-1.5-0.9-2.2-2.4-2-4.1c-0.5,0.2-0.9,0.5-1.4,0.8c1.7,0.7,2.7,2.5,2.2,4.3c0.4-0.2,0.7-0.4,1.1-0.6
	c-0.9-0.3-1.6-1.1-1.8-2.1c0-0.1,0-0.6-0.1-0.6c-0.1,0.1-0.2,0.1-0.4,0.2c0.1,0.1,0.2,0.3,0.2,0.4c0.2,0.7,0.2,1.3,0.2,2.1
	c0.5-0.2,1-0.4,1.6-0.7c-0.5-0.4-1-0.9-1.3-1.6c-0.5-1-2.1-0.1-1.6,0.9c0.4,0.7,0.9,1.4,1.6,1.9c0.7,0.5,1.5,0.2,1.6-0.7
	c0.1-1.2,0-2.9-0.9-3.8c-0.7-0.7-2.1-0.8-2.5,0.3c-1,2.1,1.1,4.6,3,5.3c0.5,0.2,1-0.2,1.1-0.6c0.7-2.6-0.6-5.3-3.1-6.4
	c-0.7-0.3-1.3,0.1-1.4,0.8c-0.3,2.3,0.9,4.6,2.9,5.7c0.4,0.2,1,0.1,1.3-0.3c0.5-1.2,0.6-2.3,0.2-3.5c-0.4-0.9-1.2-1.9-2.2-1.8
	c-2.7,0.3-1.5,4.1-0.4,5.3C278.1,132.9,279.4,131.6,278.6,130.7z"/>
<path d="M294.5,182.9c0,0.1,0,0.1-0.1,0.1c0.4-0.2,0.7-0.4,1.1-0.6c-0.1,0-0.1-0.1-0.2-0.1c0.2,0.4,0.4,0.9,0.5,1.3
	c0.1-0.2,1.8-1,2.2-1.5c1.1-0.9,2-2.1,2.9-3.3c1.9-2.5,3.3-5.2,4.4-8.1c-0.6-0.2-1.2-0.3-1.8-0.5c-1.8,5.2-3.1,12.5-8.2,15.6
	c0.4,0.4,0.9,0.9,1.3,1.3c1.2-1.8,2.4-3.7,3.6-5.5c0.5-0.9-0.7-1.9-1.5-1.1c-1,1-2,2.1-3,3.2c0.4,0.4,0.9,0.9,1.3,1.3
	c0.9-1.1,1.8-2.2,2.5-3.4c0.6-0.9-0.7-1.9-1.5-1.1c-0.9,0.9-1.7,1.6-2.8,2.1c0.5,0.2,0.9,0.5,1.4,0.8c0-0.2-0.1-0.4-0.1-0.5
	c-0.1-1.2-1.9-1.2-1.8,0c0,0.2,0.1,0.4,0.1,0.5c0.1,0.7,0.7,1.2,1.4,0.8c1.2-0.7,2.2-1.4,3.2-2.4c-0.5-0.4-1-0.7-1.5-1.1
	c-0.7,1-1.5,2.1-2.2,3c-0.7,0.9,0.5,2.2,1.3,1.3c1-1,2-2.1,3-3.2c-0.5-0.4-1-0.7-1.5-1.1c-1.2,1.8-2.4,3.7-3.6,5.5
	c-0.5,0.8,0.5,1.7,1.3,1.3c5.6-3.4,7-10.9,9-16.7c0.4-1.2-1.3-1.5-1.8-0.5c-1.3,3.1-2.9,6.1-5.1,8.7c-1,1.2-2.7,1.9-3.6,3
	c-0.2,0.2-0.5,0.3-0.6,0.6c-0.3,0.5-0.1,1.1,0.5,1.3c0.1,0,0.1,0.1,0.2,0.1c0.5,0.2,1-0.2,1.1-0.6c0-0.1,0-0.1,0.1-0.1
	C296.7,182.3,294.9,181.8,294.5,182.9z"/>
<path d="M301.2,181.1c0.5-0.6,0.9-1.2,1.1-1.9c0.3-1.1-1.1-1.5-1.6-0.7c-1.3,1.7-2.5,3.4-3.8,5.1c-0.7,0.9,0.9,1.8,1.6,0.9
	c1.3-1.7,2.5-3.4,3.8-5.1c-0.5-0.2-1.1-0.5-1.6-0.7c-0.1,0.4-0.3,0.8-0.6,1.2C299.2,180.7,300.5,182,301.2,181.1z"/>
<path d="M273.2,166c-1.7-3.4,0.1-4.7,3.5-5.6c0.4-0.1,0.8-0.2,1.2-0.4c1.5-0.7,2.3-2.1,2.9-3.5c1-2.1,1.5-4.3,2.8-6.2
	c2.7-4.1,7.4-3.9,8.9,1c1.5,4.9-0.4,10.3-3.6,14c-1.6,1.8-3.5,3.5-5.8,4.3c-2,0.7-3.8,0.5-5.7-0.4c-1.4-0.6-3.9-1.8-4.3-3.4
	c-0.2-1.2-2-0.7-1.8,0.5c0.7,3.2,5.4,5.1,8.3,5.5c3.1,0.5,6-1,8.4-3c5.3-4.4,8.6-12.1,6-18.8c-2.7-7.2-10.1-4.6-12.9,1.2
	c-0.8,1.8-1.3,4.7-2.7,6c-1.8,1.6-4,1-5.8,2.3c-2.5,1.8-2.3,5-1,7.5C272.1,168,273.7,167.1,273.2,166z"/>
<path d="M272,164.2c9.4-0.2,14-9,16-17c0.3-1.2-1.5-1.6-1.8-0.5c-1.8,7.2-5.8,15.4-14.3,15.7C270.8,162.4,270.8,164.2,272,164.2z"/>
<linearGradient id="SVGID_00000018219114627559137590000017542861738024739498_" gradientUnits="userSpaceOnUse" x1="235.0928" y1="108.8255" x2="321.9584" y2="108.8255">
	<stop  offset="0" style="stop-color:#FF2574"/>
	<stop  offset="0.9987" style="stop-color:#FFA35A"/>
</linearGradient>
<path style="fill:url(#SVGID_00000018219114627559137590000017542861738024739498_);" d="M247,143c-1.1,0.6-7.7-6.6-10.5-16.3
	c-2.1-7-1.5-13.3-0.7-17.2c1-3.2,2.5-6.6,4.5-10c8.6-14.8,22.2-21.8,29.3-24.8c-1.5,1.4-3.2,3.2-4.7,5.5c-2.2,3-3.6,5.9-4.5,8.3
	c2.1-1.8,4.4-3.5,7-5.2c5.7-3.8,11.2-6.6,16-8.5c-0.7,3.1-1.5,6.2-2.2,9.2c1.7-1,4.1-2.4,7-3.8c3.2-1.5,9.8-4.7,10.9-3.3
	c0.3,0.4-0.1,0.9-0.6,2.7c-0.7,2.3-1,4.3-1.1,5.5c1.9-0.3,4-0.5,6.3-0.6c2.5-0.1,4.9,0,6.9,0.2c-0.7,2.8-1.5,5.5-2.2,8.3
	c1.5,0.5,3.5,1.6,5.6,3.3c5.7,4.7,7.3,11,7.8,13.5c0.9,6-0.5,10.9-1.6,13.7c-2.9-6.2-8.7-8.6-12-7.1c-2,0.9-4.3,3.8-4.1,6.8
	c0.1,0.7,0.2,1.3,0.4,1.7c-2.1-1.9-5.3-4.6-9.5-7c-4.2-2.4-8.9-5.2-15.1-6c-11.7-1.5-20.8,4.9-23.2,6.6c-3.8,2.7-9.9,7-11,13.8
	C244.6,138.1,247.9,142.5,247,143z"/>
<path class="st45" d="M293.2,116.3c1.9,4.3,4.4,10.9,5.8,19.2c1.5,8.3,3.3,18.9-1.2,30.7c-1.5,4-5.1,11.7-13.6,18.9
	c2-0.1,5.5-0.4,9.1-2.4c5.9-3.1,8.6-8.3,9.3-10.1c2.9,2.8,6.7,7.2,9.6,13.4c1.6,3.5,2.7,6.7,3.3,9.4c1.6-1.5,4.7-4.6,6.1-9.6
	c0.5-1.9,0.7-3.7,0.7-5.2c-3.5-1.9-5.8-4.3-7-5.8c-0.5-0.7-5.9-7.5-5.6-16.9c0.1-3.4,0.8-3.5,1.4-8.7c0.5-4.7,0.2-8.6,0-11.2
	c3.1,1.3,4.7,0.7,5.4,0.2c1.4-0.9,1.8-2.4,3-10.1c0.7-4.1,1-6.2,1.2-7.3c0.7-5.9,1.1-8.9,0.7-11.2c-1-6.7-5.3-11.2-6.8-12.6
	c-2.4-2.4-4.9-3.7-6.6-4.4c0.7-2.6,1.4-5.2,2.1-7.7c-3.5,4.1-6.7,6.9-8.9,8.7c-5.5,4.4-8.6,5.4-12.4,9.6c-3,3.3-4.7,6.6-5.6,8.9
	C286.6,113.5,289.9,114.9,293.2,116.3z"/>
<path class="st53" d="M268.2,75.3c-2.1,0.9-6.9,3.5-10.3,8.9c-0.9,1.3-2.7,4.7-3.3,9.4c-0.6,5.2,0.7,9.2,1.4,11.2
	c0.2-5,1.5-13.2,6.3-21.6C264.2,80.1,266.2,77.4,268.2,75.3z"/>
<path class="st46" d="M311.1,138.3c-0.2-0.1-0.5,0.6-1.9,5.2c-1.8,6.3-2.8,10.9-3.3,13.2c-0.8,3.3-2.1,8.1-4.6,13.8
	c4.3,0.9,8.6,1.7,12.9,2.5c-1.6-3.5-3.5-8.4-4.2-14.6C308.9,147.7,311.7,138.4,311.1,138.3z"/>
</svg>
