<?xml version="1.0" encoding="utf-8"?>
<!-- Generator: Adobe Illustrator 27.8.0, SVG Export Plug-In . SVG Version: 6.00 Build 0)  -->
<svg version="1.1" xmlns="http://www.w3.org/2000/svg" xmlns:xlink="http://www.w3.org/1999/xlink" x="0px" y="0px"
	 viewBox="0 0 500 324.1" style="enable-background:new 0 0 500 324.1;" xml:space="preserve">
<style type="text/css">
	.st0{fill:#6CDD6C;}
	.st1{fill:#50AA50;}
	.st2{fill:#405B91;}
	.st3{fill:#FFFFFF;}
	.st4{fill:#415B91;}
	.st5{fill-rule:evenodd;clip-rule:evenodd;fill:#FF5723;}
	.st6{fill-rule:evenodd;clip-rule:evenodd;fill:#415B91;}
	.st7{fill:#B6D0FB;}
	.st8{fill:#7A4A99;}
	.st9{fill:#FF5723;}
	.st10{fill:#FFC200;}
	.st11{fill:#3F5B91;}
</style>
<g id="BACKGROUND">
</g>
<g id="OBJECTS">
	<g>
		<g>
			<g>
				<path class="st0" d="M332.7,300.4c-0.7-2.2-2.2-4.2-4.3-4.9c-2.1-0.7-4.9,0.4-5.5,2.5c-2-1.6-5-0.3-6.6,1.7
					c-2.6,3.3-0.6,8.6-0.2,9c0.5,0.4,1.7,0.3,1.7,0.3l19.2-0.1c0,0,3.5-0.3,5.1-0.9c3.3-1.3,5.5-6.9,3.4-9.8
					c-1.4-1.9-4.3-2.3-6.5-1.6C336.7,297.4,334.5,298.8,332.7,300.4"/>
			</g>
			<g>
				<path class="st1" d="M317.5,309.7c-0.5,0-1.4-0.1-1.8-0.5c-0.8-0.6-2.7-6.4,0.1-9.9c1.1-1.5,2.9-2.5,4.5-2.6
					c0.8-0.1,1.6,0.1,2.3,0.4c0.4-0.7,1.1-1.4,1.9-1.8c1.3-0.7,2.8-0.8,4.1-0.4c1.9,0.6,3.5,2.2,4.4,4.4c1.9-1.5,3.9-2.7,5.8-3.3
					c2.3-0.7,5.5-0.5,7.3,1.8c1,1.3,1.2,3.3,0.6,5.4c-0.7,2.5-2.4,4.6-4.3,5.3c-1.7,0.7-5.2,0.9-5.3,0.9l-19.2,0.1
					C317.7,309.7,317.6,309.7,317.5,309.7z M320.7,298c-0.1,0-0.2,0-0.4,0c-1.3,0.1-2.7,1-3.6,2.2c-2.3,2.9-0.6,7.7-0.2,8.1
					c0.1,0.1,0.7,0.1,1.2,0.1l19.2-0.1c0,0,3.4-0.3,4.9-0.9c1.5-0.6,2.9-2.4,3.5-4.5c0.5-1.7,0.3-3.3-0.4-4.3c-1.3-1.8-4-2-5.8-1.4
					c-2,0.6-4.2,1.9-6.1,3.6c-0.2,0.1-0.4,0.2-0.6,0.1c-0.2-0.1-0.4-0.2-0.4-0.4c-0.7-2.2-2.1-3.9-3.9-4.4c-1-0.3-2.2-0.2-3.1,0.3
					c-0.8,0.4-1.4,1.1-1.6,1.8c-0.1,0.2-0.2,0.4-0.4,0.4c-0.2,0.1-0.4,0-0.6-0.1C321.9,298.2,321.4,298,320.7,298z"/>
			</g>
		</g>
		<g>
			<g>
				<g>
					<path class="st1" d="M312.5,299.7c-0.5,1.1-0.8,2.2-0.7,3.4c0.1,0.6,1,0.6,1,0c-0.1-1,0-2,0.5-2.9
						C313.6,299.6,312.8,299.2,312.5,299.7L312.5,299.7z"/>
				</g>
			</g>
		</g>
		<g>
			<g>
				<g>
					<path class="st1" d="M309.7,300.5c-0.3,1.1-0.3,2.1-0.1,3.2c0.1,0.6,1,0.3,0.9-0.3c-0.2-0.9-0.2-1.8,0.1-2.7
						C310.8,300.1,309.9,299.9,309.7,300.5L309.7,300.5z"/>
				</g>
			</g>
		</g>
		<g>
			<g>
				<g>
					<path class="st1" d="M315,298.5c0.6,0,0.6-1,0-1C314.4,297.6,314.4,298.5,315,298.5L315,298.5z"/>
				</g>
			</g>
		</g>
		<g>
			<g>
				<g>
					<path class="st1" d="M317.7,303.1c0,0.3,0,0.6,0,0.8c0,0.6,1,0.6,1,0c0-0.3,0-0.6,0-0.8C318.7,302.5,317.7,302.5,317.7,303.1
						L317.7,303.1z"/>
				</g>
			</g>
		</g>
		<g>
			<g>
				<g>
					<path class="st1" d="M333.8,304.6c0,0.1,0,0.3,0,0.4c0,0.6,1,0.6,1,0c0-0.1,0-0.3,0-0.4C334.7,304,333.8,304,333.8,304.6
						L333.8,304.6z"/>
				</g>
			</g>
		</g>
		<g>
			<g>
				<g>
					<path class="st1" d="M332,303.5c0.1,0.1,0.1,0.1,0.2,0.2c0.4,0.4,1.1-0.2,0.7-0.7c-0.1-0.1-0.1-0.1-0.2-0.2
						C332.3,302.4,331.6,303,332,303.5L332,303.5z"/>
				</g>
			</g>
		</g>
	</g>
	<g>
		<path class="st2" d="M62,282.5H29.8c-0.7,0-1.3-0.6-1.3-1.3c0-0.7,0.6-1.3,1.3-1.3H62c0.7,0,1.3,0.6,1.3,1.3
			C63.3,282,62.7,282.5,62,282.5z"/>
	</g>
	<g>
		<g>
			<path class="st3" d="M345.3,171h-0.9c0-0.8-0.6-1.4-1.4-1.4c-0.8,0-1.4,0.6-1.4,1.4h-0.9c0-1.3,1-2.3,2.3-2.3
				C344.2,168.7,345.3,169.7,345.3,171z"/>
		</g>
	</g>
	<g>
		<g>
			<path class="st3" d="M348.5,117.5h-0.9c0-0.8-0.6-1.4-1.4-1.4c-0.8,0-1.4,0.6-1.4,1.4h-0.9c0-1.3,1-2.3,2.3-2.3
				C347.5,115.2,348.5,116.2,348.5,117.5z"/>
		</g>
	</g>
	<g>
		<g>
			<g>
				<path class="st4" d="M234.2,303.4h-43.7l0.7-1.8c2.9-6.8,3.2-12.6,2.7-19.3l-0.1-1.3l36.9-0.1l0,1.3c0,4.3,1.2,14.1,2.9,19.6
					L234.2,303.4z M194.2,300.8h36.5c-1.4-5.3-2.4-13-2.6-17.4l-31.7,0.1C196.8,289.4,196.5,294.8,194.2,300.8z"/>
			</g>
		</g>
	</g>
	<g>
		<g>
			<g>
				<path class="st4" d="M177.9,283.4c-33.2,0-60.1-0.2-61.3-0.6c-2.8-1-6.6-4.9-6.6-7.7c-0.1-6-0.4-14.3-0.7-23.8
					c-0.9-28.8-2.2-68.1-0.5-89.9c0.3-4,3.6-7,7.5-7c0,0,0.1,0,0.1,0l191.4,0.3c4,0.1,7.3,3.3,7.4,7.4c0.1,6.4,0.4,12.9,0.6,19.5
					c0.9,27.6,1.8,56.2-1.3,83.2c-0.1,1.1-0.2,2.2-0.2,3.5c-0.3,5.7-0.6,12.7-7.9,14.2C302.8,282.9,232,283.4,177.9,283.4z
					 M116.3,156.3c-2.9,0-5.3,2.2-5.5,5.2c-1.6,21.7-0.4,61,0.5,89.7c0.3,9.5,0.6,17.8,0.7,23.9c0,1.8,3,5,5.3,5.9
					c4.1,0.8,184,0.2,188.7-0.7c5.7-1.1,6-6.8,6.2-12.3c0.1-1.3,0.1-2.5,0.2-3.6c3-26.8,2.1-55.3,1.3-82.9
					c-0.2-6.6-0.4-13.1-0.6-19.5c-0.1-3-2.4-5.4-5.4-5.4L116.3,156.3C116.4,156.3,116.3,156.3,116.3,156.3z"/>
			</g>
		</g>
	</g>
	<g>
		<g>
			<path class="st5" d="M302.4,161.1l-180.3-0.2c-3.2,0-6,2.2-6.2,5.1c-2,24.1,0.7,74.5,1.1,94.8c0,2,3.3,4.9,5.6,5.7
				c2.7,0.9,174.1,0.2,178.3-0.5c7.5-1.3,6.2-9,6.9-13.9c3.6-27.9,1.4-58.2,0.7-85.4C308.4,163.5,305.7,161.2,302.4,161.1z"/>
		</g>
	</g>
	<g>
		<g>
			<g>
				<path class="st4" d="M249.8,310.3h-75c-3,0-4.5-2.3-4.5-4.7c0-2.3,1.6-4.7,4.5-4.7h75c3,0,4.5,2.3,4.5,4.7
					C254.3,307.9,252.8,310.3,249.8,310.3z M174.8,303c-2,0-2.5,1.6-2.5,2.6c0,1,0.5,2.6,2.5,2.6h75c2,0,2.5-1.6,2.5-2.6
					c0-1-0.5-2.6-2.5-2.6H174.8z"/>
			</g>
		</g>
	</g>
	<g>
		<g>
			<g>
				<g>
					<g>
						<path class="st6" d="M122.5,273.7C122.1,273.7,122.1,273.7,122.5,273.7"/>
					</g>
				</g>
			</g>
			<g>
				<g>
					<g>
						<g>
							<path class="st4" d="M122.5,276.3c3.4,0,3.4-5.2,0-5.2C119.2,271,119.2,276.3,122.5,276.3L122.5,276.3z"/>
						</g>
					</g>
				</g>
			</g>
		</g>
		<g>
			<g>
				<g>
					<g>
						<path class="st6" d="M133.1,273.7C132.7,273.7,132.7,273.7,133.1,273.7"/>
					</g>
				</g>
			</g>
			<g>
				<g>
					<g>
						<g>
							<path class="st4" d="M133.1,276.3c3.4,0,3.4-5.2,0-5.2C129.7,271,129.7,276.3,133.1,276.3L133.1,276.3z"/>
						</g>
					</g>
				</g>
			</g>
		</g>
		<g>
			<g>
				<g>
					<g>
						<path class="st6" d="M143.7,273.7C143.2,273.7,143.2,273.7,143.7,273.7"/>
					</g>
				</g>
			</g>
			<g>
				<g>
					<g>
						<g>
							<path class="st4" d="M143.7,276.3c3.4,0,3.4-5.2,0-5.2C140.3,271,140.3,276.3,143.7,276.3L143.7,276.3z"/>
						</g>
					</g>
				</g>
			</g>
		</g>
	</g>
	<g>
		<g>
			<g>
				<g>
					<path class="st6" d="M212.3,158.3C212.1,158.3,212.1,158.3,212.3,158.3"/>
				</g>
			</g>
		</g>
		<g>
			<g>
				<g>
					<g>
						<path class="st4" d="M212.3,159.5c1.6,0,1.6-2.5,0-2.5C210.7,157.1,210.7,159.5,212.3,159.5L212.3,159.5z"/>
					</g>
				</g>
			</g>
		</g>
	</g>
	<g>
		<g>
			<polygon class="st7" points="423.9,305.3 398,305.3 408,272.7 413.9,272.7 			"/>
		</g>
		<g>
			<rect x="395.9" y="305.3" class="st7" width="30.1" height="3.7"/>
		</g>
		<g>
			<polygon class="st4" points="400.5,297.2 398,305.3 423.9,305.3 421.4,297.2 			"/>
		</g>
		<g>
			<polygon class="st4" points="403,289 418.9,289 416.4,280.8 405.5,280.8 			"/>
		</g>
	</g>
	<g id="XMLID_11_">
		<g id="XMLID_493_">
			<path class="st8" d="M434.5,308.8h5.7v-22.2h29.4v22.2h5.7v-22.2h6.1v-17.7h-4.8v-1.6h-8.4v1.6h-26.1v-1.6h-8.4v1.6h-5.3v17.7h6
				V308.8z M479.6,270.7L479.6,270.7l-3.5,14h-6.3l3.6-14H479.6z M463.1,284.8h-6.3l3.6-14h6.3L463.1,284.8z M450.2,284.8h-6.3
				l3.6-14h6.3L450.2,284.8z M434.5,270.7h6.3l-3.6,14H431L434.5,270.7z"/>
		</g>
	</g>
	<g>
		<g>
			<g>
				<path class="st1" d="M152.3,91.7L154,90c0.4-0.3,0.4-0.9,0-1.3l-1.5-1.5c-0.3-0.3-0.4-1-0.2-1.4l1.2-3c0.1-0.5,0.7-0.9,1.1-0.9
					h2.1c0.5,0,0.9-0.4,0.9-0.9v-2.4c0-0.5-0.4-0.9-0.9-0.9h-2.1c-0.5,0-1-0.4-1.1-0.9l-1.2-3c-0.2-0.4-0.1-1.1,0.2-1.4l1.5-1.5
					c0.4-0.3,0.4-0.9,0-1.3l-1.7-1.7c-0.3-0.3-0.9-0.3-1.3,0l-1.5,1.5c-0.3,0.3-1,0.4-1.4,0.2l-3-1.2c-0.5-0.1-0.9-0.7-0.9-1.1v-2.1
					c0-0.5-0.4-0.9-0.9-0.9H141c-0.5,0-0.9,0.4-0.9,0.9v2.1c0,0.5-0.4,1-0.9,1.1l-3,1.2c-0.4,0.2-1.1,0.1-1.4-0.2l-1.5-1.5
					c-0.3-0.3-0.9-0.3-1.3,0l-1.7,1.7c-0.3,0.3-0.3,0.9,0,1.3l1.5,1.5c0.3,0.3,0.4,1,0.2,1.4l-1.2,3c-0.1,0.5-0.7,0.9-1.1,0.9h-2.1
					c-0.5,0-0.9,0.4-0.9,0.9v2.4c0,0.5,0.4,0.9,0.9,0.9h2.1c0.5,0,1,0.4,1.1,0.9l1.2,3c0.2,0.4,0.1,1.1-0.2,1.4l-1.5,1.5
					c-0.3,0.3-0.3,0.9,0,1.3l1.7,1.7c0.3,0.4,0.9,0.4,1.3,0l1.5-1.5c0.3-0.3,1-0.4,1.4-0.2l3,1.2c0.5,0.1,0.9,0.7,0.9,1.1v2.1
					c0,0.5,0.4,0.9,0.9,0.9h2.4c0.5,0,0.9-0.4,0.9-0.9v-2.1c0-0.5,0.4-1,0.9-1.1l3-1.2c0.4-0.2,1.1-0.1,1.4,0.2l1.5,1.5
					C151.4,92.1,152,92.1,152.3,91.7z M142.2,87c-3.9,0-7.1-3.2-7.1-7.1c0-3.9,3.2-7.1,7.1-7.1c3.9,0,7.1,3.2,7.1,7.1
					C149.3,83.8,146.1,87,142.2,87z"/>
			</g>
		</g>
		<g>
			<g>
				<path class="st1" d="M168.8,98.4l-0.4-1.4c-0.1-0.3-0.4-0.5-0.7-0.4l-1.3,0.4c-0.3,0.1-0.7,0-0.8-0.3l-1.3-1.5
					c-0.2-0.2-0.3-0.6-0.1-0.9l0.6-1.2c0.1-0.3,0-0.6-0.2-0.7l-1.3-0.7c-0.3-0.1-0.6,0-0.7,0.2l-0.6,1.2c-0.1,0.3-0.5,0.4-0.8,0.4
					l-2-0.2c-0.3,0-0.6-0.2-0.7-0.5l-0.4-1.3c-0.1-0.3-0.4-0.5-0.7-0.4l-1.4,0.4c-0.3,0.1-0.5,0.4-0.4,0.7l0.4,1.3
					c0.1,0.3-0.1,0.7-0.3,0.8l-1.5,1.3c-0.2,0.2-0.6,0.3-0.9,0.1l-1.2-0.6c-0.3-0.1-0.6,0-0.7,0.2l-0.7,1.3c-0.1,0.3,0,0.6,0.2,0.7
					l1.2,0.6c0.3,0.1,0.4,0.5,0.4,0.8l-0.2,2c0,0.3-0.2,0.6-0.5,0.7l-1.3,0.4c-0.3,0.1-0.5,0.4-0.4,0.7l0.4,1.4
					c0.1,0.3,0.4,0.5,0.7,0.4l1.3-0.4c0.3-0.1,0.7,0.1,0.8,0.3l1.3,1.5c0.2,0.2,0.3,0.6,0.1,0.9l-0.6,1.2c-0.1,0.3,0,0.6,0.2,0.7
					l1.3,0.7c0.3,0.1,0.6,0,0.7-0.2l0.6-1.2c0.1-0.3,0.5-0.4,0.8-0.4l2,0.2c0.3,0,0.6,0.2,0.7,0.5l0.4,1.3c0.1,0.3,0.4,0.5,0.7,0.4
					l1.4-0.4c0.3-0.1,0.5-0.4,0.4-0.7l-0.4-1.3c-0.1-0.3,0-0.7,0.3-0.8l1.5-1.3c0.2-0.2,0.6-0.3,0.9-0.1l1.2,0.6
					c0.3,0.1,0.6,0,0.7-0.2l0.7-1.3c0.1-0.3,0-0.6-0.2-0.7l-1.2-0.6c-0.3-0.1-0.4-0.5-0.4-0.8l0.2-2c0-0.3,0.2-0.6,0.5-0.7l1.3-0.4
					C168.7,99,168.8,98.7,168.8,98.4z M163.2,102.6c-1.1,2.1-3.8,3-6,1.8c-2.1-1.1-3-3.8-1.8-6c1.1-2.2,3.8-3,6-1.8
					C163.6,97.8,164.4,100.4,163.2,102.6z"/>
			</g>
		</g>
	</g>
	<g>
		<path class="st9" d="M240.7,126.3h-39.8c-0.7,0-1.3-0.6-1.3-1.3c0-0.7,0.6-1.3,1.3-1.3h39.8c0.7,0,1.3,0.6,1.3,1.3
			C242,125.7,241.4,126.3,240.7,126.3z"/>
	</g>
	<g>
		<path class="st9" d="M159.6,144.4H95.3c-0.7,0-1.3-0.6-1.3-1.3s0.6-1.3,1.3-1.3h64.3c0.7,0,1.3,0.6,1.3,1.3
			S160.3,144.4,159.6,144.4z"/>
	</g>
	<g>
		<path class="st2" d="M468.1,178.6h-64.3c-0.7,0-1.3-0.6-1.3-1.3c0-0.7,0.6-1.3,1.3-1.3h64.3c0.7,0,1.3,0.6,1.3,1.3
			C469.4,178,468.8,178.6,468.1,178.6z"/>
	</g>
	<g>
		<path class="st2" d="M493.4,311.6H6.6c-0.7,0-1.3-0.6-1.3-1.3c0-0.7,0.6-1.3,1.3-1.3h486.8c0.7,0,1.3,0.6,1.3,1.3
			C494.6,311,494.1,311.6,493.4,311.6z"/>
	</g>
	<g>
		<g>
			<g>
				<path class="st7" d="M314.8,110.3c-2.7,0-5.3,1.1-7.2,3c-3.3,3.3-3.9,8.4-1.6,12.4l0.2,0.3l-10.3,10.3c0,0-0.5,0.5-0.5,1.2
					c0,0.5,0.3,1,0.8,1.6c0.6,0.6,1.1,0.8,1.7,0.8c0.7,0,1.2-0.4,1.2-0.4l10.3-10.3l0.3,0.2c1.6,0.9,3.4,1.4,5.2,1.4
					c2.7,0,5.3-1.1,7.2-3c4-4,4-10.5,0-14.5C320.1,111.4,317.6,110.3,314.8,110.3z M314.8,127.8c-4,0-7.2-3.2-7.2-7.2
					c0-4,3.2-7.2,7.2-7.2l0,0c4,0,7.2,3.2,7.2,7.2C322,124.5,318.8,127.8,314.8,127.8z"/>
			</g>
		</g>
		<g>
			<g>
				<path class="st7" d="M311,122.1h7.4v-1.9H311V122.1z"/>
			</g>
		</g>
	</g>
	<g>
		<g>
			<path class="st2" d="M125.1,309.2c-0.7,0-1.3-0.6-1.3-1.3v-97.6c0-0.7,0.6-1.3,1.3-1.3c0.7,0,1.3,0.6,1.3,1.3v97.6
				C126.3,308.6,125.8,309.2,125.1,309.2z"/>
		</g>
		<g>
			<path class="st2" d="M147.7,309.2c-0.7,0-1.3-0.6-1.3-1.3v-97.6c0-0.7,0.6-1.3,1.3-1.3c0.7,0,1.3,0.6,1.3,1.3v97.6
				C149,308.6,148.4,309.2,147.7,309.2z"/>
		</g>
		<g>
			<path class="st2" d="M147.7,218.3h-22.7c-0.7,0-1.3-0.6-1.3-1.3s0.6-1.3,1.3-1.3h22.7c0.7,0,1.3,0.6,1.3,1.3
				S148.4,218.3,147.7,218.3z"/>
		</g>
		<g>
			<path class="st2" d="M147.7,229.4h-22.7c-0.7,0-1.3-0.6-1.3-1.3s0.6-1.3,1.3-1.3h22.7c0.7,0,1.3,0.6,1.3,1.3
				S148.4,229.4,147.7,229.4z"/>
		</g>
		<g>
			<path class="st2" d="M147.7,240.6h-22.7c-0.7,0-1.3-0.6-1.3-1.3c0-0.7,0.6-1.3,1.3-1.3h22.7c0.7,0,1.3,0.6,1.3,1.3
				C149,240,148.4,240.6,147.7,240.6z"/>
		</g>
		<g>
			<path class="st2" d="M147.7,251.7h-22.7c-0.7,0-1.3-0.6-1.3-1.3c0-0.7,0.6-1.3,1.3-1.3h22.7c0.7,0,1.3,0.6,1.3,1.3
				C149,251.2,148.4,251.7,147.7,251.7z"/>
		</g>
		<g>
			<path class="st2" d="M147.7,262.9h-22.7c-0.7,0-1.3-0.6-1.3-1.3c0-0.7,0.6-1.3,1.3-1.3h22.7c0.7,0,1.3,0.6,1.3,1.3
				C149,262.3,148.4,262.9,147.7,262.9z"/>
		</g>
		<g>
			<path class="st2" d="M147.7,274h-22.7c-0.7,0-1.3-0.6-1.3-1.3c0-0.7,0.6-1.3,1.3-1.3h22.7c0.7,0,1.3,0.6,1.3,1.3
				C149,273.5,148.4,274,147.7,274z"/>
		</g>
		<g>
			<path class="st2" d="M147.7,285.2h-22.7c-0.7,0-1.3-0.6-1.3-1.3c0-0.7,0.6-1.3,1.3-1.3h22.7c0.7,0,1.3,0.6,1.3,1.3
				C149,284.6,148.4,285.2,147.7,285.2z"/>
		</g>
		<g>
			<path class="st2" d="M147.7,296.3h-22.7c-0.7,0-1.3-0.6-1.3-1.3c0-0.7,0.6-1.3,1.3-1.3h22.7c0.7,0,1.3,0.6,1.3,1.3
				C149,295.8,148.4,296.3,147.7,296.3z"/>
		</g>
	</g>
	<g>
		<g>
			<path class="st2" d="M94.2,215.1c-0.7,0-1.3-0.6-1.3-1.3v-4.9c0-0.7,0.6-1.3,1.3-1.3c0.7,0,1.3,0.6,1.3,1.3v4.9
				C95.4,214.5,94.9,215.1,94.2,215.1z"/>
		</g>
		<g>
			<path class="st2" d="M96.6,212.6h-4.9c-0.7,0-1.3-0.6-1.3-1.3s0.6-1.3,1.3-1.3h4.9c0.7,0,1.3,0.6,1.3,1.3S97.3,212.6,96.6,212.6z
				"/>
		</g>
	</g>
	<g>
		<g>
			<path class="st2" d="M208.1,38.6c-0.7,0-1.3-0.6-1.3-1.3v-4.9c0-0.7,0.6-1.3,1.3-1.3c0.7,0,1.3,0.6,1.3,1.3v4.9
				C209.4,38.1,208.8,38.6,208.1,38.6z"/>
		</g>
		<g>
			<path class="st2" d="M210.6,36.2h-4.9c-0.7,0-1.3-0.6-1.3-1.3s0.6-1.3,1.3-1.3h4.9c0.7,0,1.3,0.6,1.3,1.3S211.3,36.2,210.6,36.2z
				"/>
		</g>
	</g>
	<g>
		<g>
			<path class="st2" d="M248.1,294.1c-0.1,0-0.2,0-0.3,0l-4.7-1.4c-0.7-0.2-1.1-0.9-0.9-1.6c0.2-0.7,0.9-1.1,1.6-0.9l4.7,1.4
				c0.7,0.2,1.1,0.9,0.9,1.6C249.1,293.7,248.6,294.1,248.1,294.1z"/>
		</g>
		<g>
			<path class="st2" d="M245,295.7c-0.1,0-0.2,0-0.3,0c-0.7-0.2-1.1-0.9-0.9-1.6l1.4-4.7c0.2-0.7,0.9-1.1,1.6-0.9
				c0.7,0.2,1.1,0.9,0.9,1.6l-1.4,4.7C246.1,295.4,245.6,295.7,245,295.7z"/>
		</g>
	</g>
	<g>
		<g>
			<path class="st2" d="M223.2,145c-0.1,0-0.2,0-0.3,0l-4.7-1.4c-0.7-0.2-1.1-0.9-0.9-1.6c0.2-0.7,0.9-1.1,1.6-0.9l4.7,1.4
				c0.7,0.2,1.1,0.9,0.9,1.6C224.2,144.7,223.7,145,223.2,145z"/>
		</g>
		<g>
			<path class="st2" d="M220.1,146.7c-0.1,0-0.2,0-0.3,0c-0.7-0.2-1.1-0.9-0.9-1.6l1.4-4.7c0.2-0.7,0.9-1.1,1.6-0.9
				c0.7,0.2,1.1,0.9,0.9,1.6l-1.4,4.7C221.2,146.4,220.7,146.7,220.1,146.7z"/>
		</g>
	</g>
	<g>
		<g>
			<g>
				
					<ellipse transform="matrix(0.7071 -0.7071 0.7071 0.7071 -5.1475 184.2486)" class="st7" cx="219.8" cy="98.3" rx="17.6" ry="17.6"/>
			</g>
		</g>
		<g>
			<g>
				<g>
					<circle class="st3" cx="219.8" cy="98.3" r="13.2"/>
				</g>
			</g>
			<g>
				<g>
					<g>
						<path class="st2" d="M219.8,112c-7.6,0-13.7-6.1-13.7-13.7s6.1-13.7,13.7-13.7c7.6,0,13.7,6.1,13.7,13.7S227.4,112,219.8,112z
							 M219.8,85.7c-7,0-12.7,5.7-12.7,12.7s5.7,12.7,12.7,12.7c7,0,12.7-5.7,12.7-12.7S226.8,85.7,219.8,85.7z"/>
					</g>
				</g>
			</g>
		</g>
		<g>
			<g>
				<g>
					<path class="st2" d="M219.8,98.8c-0.3,0-0.5-0.2-0.5-0.5v-6.7c0-0.3,0.2-0.5,0.5-0.5c0.3,0,0.5,0.2,0.5,0.5v6.7
						C220.3,98.6,220.1,98.8,219.8,98.8z"/>
				</g>
			</g>
			<g>
				<g>
					<path class="st2" d="M227.7,98.8h-7.9c-0.3,0-0.5-0.2-0.5-0.5c0-0.3,0.2-0.5,0.5-0.5h7.9c0.3,0,0.5,0.2,0.5,0.5
						C228.2,98.6,228,98.8,227.7,98.8z"/>
				</g>
			</g>
		</g>
		<g>
			<g>
				<g>
					<path class="st2" d="M220.4,86.6c0,0.3-0.2,0.5-0.5,0.5s-0.5-0.2-0.5-0.5c0-0.3,0.2-0.5,0.5-0.5S220.4,86.4,220.4,86.6z"/>
				</g>
			</g>
			<g>
				<g>
					<path class="st2" d="M228.5,90.4c-0.2,0.2-0.5,0.2-0.7,0c-0.2-0.2-0.2-0.5,0-0.7c0.2-0.2,0.5-0.2,0.7,0
						C228.7,89.9,228.7,90.2,228.5,90.4z"/>
				</g>
			</g>
			<g>
				<g>
					<path class="st2" d="M231.5,98.9c-0.3,0-0.5-0.2-0.5-0.5c0-0.3,0.2-0.5,0.5-0.5c0.3,0,0.5,0.2,0.5,0.5
						C232.1,98.6,231.8,98.9,231.5,98.9z"/>
				</g>
			</g>
			<g>
				<g>
					<path class="st2" d="M227.7,107c-0.2-0.2-0.2-0.5,0-0.7c0.2-0.2,0.5-0.2,0.7,0c0.2,0.2,0.2,0.5,0,0.7
						C228.3,107.2,227.9,107.2,227.7,107z"/>
				</g>
			</g>
			<g>
				<g>
					<path class="st2" d="M219.3,110c0-0.3,0.2-0.5,0.5-0.5s0.5,0.2,0.5,0.5s-0.2,0.5-0.5,0.5S219.3,110.3,219.3,110z"/>
				</g>
			</g>
			<g>
				<g>
					<path class="st2" d="M211.2,106.2c0.2-0.2,0.5-0.2,0.7,0c0.2,0.2,0.2,0.5,0,0.7c-0.2,0.2-0.5,0.2-0.7,0
						C211,106.8,211,106.4,211.2,106.2z"/>
				</g>
			</g>
			<g>
				<g>
					<circle class="st2" cx="208.1" cy="98.3" r="0.5"/>
				</g>
			</g>
			<g>
				<g>
					<path class="st2" d="M211.9,89.7c0.2,0.2,0.2,0.5,0,0.7c-0.2,0.2-0.5,0.2-0.7,0s-0.2-0.5,0-0.7S211.7,89.5,211.9,89.7z"/>
				</g>
			</g>
		</g>
		<g>
			<g>
				<g>
					<path class="st2" d="M245.6,91.6h-7.4c-0.3,0-0.5-0.2-0.5-0.5c0-0.3,0.2-0.5,0.5-0.5h7.4c0.3,0,0.5,0.2,0.5,0.5
						C246.1,91.4,245.9,91.6,245.6,91.6z"/>
				</g>
			</g>
			<g>
				<g>
					<path class="st2" d="M245.6,106.1h-7.4c-0.3,0-0.5-0.2-0.5-0.5s0.2-0.5,0.5-0.5h7.4c0.3,0,0.5,0.2,0.5,0.5
						S245.9,106.1,245.6,106.1z"/>
				</g>
			</g>
			<g>
				<g>
					<path class="st2" d="M254.8,98.9H241c-0.3,0-0.5-0.2-0.5-0.5c0-0.3,0.2-0.5,0.5-0.5h13.8c0.3,0,0.5,0.2,0.5,0.5
						C255.3,98.6,255.1,98.9,254.8,98.9z"/>
				</g>
			</g>
		</g>
	</g>
	<g>
		<g>
			<rect x="270.7" y="289" class="st3" width="8.2" height="8.2"/>
			<path class="st4" d="M279.5,297.8h-9.4v-9.4h9.4V297.8z M271.3,296.5h6.9v-6.9h-6.9V296.5z"/>
		</g>
		<g>
			<g>
				<g>
					<path class="st2" d="M289.2,290.8h-7.4c-0.3,0-0.5-0.2-0.5-0.5c0-0.3,0.2-0.5,0.5-0.5h7.4c0.3,0,0.5,0.2,0.5,0.5
						C289.7,290.6,289.5,290.8,289.2,290.8z"/>
				</g>
			</g>
			<g>
				<g>
					<path class="st2" d="M292,296.4h-10c-0.4,0-0.7-0.2-0.7-0.5s0.3-0.5,0.7-0.5h10c0.4,0,0.7,0.2,0.7,0.5S292.4,296.4,292,296.4z"
						/>
				</g>
			</g>
			<g>
				<g>
					<path class="st2" d="M295.6,293.4h-13.8c-0.3,0-0.5-0.2-0.5-0.5c0-0.3,0.2-0.5,0.5-0.5h13.8c0.3,0,0.5,0.2,0.5,0.5
						C296.1,293.2,295.9,293.4,295.6,293.4z"/>
				</g>
			</g>
		</g>
	</g>
	<g>
		<g>
			
				<rect x="91.4" y="169.2" transform="matrix(-1 -1.224647e-16 1.224647e-16 -1 191.0203 346.5332)" class="st10" width="8.2" height="8.2"/>
			<path class="st10" d="M100.2,178h-9.4v-9.4h9.4V178z M92.1,176.7H99v-6.9h-6.9V176.7z"/>
		</g>
		<g>
			<g>
				<g>
					<path class="st10" d="M81.1,171h7.4c0.3,0,0.5-0.2,0.5-0.5c0-0.3-0.2-0.5-0.5-0.5h-7.4c-0.3,0-0.5,0.2-0.5,0.5
						C80.6,170.8,80.8,171,81.1,171z"/>
				</g>
			</g>
			<g>
				<g>
					<path class="st10" d="M78.3,176.6h10c0.4,0,0.7-0.2,0.7-0.5c0-0.3-0.3-0.5-0.7-0.5h-10c-0.4,0-0.7,0.2-0.7,0.5
						C77.6,176.3,77.9,176.6,78.3,176.6z"/>
				</g>
			</g>
			<g>
				<g>
					<path class="st10" d="M74.7,173.6h13.8c0.3,0,0.5-0.2,0.5-0.5c0-0.3-0.2-0.5-0.5-0.5H74.7c-0.3,0-0.5,0.2-0.5,0.5
						C74.2,173.4,74.4,173.6,74.7,173.6z"/>
				</g>
			</g>
		</g>
	</g>
	<g>
		<rect x="340.4" y="199.9" class="st11" width="2.5" height="109"/>
	</g>
	<g>
		<path class="st10" d="M343.3,213H340c-3.4,0-6.2-2.8-6.2-6.2v-12.8c0-3.4,2.8-6.2,6.2-6.2h3.3c3.4,0,6.2,2.8,6.2,6.2v12.8
			C349.5,210.3,346.7,213,343.3,213z"/>
	</g>
	<g>
		<g>
			<path class="st10" d="M351.9,205.8c0.9,0.1,1.8,0.3,2.7,0.4c0.6,0.1,0.9-0.8,0.3-0.9c-0.9-0.1-1.8-0.3-2.7-0.4
				C351.5,204.7,351.3,205.7,351.9,205.8L351.9,205.8z"/>
		</g>
	</g>
	<g>
		<g>
			<path class="st10" d="M351.8,199.9c0.7-0.1,1.4-0.1,2.1-0.1c0.6,0.1,0.6-0.9,0-1c-0.8-0.1-1.6,0-2.4,0.1
				C350.9,199.1,351.2,200.1,351.8,199.9L351.8,199.9z"/>
		</g>
	</g>
	<g>
		<g>
			<path class="st10" d="M351.5,194.7c0.7-0.3,1.4-0.5,2.1-0.8c0.6-0.2,0.3-1.1-0.3-0.9c-0.7,0.3-1.4,0.5-2.1,0.8
				C350.7,194,350.9,194.9,351.5,194.7L351.5,194.7z"/>
		</g>
	</g>
	<g>
		<g>
			<path class="st10" d="M328.2,206.6c0.7-0.1,1.4-0.3,2.1-0.5c0.6-0.2,0.3-1.1-0.3-0.9c-0.7,0.2-1.3,0.4-2.1,0.5
				C327.4,205.8,327.6,206.7,328.2,206.6L328.2,206.6z"/>
		</g>
	</g>
	<g>
		<g>
			<path class="st10" d="M327,199.9c0.9,0,1.7,0.2,2.6,0.4c0.6,0.2,0.8-0.8,0.3-0.9c-0.9-0.3-1.9-0.4-2.8-0.4
				C326.4,198.9,326.4,199.9,327,199.9L327,199.9z"/>
		</g>
	</g>
	<g>
		<g>
			<path class="st10" d="M327.8,192.1c0.7,0.2,1.4,0.4,2.1,0.7c0.6,0.2,0.8-0.7,0.3-0.9c-0.7-0.2-1.4-0.4-2.1-0.7
				C327.5,191,327.2,191.9,327.8,192.1L327.8,192.1z"/>
		</g>
	</g>
	<g>
		<polygon class="st2" points="335.8,310.3 337.5,295.7 345.7,295.7 347.6,310.1 		"/>
	</g>
	<g>
		<g>
			<g>
				<g>
					<path class="st0" d="M103.2,240.6c-0.4-2.3-2-8.3-5.6-6.4c-5.8,3.1,1.2,14.7-5.8,16.7c-0.4-4.6-1.4-7.8-3.5-7.6
						c-4.3,0.4-3.2,10.4-3.2,12.7c-0.1,2.2-0.2,4.6-0.3,6.9c-5.1,0.9-4.1-12.3-7.2-14.2c-4.8-2.8-5.8,3.5-5.7,6.4
						c0.2,5,1.6,11,6.3,13.6c1.5,0.9,4.3,1.9,6.4,1.7c0,4,0.1,8,0.8,11.7c0,0,0.1,0,0.1,0c0,0,0,0,0,0l2.8,0.2c0,0,0,0,0,0.1
						c0,1.3,1.9,1.3,1.9,0c0-2.4,1.5-14.2,1.7-24.2c2.3,0.3,5.1-0.7,6.8-1.9C103.5,252.6,104.1,246.1,103.2,240.6z"/>
				</g>
				<g>
					<path class="st1" d="M89.3,283.8c-0.3,0-0.6-0.1-0.8-0.2c-0.3-0.2-0.5-0.5-0.6-0.8l-2.1-0.1l-0.8,0l-0.1-0.5
						C84.3,279,84,275.4,84,271c-2.3,0-4.9-1.1-6.1-1.8c-5-2.8-6.3-9.2-6.5-14.1c-0.1-2,0.3-6,2.5-7.3c1.1-0.7,2.5-0.5,4,0.4
						c1.5,0.9,2.1,3.6,2.7,6.8c0.9,4.3,1.7,7.3,3.6,7.4l0-1c0.1-1.8,0.2-3.6,0.2-5.4c0-0.3,0-0.9,0-1.5c-0.1-4-0.4-11.3,3.8-11.7
						c0.6-0.1,1.2,0.1,1.7,0.6c1.2,1,1.9,3.2,2.3,6.9c2.6-1.2,2.5-4.2,2.3-7.7c-0.2-3.5-0.3-7.2,2.8-8.8c1-0.5,2-0.6,2.8-0.1
						c2.6,1.3,3.5,6.3,3.6,6.9l0,0c0.7,4.2,1,11.9-4.7,16.1c-1.6,1.2-4.3,2.2-6.6,2.1c-0.1,6.5-0.8,13.7-1.3,18.6
						c-0.2,2.4-0.4,4.3-0.4,5.1c0,0.6-0.3,1-0.7,1.3C89.8,283.8,89.5,283.8,89.3,283.8z M85.8,281.6l3,0.2l0,0.5
						c0,0.3,0.1,0.3,0.2,0.4c0.1,0.1,0.4,0.1,0.5,0c0.1-0.1,0.2-0.2,0.2-0.3c0-0.8,0.2-2.7,0.4-5.2c0.5-4.9,1.2-12.4,1.3-19.1l0-0.6
						l0.6,0.1c2.1,0.3,4.8-0.7,6.4-1.8c5.2-3.9,5-11.1,4.3-15.1l0,0c-0.3-1.7-1.3-5.3-3-6.1c-0.6-0.3-1.2-0.2-1.9,0.1
						c-2.5,1.3-2.3,4.4-2.2,7.8c0.2,3.7,0.3,7.8-3.7,9l-0.6,0.2l-0.1-0.7c-0.4-4.6-1.3-6.3-1.9-6.8c-0.3-0.2-0.6-0.3-0.9-0.3
						c-3.1,0.3-2.9,7.2-2.8,10.6c0,0.7,0,1.2,0,1.6c-0.1,1.8-0.1,3.6-0.2,5.4l-0.1,1.9l-0.4,0.1c-3.5,0.6-4.5-4.1-5.3-8.2
						c-0.6-2.7-1.1-5.4-2.2-6c-1.2-0.7-2.1-0.8-2.9-0.4c-1.6,1-2.1,4.4-2,6.3c0.2,4.6,1.4,10.6,6,13.2c1.6,0.9,4.2,1.8,6.1,1.6
						l0.6,0l0,0.6C85.1,274.9,85.3,278.4,85.8,281.6z"/>
				</g>
			</g>
			<g>
				<g>
					<g>
						<path class="st4" d="M97.6,309.1H77c-1.1,0-2-0.7-2.2-1.8l-4.7-24l1.9-0.4l4.7,24c0,0.2,0.2,0.2,0.2,0.2h20.6
							c0.1,0,0.2,0,0.2-0.2l4.6-24l1.9,0.4l-4.6,24C99.6,308.4,98.7,309.1,97.6,309.1z"/>
					</g>
				</g>
			</g>
			<g>
				<g>
					<g>
						<path class="st7" d="M70.3,275.5h34.2c0.6,0,1.1,0.6,1.1,1.4v5.2c0,0.8-0.5,1.4-1.1,1.4H70.3c-0.6,0-1.1-0.6-1.1-1.4v-5.2
							C69.3,276.1,69.8,275.5,70.3,275.5z"/>
					</g>
					<g>
						<path class="st2" d="M104.6,284.1H70.3c-0.9,0-1.6-0.9-1.6-2v-5.2c0-1.1,0.7-2,1.6-2h34.2c0.9,0,1.6,0.9,1.6,2v5.2
							C106.2,283.2,105.5,284.1,104.6,284.1z M70.3,276c-0.2,0-0.5,0.4-0.5,0.9v5.2c0,0.5,0.3,0.9,0.5,0.9h34.2
							c0.2,0,0.5-0.4,0.5-0.9v-5.2c0-0.5-0.3-0.9-0.5-0.9H70.3z"/>
					</g>
				</g>
				<g>
					<g>
						<path class="st7" d="M104.6,284H70.3c-0.8,0-1.5-0.8-1.5-1.9v-5.2c0-1,0.7-1.9,1.5-1.9h34.2c0.8,0,1.5,0.8,1.5,1.9v5.2
							C106.1,283.2,105.4,284,104.6,284z M70.3,276c-0.3,0-0.6,0.4-0.6,1v5.2c0,0.6,0.3,1,0.6,1h34.2c0.3,0,0.6-0.4,0.6-1v-5.2
							c0-0.6-0.3-1-0.6-1H70.3z"/>
					</g>
					<g>
						<path class="st2" d="M104.6,284.6H70.3c-1.1,0-2.1-1.1-2.1-2.4v-5.2c0-1.3,0.9-2.4,2.1-2.4h34.2c1.1,0,2.1,1.1,2.1,2.4v5.2
							C106.6,283.5,105.7,284.6,104.6,284.6z M70.4,276.5c0,0.1-0.1,0.2-0.1,0.4v5.2c0,0.3,0.1,0.4,0.2,0.5l34.2,0
							c0,0,0.1-0.2,0.1-0.4v-5.2c0-0.3-0.1-0.4-0.2-0.5L70.4,276.5z"/>
					</g>
				</g>
			</g>
		</g>
		<g>
			<g>
				<path class="st1" d="M74.1,255.1c0.6,0.1,1.1,0.1,1.7,0.2c0.6,0.1,0.6-0.9,0-1c-0.6-0.1-1.1-0.1-1.7-0.2
					C73.5,254,73.5,255,74.1,255.1L74.1,255.1z"/>
			</g>
		</g>
		<g>
			<g>
				<path class="st1" d="M76.6,247.6c0,0.3,0,0.6,0,0.8c0,0.6,1,0.6,1,0c0-0.3,0-0.6,0-0.8C77.5,247,76.6,247,76.6,247.6L76.6,247.6
					z"/>
			</g>
		</g>
		<g>
			<g>
				<path class="st1" d="M79.9,256.3c0.4-0.2,0.8-0.5,1.2-0.7c0.5-0.3,0.1-1.1-0.5-0.8c-0.4,0.2-0.8,0.5-1.2,0.7
					C78.8,255.8,79.3,256.6,79.9,256.3L79.9,256.3z"/>
			</g>
		</g>
		<g>
			<g>
				<path class="st1" d="M75,267.2c0.5-0.3,1-0.7,1.5-1c0.5-0.3,0-1.2-0.5-0.8c-0.5,0.3-1,0.7-1.5,1C74,266.8,74.5,267.6,75,267.2
					L75,267.2z"/>
			</g>
		</g>
		<g>
			<g>
				<path class="st1" d="M71.4,259.1c0.4,0.1,0.7,0.3,1.1,0.4c0.6,0.2,0.8-0.7,0.3-0.9c-0.4-0.1-0.7-0.3-1.1-0.4
					C71.1,257.9,70.8,258.8,71.4,259.1L71.4,259.1z"/>
			</g>
		</g>
		<g>
			<g>
				<path class="st1" d="M78.3,263.5c0.2,0,0.4,0.1,0.5,0.3c0.4,0.5,1.1-0.2,0.7-0.7c-0.3-0.4-0.7-0.5-1.2-0.6
					C77.7,262.5,77.7,263.4,78.3,263.5L78.3,263.5z"/>
			</g>
		</g>
		<g>
			<g>
				<path class="st1" d="M80.4,267.9c-0.1,0.7,0,1.2,0.2,1.9c0.2,0.6,1.1,0.1,0.8-0.5c-0.2-0.4-0.2-0.7-0.1-1.1
					C81.4,267.6,80.5,267.3,80.4,267.9L80.4,267.9z"/>
			</g>
		</g>
		<g>
			<g>
				<path class="st1" d="M85.4,268.1c0.3,0.1,0.6,0.1,0.8,0.2c0.6,0.2,0.8-0.8,0.3-0.9c-0.3-0.1-0.6-0.1-0.8-0.2
					C85,267.1,84.8,268,85.4,268.1L85.4,268.1z"/>
			</g>
		</g>
		<g>
			<g>
				<path class="st1" d="M88.4,258.8c0,0.5,0.2,1,0.6,1.4c0.5,0.4,1.1-0.3,0.7-0.7c-0.2-0.2-0.3-0.4-0.3-0.7
					C89.4,258.2,88.4,258.2,88.4,258.8L88.4,258.8z"/>
			</g>
		</g>
		<g>
			<g>
				<path class="st1" d="M87.2,252c-0.3,0.4-0.3,0.8-0.2,1.2c0.1,0.6,1,0.3,0.9-0.3c0-0.2,0-0.4,0.1-0.5
					C88.4,252,87.5,251.5,87.2,252L87.2,252z"/>
			</g>
		</g>
		<g>
			<g>
				<path class="st1" d="M92.4,254.8c0,0.3,0,0.6,0,0.8c0,0.6,1,0.6,1,0c0-0.3,0-0.6,0-0.8C93.4,254.2,92.4,254.2,92.4,254.8
					L92.4,254.8z"/>
			</g>
		</g>
		<g>
			<g>
				<path class="st1" d="M83.6,253.3c0.2,0.1,0.4,0.3,0.6,0.4c0.5,0.3,1-0.5,0.5-0.8c-0.2-0.1-0.4-0.3-0.6-0.4
					C83.5,252.1,83.1,252.9,83.6,253.3L83.6,253.3z"/>
			</g>
		</g>
		<g>
			<g>
				<path class="st1" d="M85.1,245.4c0.2,0.2,0.3,0.4,0.3,0.7c0,0.6,1,0.6,1,0c0-0.5-0.2-1-0.6-1.4
					C85.4,244.3,84.8,244.9,85.1,245.4L85.1,245.4z"/>
			</g>
		</g>
		<g>
			<g>
				<path class="st1" d="M87.5,242.5c0,0.4,0,0.8,0,1.3c0,0.6,1,0.6,1,0c0-0.4,0-0.8,0-1.3C88.5,241.9,87.5,241.9,87.5,242.5
					L87.5,242.5z"/>
			</g>
		</g>
		<g>
			<g>
				<path class="st1" d="M93.4,248.1c0.1,0.1,0.3,0.3,0.4,0.4c0.4,0.4,1.1-0.2,0.7-0.7c-0.1-0.1-0.3-0.3-0.4-0.4
					C93.7,247,93,247.7,93.4,248.1L93.4,248.1z"/>
			</g>
		</g>
		<g>
			<g>
				<path class="st1" d="M94.4,242.4c0.4,0,0.8,0,1.3,0.1c0.6,0,0.6-0.9,0-1c-0.4,0-0.8,0-1.3-0.1C93.8,241.5,93.8,242.4,94.4,242.4
					L94.4,242.4z"/>
			</g>
		</g>
		<g>
			<g>
				<path class="st1" d="M95.7,234.8c0.3,0.3,0.6,0.6,0.8,0.8c0.4,0.4,1.1-0.2,0.7-0.7c-0.3-0.3-0.6-0.6-0.8-0.8
					C96,233.7,95.3,234.4,95.7,234.8L95.7,234.8z"/>
			</g>
		</g>
		<g>
			<g>
				<path class="st1" d="M99.4,232.4c0,0.5,0,1,0,1.5c0,0.6,1,0.6,1,0c0-0.5,0-1,0-1.5C100.3,231.8,99.4,231.8,99.4,232.4
					L99.4,232.4z"/>
			</g>
		</g>
		<g>
			<g>
				<path class="st1" d="M101.1,241.3c0.1-0.2,0.3-0.4,0.4-0.6c0.3-0.5-0.5-1-0.8-0.5c-0.1,0.2-0.3,0.4-0.4,0.6
					C99.9,241.3,100.8,241.8,101.1,241.3L101.1,241.3z"/>
			</g>
		</g>
		<g>
			<g>
				<path class="st1" d="M97.9,250.6c0.4-0.1,0.7-0.3,1.1-0.4c0.6-0.2,0.3-1.1-0.3-0.9c-0.4,0.1-0.7,0.3-1.1,0.4
					C97.1,249.9,97.3,250.8,97.9,250.6L97.9,250.6z"/>
			</g>
		</g>
		<g>
			<g>
				<path class="st1" d="M102.1,249.3c0.4-0.1,0.7-0.1,1.1-0.2c0.6-0.1,0.3-1-0.3-0.9c-0.4,0.1-0.7,0.1-1.1,0.2
					C101.2,248.5,101.5,249.4,102.1,249.3L102.1,249.3z"/>
			</g>
		</g>
		<g>
			<g>
				<path class="st1" d="M99.4,253.7c0,0.1,0,0.1,0,0.2c0,0.6,1,0.6,1,0c0-0.1,0-0.1,0-0.2C100.3,253.1,99.4,253.1,99.4,253.7
					L99.4,253.7z"/>
			</g>
		</g>
		<g>
			<g>
				<path class="st1" d="M91.2,268.3c0.2-0.1,0.4-0.3,0.6-0.4c0.5-0.3,0-1.2-0.5-0.8c-0.2,0.1-0.4,0.3-0.6,0.4
					C90.2,267.8,90.7,268.6,91.2,268.3L91.2,268.3z"/>
			</g>
		</g>
		<g>
			<g>
				<path class="st1" d="M90.7,271.8c0.4-0.4,0.8-0.6,1.3-0.7c0.6-0.1,0.3-1.1-0.3-0.9c-0.7,0.2-1.2,0.5-1.7,0.9
					C89.5,271.5,90.2,272.2,90.7,271.8L90.7,271.8z"/>
			</g>
		</g>
		<g>
			<g>
				<path class="st1" d="M86.7,272.3c0.1,0.1,0.1,0.3,0.2,0.4c0.3,0.5,1.1,0.1,0.8-0.5c-0.1-0.1-0.1-0.3-0.2-0.4
					C87.3,271.3,86.5,271.8,86.7,272.3L86.7,272.3z"/>
			</g>
		</g>
		<g>
			<g>
				<path class="st1" d="M83.1,273.4c0.5,0.3,1.1,0.3,1.6,0.2c0.6-0.1,0.3-1-0.3-0.9c-0.3,0.1-0.6,0-0.9-0.1
					C83.1,272.3,82.6,273.1,83.1,273.4L83.1,273.4z"/>
			</g>
		</g>
		<g>
			<g>
				<path class="st1" d="M91,264.3c0.6-0.1,1.3-0.2,1.9-0.2c0.6-0.1,0.6-1,0-1c-0.6,0.1-1.3,0.2-1.9,0.2
					C90.4,263.5,90.4,264.4,91,264.3L91,264.3z"/>
			</g>
		</g>
	</g>
	<g>
		<g>
			<g>
				<path class="st3" d="M176.1,222.7c10.2-9.2,20.5-18.5,30.7-27.7c1.5-1.4-0.7-3.6-2.2-2.2c-10.2,9.2-20.5,18.5-30.7,27.7
					C172.3,221.8,174.6,224.1,176.1,222.7L176.1,222.7z"/>
			</g>
		</g>
		<g>
			<g>
				<path class="st3" d="M210.8,236.9c10.2-9.2,20.5-18.5,30.7-27.7c1.5-1.4-0.7-3.6-2.2-2.2c-10.2,9.2-20.5,18.5-30.7,27.7
					C207,236,209.3,238.2,210.8,236.9L210.8,236.9z"/>
			</g>
		</g>
		<g>
			<g>
				<path class="st3" d="M173.1,247.3c21.4-20.9,42.9-41.8,64.3-62.7c1.5-1.4-0.8-3.7-2.2-2.2c-21.4,20.9-42.9,41.8-64.3,62.7
					C169.4,246.5,171.6,248.8,173.1,247.3L173.1,247.3z"/>
			</g>
		</g>
	</g>
	<g>
		<g>
			<g>
				<g>
					<g>
						<rect x="270" y="52.3" class="st4" width="1.4" height="88.5"/>
					</g>
				</g>
				<g>
					<g>
						<path class="st4" d="M276.3,140.8c0,3.1-2.5,5.6-5.6,5.6c-3.1,0-5.6-2.5-5.6-5.6c0-3.1,2.5-5.6,5.6-5.6
							C273.8,135.2,276.3,137.7,276.3,140.8z"/>
					</g>
				</g>
				<g>
					<g>
						<path class="st4" d="M270.8,159.7c-0.1,0-1.9,0-3.3-1.4c-0.9-0.9-1.3-2.1-1.3-3.7c0-0.4,0.3-0.7,0.7-0.7
							c0.4,0,0.7,0.3,0.7,0.7c0,1.1,0.3,2,0.9,2.6c0.9,0.9,2.2,0.9,2.2,0.9c2.1,0,3.8-1.7,3.8-3.8c0-2.1-1.7-3.8-3.8-3.8
							c-0.4,0-0.7-0.3-0.7-0.7v-4.1c0-0.4,0.3-0.7,0.7-0.7s0.7,0.3,0.7,0.7v3.4c2.6,0.4,4.5,2.6,4.5,5.2
							C276.1,157.3,273.7,159.7,270.8,159.7C270.8,159.7,270.8,159.7,270.8,159.7z"/>
					</g>
				</g>
			</g>
			<g>
				<g>
					<g>
						<path class="st4" d="M241.3,163.1c-0.3,0-0.5-0.3-0.6-0.6c-0.1-0.4,0.2-0.7,0.6-0.8l30.4-4.5c0.4-0.1,0.7,0.2,0.8,0.6
							c0.1,0.4-0.2,0.7-0.6,0.8l-30.4,4.5C241.4,163.2,241.3,163.1,241.3,163.1z"/>
					</g>
				</g>
				<g>
					<g>
						<path class="st4" d="M299.6,173.3c-0.1,0-0.1,0-0.2-0.1l-28-14.6c-0.3-0.2-0.5-0.6-0.3-0.9c0.2-0.3,0.6-0.5,0.9-0.3l28,14.6
							c0.3,0.2,0.5,0.6,0.3,0.9C300.2,173.2,299.9,173.3,299.6,173.3z"/>
					</g>
				</g>
				<g>
					<path class="st3" d="M298.6,231.9l-77-13.4c-3.2-0.6-5.3-3.6-4.8-6.8l7.9-45.4c0.6-3.2,3.6-5.3,6.8-4.8l77,13.4
						c3.2,0.6,5.3,3.6,4.8,6.8l-7.9,45.4C304.9,230.3,301.8,232.4,298.6,231.9z"/>
					<path class="st4" d="M298.4,232.6c-0.5,0-1,0-1.4-0.1l-74-12.8c-2.2-0.4-4.1-1.6-5.4-3.4c-1.3-1.8-1.8-4.1-1.4-6.3l7.4-42.4
						c0.8-4.6,5.1-7.6,9.7-6.8l74,12.9c2.2,0.4,4.1,1.6,5.4,3.4c1.3,1.8,1.8,4.1,1.4,6.3l-7.4,42.4
						C305.9,229.8,302.4,232.6,298.4,232.6z M231.8,162.6c-3.1,0-5.8,2.2-6.4,5.4l-7.4,42.4c-0.3,1.7,0.1,3.4,1.1,4.8
						c1,1.4,2.5,2.4,4.2,2.7l74,12.8c3.5,0.6,6.9-1.8,7.5-5.3l7.4-42.4c0.3-1.7-0.1-3.4-1.1-4.8c-1-1.4-2.5-2.4-4.2-2.7l-74-12.9
						C232.5,162.6,232.1,162.6,231.8,162.6z"/>
				</g>
				<g>
					<path class="st7" d="M297.6,227.1l-73.5-12.8c-2-0.4-3.4-2.3-3.1-4.3l7.1-40.8c0.4-2,2.3-3.4,4.3-3.1l73.5,12.8
						c2,0.4,3.4,2.3,3.1,4.3l-7.1,40.8C301.6,226.1,299.7,227.5,297.6,227.1z"/>
					<path class="st2" d="M297.5,228c-0.3,0-0.7,0-1-0.1L225,215.5c-1.5-0.3-2.8-1.1-3.7-2.3c-0.9-1.2-1.2-2.8-1-4.3l6.7-38.8
						c0.5-3.1,3.5-5.2,6.6-4.6l71.5,12.4c3.1,0.5,5.2,3.5,4.6,6.6l-6.7,38.8c-0.3,1.5-1.1,2.8-2.3,3.7
						C299.8,227.6,298.6,228,297.5,228z M296.8,226c1,0.2,2-0.1,2.8-0.6c0.8-0.6,1.4-1.5,1.6-2.5l6.7-38.8c0.4-2.1-1-4-3.1-4.4
						l-71.5-12.4c-2.1-0.4-4,1-4.4,3.1l-6.7,38.8c-0.2,1,0.1,2,0.6,2.8c0.6,0.8,1.5,1.4,2.5,1.6L296.8,226z"/>
				</g>
				<g>
					<polygon class="st3" points="262.7,221.1 281.3,204 291.6,226.1 					"/>
					<path class="st4" d="M292.7,226.9l-31.3-5.4l20.2-18.5L292.7,226.9z M264.1,220.7l26.4,4.6l-9.4-20.2L264.1,220.7z"/>
				</g>
				<g>
					<polygon class="st3" points="226,214.7 258.9,184.5 277.2,223.6 					"/>
					<path class="st4" d="M278.3,224.4l-53.7-9.3l34.5-31.7L278.3,224.4z M227.4,214.3l48.7,8.5l-17.4-37.2L227.4,214.3z"/>
				</g>
				<g>
					<path class="st3" d="M298.1,190.2c-0.4,2.5-2.8,4.2-5.3,3.8c-2.5-0.4-4.2-2.8-3.8-5.3c0.4-2.5,2.8-4.2,5.3-3.8
						C296.9,185.3,298.5,187.7,298.1,190.2z"/>
					<path class="st4" d="M293.6,194.7c-0.3,0-0.6,0-0.9-0.1c-2.8-0.5-4.8-3.2-4.3-6.1c0.2-1.4,1-2.6,2.1-3.4
						c1.1-0.8,2.5-1.1,3.9-0.9c1.4,0.2,2.6,1,3.4,2.1c0.8,1.1,1.1,2.5,0.9,3.9c-0.2,1.4-1,2.6-2.1,3.4
						C295.7,194.3,294.7,194.7,293.6,194.7z M293.6,185.4c-0.8,0-1.6,0.2-2.3,0.7c-0.9,0.6-1.4,1.5-1.6,2.6c-0.2,1,0.1,2.1,0.7,3
						c0.6,0.9,1.5,1.4,2.6,1.6c1,0.2,2.1-0.1,3-0.7c0.9-0.6,1.4-1.5,1.6-2.6l0,0c0.4-2.2-1.1-4.2-3.2-4.6
						C294,185.5,293.8,185.4,293.6,185.4z"/>
				</g>
			</g>
			<g>
				<g>
					<rect x="258.6" y="49.3" class="st7" width="69.1" height="7.6"/>
				</g>
			</g>
			<g>
				<g>
					<g>
						<g>
							<g>
								<g>
									<path class="st4" d="M387.7,206.5h-22.9V3.8h22.9V206.5z M367,204.2h18.4V6H367V204.2z"/>
								</g>
							</g>
							<g>
								<g>
									<g>
										<path class="st4" d="M387.4,26H365V3.7h22.4V26z M367.3,23.7h17.8V6h-17.8V23.7z"/>
									</g>
								</g>
								<g>
									<g>
										
											<rect x="375.1" y="0.6" transform="matrix(0.7071 -0.7071 0.7071 0.7071 99.7066 270.3734)" class="st4" width="2.3" height="28.4"/>
									</g>
								</g>
								<g>
									<g>
										
											<rect x="362" y="13.7" transform="matrix(0.7071 -0.7071 0.7071 0.7071 99.7074 270.3742)" class="st4" width="28.4" height="2.3"/>
									</g>
								</g>
							</g>
							<g>
								<g>
									<g>
										<path class="st4" d="M387.4,46.1H365V23.7h22.4V46.1z M367.3,43.8h17.8V26h-17.8V43.8z"/>
									</g>
								</g>
								<g>
									<g>
										
											<rect x="375.1" y="20.7" transform="matrix(0.7071 -0.7071 0.7071 0.7071 85.5264 276.2482)" class="st4" width="2.3" height="28.4"/>
									</g>
								</g>
								<g>
									<g>
										
											<rect x="362" y="33.7" transform="matrix(0.7071 -0.7071 0.7071 0.7071 85.5264 276.2482)" class="st4" width="28.4" height="2.3"/>
									</g>
								</g>
							</g>
							<g>
								<g>
									<g>
										<path class="st4" d="M387.4,66.1H365V43.8h22.4V66.1z M367.3,63.8h17.8V46.1h-17.8V63.8z"/>
									</g>
								</g>
								<g>
									<g>
										
											<rect x="375.1" y="40.8" transform="matrix(0.7071 -0.7071 0.7071 0.7071 71.344 282.1203)" class="st4" width="2.3" height="28.4"/>
									</g>
								</g>
								<g>
									<g>
										
											<rect x="362" y="53.8" transform="matrix(0.7071 -0.7071 0.7071 0.7071 71.3539 282.1336)" class="st4" width="28.4" height="2.3"/>
									</g>
								</g>
							</g>
							<g>
								<g>
									<g>
										<path class="st4" d="M387.4,86.2H365V63.8h22.4V86.2z M367.3,83.9h17.8V66.1h-17.8V83.9z"/>
									</g>
								</g>
								<g>
									<g>
										
											<rect x="375.1" y="60.8" transform="matrix(0.7071 -0.7071 0.7071 0.7071 57.1636 287.9952)" class="st4" width="2.3" height="28.4"/>
									</g>
								</g>
								<g>
									<g>
										
											<rect x="362" y="73.8" transform="matrix(0.7071 -0.7071 0.7071 0.7071 57.1643 287.9962)" class="st4" width="28.4" height="2.3"/>
									</g>
								</g>
							</g>
							<g>
								<g>
									<g>
										<path class="st4" d="M387.4,106.2H365V83.9h22.4V106.2z M367.3,103.9h17.8V86.2h-17.8V103.9z"/>
									</g>
								</g>
								<g>
									<g>
										
											<rect x="375.1" y="80.9" transform="matrix(0.7071 -0.7071 0.7071 0.7071 42.9833 293.8701)" class="st4" width="2.3" height="28.4"/>
									</g>
								</g>
								<g>
									<g>
										
											<rect x="362" y="93.9" transform="matrix(0.7071 -0.7071 0.7071 0.7071 42.9908 293.8826)" class="st4" width="28.4" height="2.3"/>
									</g>
								</g>
							</g>
							<g>
								<g>
									<g>
										<path class="st4" d="M387.4,126.3H365v-22.4h22.4V126.3z M367.3,124h17.8v-17.8h-17.8V124z"/>
									</g>
								</g>
								<g>
									<g>
										
											<rect x="375.1" y="100.9" transform="matrix(0.7071 -0.7071 0.7071 0.7071 28.8011 299.742)" class="st4" width="2.3" height="28.4"/>
									</g>
								</g>
								<g>
									<g>
										
											<rect x="362" y="114" transform="matrix(0.7071 -0.7071 0.7071 0.7071 28.8092 299.7571)" class="st4" width="28.4" height="2.3"/>
									</g>
								</g>
							</g>
							<g>
								<g>
									<g>
										<path class="st4" d="M387.4,146.3H365V124h22.4V146.3z M367.3,144h17.8v-17.8h-17.8V144z"/>
									</g>
								</g>
								<g>
									<g>
										
											<rect x="375.1" y="121" transform="matrix(0.7071 -0.7071 0.7071 0.7071 14.6212 305.618)" class="st4" width="2.3" height="28.4"/>
									</g>
								</g>
								<g>
									<g>
										
											<rect x="362" y="134" transform="matrix(0.7071 -0.7071 0.7071 0.7071 14.6276 305.6317)" class="st4" width="28.4" height="2.3"/>
									</g>
								</g>
							</g>
							<g>
								<g>
									<g>
										<path class="st4" d="M387.4,166.4H365V144h22.4V166.4z M367.3,164.1h17.8v-17.8h-17.8V164.1z"/>
									</g>
								</g>
								<g>
									<g>
										
											<rect x="375.1" y="141" transform="matrix(0.7071 -0.7071 0.7071 0.7071 0.4397 311.4909)" class="st4" width="2.3" height="28.4"/>
									</g>
								</g>
								<g>
									<g>
										
											<rect x="362" y="154.1" transform="matrix(0.7071 -0.7071 0.7071 0.7071 0.4461 311.5061)" class="st4" width="28.4" height="2.3"/>
									</g>
								</g>
							</g>
							<g>
								<g>
									<g>
										<path class="st4" d="M387.4,186.4H365v-22.4h22.4V186.4z M367.3,184.1h17.8v-17.8h-17.8V184.1z"/>
									</g>
								</g>
								<g>
									<g>
										
											<rect x="375.1" y="161.1" transform="matrix(0.7071 -0.7071 0.7071 0.7071 -13.7408 317.366)" class="st4" width="2.3" height="28.4"/>
									</g>
								</g>
								<g>
									<g>
										
											<rect x="362" y="174.1" transform="matrix(0.7071 -0.7071 0.7071 0.7071 -13.7354 317.3806)" class="st4" width="28.4" height="2.3"/>
									</g>
								</g>
							</g>
							<g>
								<g>
									<g>
										<path class="st4" d="M387.4,206.5H365v-22.4h22.4V206.5z M367.3,204.2h17.8v-17.8h-17.8V204.2z"/>
									</g>
								</g>
								<g>
									<g>
										
											<rect x="375.1" y="181.1" transform="matrix(0.7071 -0.7071 0.7071 0.7071 -27.9229 323.2362)" class="st4" width="2.3" height="28.4"/>
									</g>
								</g>
								<g>
									<g>
										
											<rect x="362" y="194.2" transform="matrix(0.7072 -0.707 0.707 0.7072 -27.9457 323.1639)" class="st4" width="28.4" height="2.3"/>
									</g>
								</g>
							</g>
						</g>
						<g>
							<g>
								<g>
									<g>
										<path class="st4" d="M427.3,45.8H405V23.4h22.4V45.8z M407.3,43.5H425V25.7h-17.8V43.5z"/>
									</g>
								</g>
								<g>
									<g>
										
											<rect x="401.9" y="33.4" transform="matrix(0.707 -0.7072 0.7072 0.707 97.4789 304.4371)" class="st4" width="28.4" height="2.3"/>
									</g>
								</g>
								<g>
									<g>
										
											<rect x="415" y="20.4" transform="matrix(0.7071 -0.7071 0.7071 0.7071 97.4274 304.3762)" class="st4" width="2.3" height="28.4"/>
									</g>
								</g>
							</g>
							<g>
								<g>
									<g>
										<path class="st4" d="M407.3,45.8h-22.4V23.4h22.4V45.8z M387.2,43.5H405V25.7h-17.8V43.5z"/>
									</g>
								</g>
								<g>
									<g>
										
											<rect x="381.9" y="33.4" transform="matrix(0.707 -0.7072 0.7072 0.707 91.6023 290.2534)" class="st4" width="28.4" height="2.3"/>
									</g>
								</g>
								<g>
									<g>
										
											<rect x="394.9" y="20.4" transform="matrix(0.7071 -0.7071 0.7071 0.7071 91.5527 290.1943)" class="st4" width="2.3" height="28.4"/>
									</g>
								</g>
							</g>
							<g>
								<g>
									<path class="st4" d="M387.2,45.8h-22.4V23.4h22.4V45.8z M367.1,43.5h17.8V25.7h-17.8V43.5z"/>
								</g>
							</g>
							<g>
								<g>
									<g>
										<path class="st4" d="M367.1,45.8h-22.4V23.4h22.4V45.8z M347.1,43.5h17.8V25.7h-17.8V43.5z"/>
									</g>
								</g>
								<g>
									<g>
										
											<rect x="341.8" y="33.4" transform="matrix(0.7071 -0.7071 0.7071 0.7071 79.8063 261.8341)" class="st4" width="28.4" height="2.3"/>
									</g>
								</g>
								<g>
									<g>
										
											<rect x="354.8" y="20.4" transform="matrix(0.7071 -0.7071 0.7071 0.7071 79.8049 261.8324)" class="st4" width="2.3" height="28.4"/>
									</g>
								</g>
							</g>
							<g>
								<g>
									<g>
										<path class="st4" d="M347.1,45.8h-22.4V23.4h22.4V45.8z M327,43.5h17.8V25.7H327V43.5z"/>
									</g>
								</g>
								<g>
									<g>
										
											<rect x="321.7" y="33.4" transform="matrix(0.7071 -0.7071 0.7071 0.7071 73.9316 247.6523)" class="st4" width="28.4" height="2.3"/>
									</g>
								</g>
								<g>
									<g>
										
											<rect x="334.8" y="20.4" transform="matrix(0.7071 -0.7071 0.7071 0.7071 73.9329 247.6538)" class="st4" width="2.3" height="28.4"/>
									</g>
								</g>
							</g>
							<g>
								<g>
									<g>
										<path class="st4" d="M327,45.8h-22.4V23.4H327V45.8z M307,43.5h17.8V25.7H307V43.5z"/>
									</g>
								</g>
								<g>
									<g>
										<path class="st4" d="M305.8,45.8h-20.1c-0.5,0-0.9-0.3-1.1-0.7c-0.2-0.4-0.1-0.9,0.2-1.3L305,23.7l1.6,1.6l-18.1,18.1
											h16.8l19.7-19.7l1.6,1.6l-20.1,20.1C306.4,45.6,306.1,45.8,305.8,45.8z"/>
									</g>
								</g>
								<g>
									<g>
										
											<rect x="314.7" y="20.4" transform="matrix(0.7071 -0.7071 0.7071 0.7071 68.0571 233.4705)" class="st4" width="2.3" height="28.4"/>
									</g>
								</g>
							</g>
						</g>
					</g>
					<g>
						<g>
							<g>
								<path class="st4" d="M387.7,228.8h-23v-22.4h23V228.8z M367.1,226.5h18.3v-17.8h-18.3V226.5z"/>
							</g>
						</g>
						<g>
							<g>
								<polygon class="st4" points="385.7,228.5 365.1,208.4 366.8,206.8 387.4,226.9 								"/>
							</g>
						</g>
						<g>
							<g>
								<polygon class="st4" points="366.8,228.5 365.1,226.9 385.7,206.8 387.4,208.4 								"/>
							</g>
						</g>
					</g>
					<g>
						<g>
							<g>
								<path class="st4" d="M387.7,309h-23v-22.4h23V309z M367.1,306.8h18.3V289h-18.3V306.8z"/>
							</g>
						</g>
						<g>
							<g>
								<polygon class="st4" points="385.7,308.7 365.1,288.7 366.8,287 387.4,307.1 								"/>
							</g>
						</g>
						<g>
							<g>
								<polygon class="st4" points="366.8,308.7 365.1,307.1 385.7,287 387.4,288.7 								"/>
							</g>
						</g>
					</g>
				</g>
				<g>
					<g>
						<g>
							<path class="st4" d="M387.7,247h-23v-22.4h23V247z M367.1,244.7h18.3v-17.8h-18.3V244.7z"/>
						</g>
					</g>
					<g>
						<g>
							<polygon class="st4" points="385.7,246.6 365.1,226.6 366.8,225 387.4,245 							"/>
						</g>
					</g>
					<g>
						<g>
							<polygon class="st4" points="366.8,246.6 365.1,245 385.7,225 387.4,226.6 							"/>
						</g>
					</g>
				</g>
				<g>
					<g>
						<g>
							<path class="st4" d="M387.7,267h-23v-22.4h23V267z M367.1,264.7h18.3V247h-18.3V264.7z"/>
						</g>
					</g>
					<g>
						<g>
							<polygon class="st4" points="385.7,266.7 365.1,246.6 366.8,245 387.4,265.1 							"/>
						</g>
					</g>
					<g>
						<g>
							<polygon class="st4" points="366.8,266.7 365.1,265.1 385.7,245 387.4,246.6 							"/>
						</g>
					</g>
				</g>
				<g>
					<g>
						<g>
							<path class="st4" d="M387.7,287.1h-23v-22.4h23V287.1z M367.1,284.8h18.3V267h-18.3V284.8z"/>
						</g>
					</g>
					<g>
						<g>
							<polygon class="st4" points="385.7,286.8 365.1,266.7 366.8,265.1 387.4,285.1 							"/>
						</g>
					</g>
					<g>
						<g>
							<polygon class="st4" points="366.8,286.8 365.1,285.1 385.7,265.1 387.4,266.7 							"/>
						</g>
					</g>
				</g>
			</g>
		</g>
	</g>
	<g>
		<path class="st2" d="M131.3,123.4"/>
		<g>
			<path class="st2" d="M131.3,125.3c2.4,0,2.5-3.8,0-3.8C128.9,121.5,128.9,125.3,131.3,125.3L131.3,125.3z"/>
		</g>
	</g>
	<g>
		<path class="st2" d="M337.4,83.7"/>
		<g>
			<path class="st2" d="M337.4,85.6c2.4,0,2.5-3.8,0-3.8C335,81.8,335,85.6,337.4,85.6L337.4,85.6z"/>
		</g>
	</g>
	<g>
		<path class="st2" d="M422.7,219.7c0.3,0,0.6,0,0.8,0"/>
		<g>
			<path class="st2" d="M422.7,221.6c0.3,0,0.6,0,0.8,0c1,0,1.9-0.9,1.9-1.9c0-1-0.8-1.9-1.9-1.9c-0.3,0-0.6,0-0.8,0
				c-1,0-1.9,0.9-1.9,1.9C420.9,220.7,421.7,221.6,422.7,221.6L422.7,221.6z"/>
		</g>
	</g>
	<g>
		<path class="st2" d="M56.1,247.6"/>
		<g>
			<path class="st2" d="M56.1,249.5c2.4,0,2.5-3.8,0-3.8C53.7,245.7,53.7,249.5,56.1,249.5L56.1,249.5z"/>
		</g>
	</g>
	<g>
		<path class="st2" d="M237.8,65.1"/>
		<g>
			<path class="st2" d="M237.8,67c2.4,0,2.5-3.8,0-3.8C235.3,63.2,235.3,67,237.8,67L237.8,67z"/>
		</g>
	</g>
</g>
<g id="DESIGNED_BY_FREEPIK">
</g>
</svg>
